<?xml version="1.0" standalone="no"?>
<!DOCTYPE svg PUBLIC "-//W3C//DTD SVG 20010904//EN"
 "http://www.w3.org/TR/2001/REC-SVG-20010904/DTD/svg10.dtd">
<svg version="1.0" xmlns="http://www.w3.org/2000/svg"
 width="260.000000pt" height="260.000000pt" viewBox="0 0 260.000000 260.000000"
 preserveAspectRatio="xMidYMid meet">
<metadata>
Created by potrace 1.11, written by Peter Selinger 2001-2013
</metadata>
<g transform="translate(0.000000,260.000000) scale(0.100000,-0.100000)"
fill="#000000" stroke="none">
<path d="M1265 2095 c-327 -61 -585 -294 -671 -606 -25 -89 -25 -299 0 -388
76 -276 286 -491 566 -580 72 -23 175 -41 233 -41 l37 0 0 118 0 118 -84 12
c-270 36 -478 236 -517 496 -44 292 183 585 492 635 117 19 109 26 109 -89 l0
-100 30 0 c44 0 147 -37 195 -70 86 -59 148 -157 161 -252 l7 -48 105 0 105 0
-7 56 c-22 190 -142 356 -321 445 -76 37 -187 68 -247 69 l-28 0 0 120 0 120
-47 -1 c-27 0 -79 -7 -118 -14z"/>
<path d="M1370 1423 c-23 -9 -60 -45 -76 -75 -42 -80 19 -176 117 -186 153
-15 220 165 93 249 -28 18 -99 25 -134 12z"/>
</g>
</svg>
