<svg aria-hidden="true" focusable="false" drole="img" xmlns="http://www.w3.org/2000/svg" viewBox="0 0 980 246">
<g>
	<g>
		<rect x="37.058" y="179.598" fill="currentColor" width="36.674" height="2.252"/>
	</g>
	<g>
		<rect x="34.557" y="187.521" fill="currentColor" width="39.175" height="2.254"/>
	</g>
	<g>
		<rect x="32.056" y="195.445" fill="currentColor" width="41.676" height="2.254"/>
	</g>
	<g>
		<rect x="154.047" y="187.398" fill="currentColor" width="2.207" height="12.51"/>
	</g>
	<g>
		<rect x="147.975" y="187.398" fill="currentColor" width="2.207" height="12.51"/>
	</g>
	<g>
		<rect x="141.903" y="187.398" fill="currentColor" width="2.208" height="12.51"/>
	</g>
	<g>
		<rect x="135.832" y="187.398" fill="currentColor" width="2.208" height="12.51"/>
	</g>
	<g>
		<rect x="112.909" y="183.645" fill="currentColor" width="7.919" height="3.754"/>
	</g>
	<g>
		<rect x="112.909" y="191.777" fill="currentColor" width="7.919" height="3.752"/>
	</g>
	<g>
		<rect x="220.854" y="173.635" fill="currentColor" width="7.919" height="3.754"/>
	</g>
	<g>
		<rect x="220.854" y="181.768" fill="currentColor" width="7.919" height="3.754"/>
	</g>
	<g>
		<rect x="220.854" y="189.9" fill="currentColor" width="7.919" height="3.752"/>
	</g>
	<g>
		<rect x="220.854" y="198.033" fill="currentColor" width="7.919" height="3.754"/>
	</g>
	<g>
		<polygon fill="currentColor" points="22.344,228.686 20.094,228.686 20.094,173.342 84.86,173.342 84.86,216.59 82.609,216.59 
			82.609,175.594 22.344,175.594 		"/>
	</g>
	<g>
		<polygon fill="currentColor" points="69.023,245.365 66.771,245.365 66.771,234.398 3.173,234.398 3.173,245.365 0.923,245.365 
			0.923,232.145 69.023,232.145 		"/>
	</g>
	<g>
		<rect x="29.556" y="203.369" fill="currentColor" width="44.176" height="2.252"/>
	</g>
	<g>
		<rect x="27.055" y="211.293" fill="currentColor" width="46.677" height="2.254"/>
	</g>
	<g>
		<rect x="30.806" y="219.217" fill="currentColor" width="42.926" height="2.254"/>
	</g>
	<g>
		<polygon fill="currentColor" points="105.948,245.367 108.2,245.367 108.2,234.92 128.205,234.92 128.205,184.771 159.296,184.771 
			159.296,245.367 161.547,245.367 161.547,182.518 125.953,182.518 125.953,232.668 105.948,232.668 		"/>
	</g>
	<g>
		<polygon fill="currentColor" points="82.609,245.367 84.861,245.367 84.861,229.186 104.449,229.186 104.449,179.766 116.119,179.766 
			116.119,167.672 127.204,167.672 127.204,176.971 129.455,176.971 129.455,165.418 113.868,165.418 113.868,177.514 
			102.197,177.514 102.197,226.934 82.609,226.934 		"/>
	</g>
	<g>
		<rect x="154.047" y="204.496" fill="currentColor" width="2.207" height="5.629"/>
	</g>
	<g>
		<rect x="147.975" y="204.496" fill="currentColor" width="2.207" height="5.629"/>
	</g>
	<g>
		<rect x="141.903" y="204.496" fill="currentColor" width="2.208" height="5.629"/>
	</g>
	<g>
		<rect x="135.832" y="204.496" fill="currentColor" width="2.208" height="5.629"/>
	</g>
	<g>
		<rect x="154.047" y="229.518" fill="currentColor" width="2.207" height="5.633"/>
	</g>
	<g>
		<rect x="147.975" y="229.518" fill="currentColor" width="2.207" height="5.633"/>
	</g>
	<g>
		<rect x="141.903" y="229.518" fill="currentColor" width="2.208" height="5.633"/>
	</g>
	<g>
		<rect x="135.832" y="229.518" fill="currentColor" width="2.208" height="5.633"/>
	</g>
	<g>
		<rect x="186.387" y="198.24" fill="currentColor" width="2.251" height="42.957"/>
	</g>
	<g>
		<rect x="107.199" y="178.641" fill="currentColor" width="2.251" height="46.709"/>
	</g>
	<g>
		<rect x="112.909" y="199.908" fill="currentColor" width="7.919" height="3.754"/>
	</g>
	<g>
		<rect x="112.909" y="208.041" fill="currentColor" width="7.919" height="3.754"/>
	</g>
	<g>
		<rect x="112.909" y="216.174" fill="currentColor" width="7.919" height="3.754"/>
	</g>
	<g>
		<polygon fill="currentColor" points="619.996,245.367 617.744,245.367 617.744,223.348 513.094,223.348 513.094,245.367 
			510.842,245.367 510.842,221.096 619.996,221.096 		"/>
	</g>
	<g>
		<polygon fill="currentColor" points="665.006,245.367 662.756,245.367 662.756,223.348 649.627,223.348 649.627,208.961 
			619.996,208.961 619.996,216.592 617.744,216.592 617.744,206.707 651.879,206.707 651.879,221.096 665.006,221.096 		"/>
	</g>
	<g>
		<path fill="currentColor" d="M610.33,216.404c-41.496-98.543-41.355-152.557-41.35-153.091l0.014-1.112h24.453v2.252H571.25
			c0.217,8.156,3.125,60.768,41.154,151.077L610.33,216.404z"/>
	</g>
	<g>
		<path fill="currentColor" d="M626.23,204.275l-2.219-0.391c8.6-48.867-29.561-148.534-29.949-149.537l-0.951-2.468l34.5,14.483
			l-0.084,0.83c-0.031,0.313-3.221,31.563-7.564,49.57l-2.188-0.527c3.914-16.224,6.891-43.368,7.426-48.442l-28.115-11.803
			C602.924,71.74,634.172,159.139,626.23,204.275z"/>
	</g>
	<g>
		<path fill="currentColor" d="M573.406,216.291c-11.826-39.238-0.143-93.237-0.021-93.779l2.197,0.487
			c-0.119,0.535-11.676,53.971-0.021,92.641L573.406,216.291z"/>
	</g>
	<g>
		<rect x="570.531" y="70.542" fill="currentColor" width="20.207" height="2.251"/>
	</g>
	<g>
		<rect x="571.238" y="77.548" fill="currentColor" width="23.875" height="2.254"/>
	</g>
	<g>
		<rect x="573.131" y="90.783" fill="currentColor" width="15.314" height="2.251"/>
	</g>
	<g>
		<rect x="575.299" y="102.558" fill="currentColor" width="28.982" height="2.251"/>
	</g>
	<g>
		<rect x="579.346" y="120.587" fill="currentColor" width="11.393" height="2.252"/>
	</g>
	<g>
		<rect x="581.736" y="129.869" fill="currentColor" width="22.545" height="2.254"/>
	</g>
	<g>
		<rect x="585.945" y="146.234" fill="currentColor" width="27.09" height="2.254"/>
	</g>
	<g>
		<rect x="591.846" y="163.334" fill="currentColor" width="19.521" height="2.252"/>
	</g>
	<g>
		<rect x="595.285" y="173.344" fill="currentColor" width="16.082" height="2.252"/>
	</g>
	<g>
		<rect x="599.055" y="183.77" fill="currentColor" width="14.814" height="2.254"/>
	</g>
	<g>
		<rect x="603.012" y="194.197" fill="currentColor" width="12.523" height="2.252"/>
	</g>
	<g>
		<rect x="570.531" y="154.16" fill="currentColor" width="11.205" height="2.252"/>
	</g>
	<g>
		<rect x="569.203" y="165.836" fill="currentColor" width="16.742" height="2.254"/>
	</g>
	<g>
		<rect x="569.203" y="173.344" fill="currentColor" width="8.371" height="2.252"/>
	</g>
	<g>
		<rect x="569.203" y="183.77" fill="currentColor" width="23.807" height="2.254"/>
	</g>
	<g>
		<rect x="570.107" y="191.924" fill="currentColor" width="9.238" height="2.252"/>
	</g>
	<g>
		<rect x="571.238" y="202.119" fill="currentColor" width="24.047" height="2.252"/>
	</g>
	<g>
		<rect x="600.576" y="67.957" fill="currentColor" width="10.791" height="2.251"/>
	</g>
	<g>
		<rect x="604.281" y="78.984" fill="currentColor" width="14.588" height="2.252"/>
	</g>
	<g>
		<rect x="605.973" y="85.763" fill="currentColor" width="7.896" height="2.253"/>
	</g>
	<g>
		<rect x="609.273" y="94.89" fill="currentColor" width="9.596" height="2.252"/>
	</g>
	<g>
		<rect x="626.408" y="216.174" fill="currentColor" width="3.297" height="29.193"/>
	</g>
	<g>
		<rect x="634.289" y="216.174" fill="currentColor" width="3.299" height="29.193"/>
	</g>
	<g>
		<rect x="642.172" y="216.174" fill="currentColor" width="3.299" height="29.193"/>
	</g>
	<g>
		<polygon fill="currentColor" points="683.275,245.365 681.023,245.365 681.023,211.875 664.936,211.875 664.936,218.256 
			662.686,218.256 662.686,209.623 683.275,209.623 		"/>
	</g>
	<g>
		<g>
			<polygon fill="currentColor" points="692.35,245.367 694.6,245.367 694.6,175.596 728.191,175.596 728.191,234.818 742.361,234.818 
				742.361,245.367 744.611,245.367 744.611,232.564 730.441,232.564 730.441,173.344 692.35,173.344 			"/>
		</g>
		<g>
			<polygon fill="currentColor" points="816.131,245.367 818.381,245.367 818.381,233.814 792.125,233.814 792.125,220.053 
				755.449,220.053 755.449,159.164 699.434,159.164 699.434,169.883 701.686,169.883 701.686,161.418 753.197,161.418 
				753.197,222.307 789.873,222.307 789.873,236.068 816.131,236.068 			"/>
		</g>
		<g>
			<polygon fill="currentColor" points="749.029,245.367 751.279,245.367 751.279,234.4 771.951,234.4 771.951,245.367 774.203,245.367 
				774.203,232.146 749.029,232.146 			"/>
		</g>
		<g>
			<rect x="709.729" y="154.16" fill="currentColor" width="42.094" height="2.252"/>
		</g>
		<g>
			<polygon fill="currentColor" points="776.537,216.592 778.787,216.592 778.787,148.32 750.154,148.32 750.154,150.572 
				776.537,150.572 			"/>
		</g>
		<g>
			<polygon fill="currentColor" points="844.055,219.094 846.305,219.094 846.305,116.208 776.537,116.208 776.537,144.441 
				778.787,144.441 778.787,118.46 844.055,118.46 			"/>
		</g>
		<g>
			<polygon fill="currentColor" points="863.225,245.367 865.477,245.367 865.477,222.764 841.303,222.764 841.303,192.945 
				820.299,192.945 820.299,222.764 797.252,222.764 797.252,225.016 822.549,225.016 822.549,195.197 839.053,195.197 
				839.053,225.016 863.225,225.016 			"/>
		</g>
		<g>
			<polygon fill="currentColor" points="898.652,218.678 900.902,218.678 900.902,165.801 857.807,167.121 857.807,218.469 
				860.059,218.469 860.059,169.307 898.652,168.123 			"/>
		</g>
		<g>
			<polygon fill="currentColor" points="867.811,245.367 870.061,245.367 870.061,237.176 886.395,225.016 904.902,225.016 
				904.902,234.4 912.404,234.4 912.404,245.367 914.656,245.367 914.656,232.146 907.154,232.146 907.154,222.764 885.65,222.764 
				867.811,236.045 			"/>
		</g>
		<g>
			<polygon fill="currentColor" points="978.672,245.367 980.922,245.367 980.922,220.053 968.002,220.053 968.002,205.455 
				905.902,205.455 905.902,195.824 914.656,195.824 914.656,186.023 927.408,186.023 927.408,202.703 940.912,202.703 
				940.912,188.525 953.248,188.525 953.248,201.16 955.5,201.16 955.5,186.271 938.662,186.271 938.662,200.451 929.66,200.451 
				929.66,183.77 912.404,183.77 912.404,193.57 903.652,193.57 903.652,207.709 965.752,207.709 965.752,222.307 978.672,222.307 
							"/>
		</g>
		<g>
			<polygon fill="currentColor" points="880.035,164.461 882.285,164.461 882.285,156.412 893.789,156.412 893.789,164.461 
				896.039,164.461 896.039,154.16 880.035,154.16 			"/>
		</g>
		<g>
			<rect x="883.662" y="150.406" fill="currentColor" width="8.752" height="2.254"/>
		</g>
		<g>
			<polygon fill="currentColor" points="888.037,131.932 890.121,148.613 888.037,148.613 885.953,148.613 			"/>
		</g>
		<g>
			<rect x="957.5" y="212.422" fill="currentColor" width="3.125" height="8.758"/>
		</g>
		<g>
			<rect x="949.686" y="212.422" fill="currentColor" width="3.125" height="8.758"/>
		</g>
		<g>
			<rect x="941.871" y="212.422" fill="currentColor" width="3.125" height="8.758"/>
		</g>
		<g>
			<rect x="934.057" y="212.422" fill="currentColor" width="3.125" height="8.758"/>
		</g>
		<g>
			<rect x="926.242" y="212.422" fill="currentColor" width="3.125" height="8.758"/>
		</g>
		<g>
			<rect x="918.428" y="212.422" fill="currentColor" width="3.125" height="8.758"/>
		</g>
		<g>
			<rect x="910.613" y="212.422" fill="currentColor" width="3.125" height="8.758"/>
		</g>
		<g>
			<rect x="970.629" y="228.479" fill="currentColor" width="3.125" height="12.197"/>
		</g>
		<g>
			<rect x="962.188" y="228.479" fill="currentColor" width="3.127" height="12.197"/>
		</g>
		<g>
			<rect x="953.748" y="228.479" fill="currentColor" width="3.127" height="12.197"/>
		</g>
		<g>
			<rect x="928.898" y="228.479" fill="currentColor" width="3.127" height="12.197"/>
		</g>
		<g>
			<rect x="920.459" y="228.479" fill="currentColor" width="3.125" height="12.197"/>
		</g>
		<g>
			<rect x="945.934" y="190.318" fill="currentColor" width="3.752" height="3.754"/>
		</g>
		<g>
			<rect x="945.934" y="196.572" fill="currentColor" width="3.752" height="3.754"/>
		</g>
		<g>
			<rect x="920.146" y="190.318" fill="currentColor" width="3.75" height="3.754"/>
		</g>
		<g>
			<rect x="920.146" y="196.572" fill="currentColor" width="3.75" height="3.754"/>
		</g>
		<g>
			<polygon fill="currentColor" points="865.414,218.469 867.664,218.469 867.664,179.871 891.289,179.871 891.289,218.469 
				893.537,218.469 893.537,177.617 865.414,177.617 			"/>
		</g>
		<g>
			<rect x="877.479" y="185.939" fill="currentColor" width="3.682" height="33.154"/>
		</g>
		<g>
			<rect x="870.916" y="185.939" fill="currentColor" width="3.68" height="33.154"/>
		</g>
		<g>
			<rect x="890.121" y="228.479" fill="currentColor" width="11.113" height="2.711"/>
		</g>
		<g>
			<rect x="890.121" y="233.223" fill="currentColor" width="11.113" height="2.709"/>
		</g>
		<g>
			<rect x="890.121" y="237.965" fill="currentColor" width="11.113" height="2.711"/>
		</g>
		<g>
			<rect x="856.225" y="228.479" fill="currentColor" width="2.707" height="6.15"/>
		</g>
		<g>
			<rect x="849.633" y="228.479" fill="currentColor" width="2.711" height="6.15"/>
		</g>
		<g>
			<rect x="843.045" y="228.479" fill="currentColor" width="2.707" height="6.15"/>
		</g>
		<g>
			<rect x="856.225" y="237.602" fill="currentColor" width="2.707" height="4.014"/>
		</g>
		<g>
			<rect x="849.633" y="237.602" fill="currentColor" width="2.711" height="4.014"/>
		</g>
		<g>
			<rect x="843.045" y="237.602" fill="currentColor" width="2.707" height="4.014"/>
		</g>
		<g>
			<rect x="826.424" y="198.449" fill="currentColor" width="10.42" height="1.877"/>
		</g>
		<g>
			<rect x="826.424" y="204.498" fill="currentColor" width="10.42" height="1.875"/>
		</g>
		<g>
			<rect x="826.424" y="210.545" fill="currentColor" width="10.42" height="1.877"/>
		</g>
		<g>
			<rect x="826.424" y="216.592" fill="currentColor" width="10.42" height="1.877"/>
		</g>
		<g>
			<rect x="826.424" y="228.947" fill="currentColor" width="10.42" height="1.875"/>
		</g>
		<g>
			<rect x="826.424" y="234.994" fill="currentColor" width="10.42" height="1.875"/>
		</g>
		<g>
			<rect x="710.563" y="180.725" fill="currentColor" width="2.707" height="4.172"/>
		</g>
		<g>
			<rect x="704.518" y="180.725" fill="currentColor" width="2.711" height="4.172"/>
		</g>
		<g>
			<rect x="698.477" y="180.725" fill="currentColor" width="2.707" height="4.172"/>
		</g>
		<g>
			<rect x="710.563" y="188.232" fill="currentColor" width="2.707" height="4.17"/>
		</g>
		<g>
			<rect x="704.518" y="188.232" fill="currentColor" width="2.711" height="4.17"/>
		</g>
		<g>
			<rect x="698.477" y="188.232" fill="currentColor" width="2.707" height="4.17"/>
		</g>
		<g>
			<rect x="710.563" y="195.738" fill="currentColor" width="2.707" height="4.172"/>
		</g>
		<g>
			<rect x="704.518" y="195.738" fill="currentColor" width="2.711" height="4.172"/>
		</g>
		<g>
			<rect x="698.477" y="195.738" fill="currentColor" width="2.707" height="4.172"/>
		</g>
		<g>
			<rect x="710.563" y="203.246" fill="currentColor" width="2.707" height="4.17"/>
		</g>
		<g>
			<rect x="704.518" y="203.246" fill="currentColor" width="2.711" height="4.17"/>
		</g>
		<g>
			<rect x="698.477" y="203.246" fill="currentColor" width="2.707" height="4.17"/>
		</g>
		<g>
			<rect x="710.563" y="210.752" fill="currentColor" width="2.707" height="4.172"/>
		</g>
		<g>
			<rect x="704.518" y="210.752" fill="currentColor" width="2.711" height="4.172"/>
		</g>
		<g>
			<rect x="698.477" y="210.752" fill="currentColor" width="2.707" height="4.172"/>
		</g>
		<g>
			<rect x="710.563" y="218.26" fill="currentColor" width="2.707" height="4.172"/>
		</g>
		<g>
			<rect x="704.518" y="218.26" fill="currentColor" width="2.711" height="4.172"/>
		</g>
		<g>
			<rect x="698.477" y="218.26" fill="currentColor" width="2.707" height="4.172"/>
		</g>
		<g>
			<rect x="819.133" y="123.38" fill="currentColor" width="22.504" height="1.668"/>
		</g>
		<g>
			<rect x="781.83" y="123.38" fill="currentColor" width="28.133" height="1.668"/>
		</g>
		<g>
			<rect x="819.133" y="127.344" fill="currentColor" width="22.504" height="1.668"/>
		</g>
		<g>
			<rect x="781.83" y="127.344" fill="currentColor" width="28.133" height="1.668"/>
		</g>
		<g>
			<rect x="819.133" y="131.305" fill="currentColor" width="22.504" height="1.67"/>
		</g>
		<g>
			<rect x="781.83" y="131.305" fill="currentColor" width="28.133" height="1.67"/>
		</g>
		<g>
			<rect x="819.133" y="142.246" fill="currentColor" width="22.504" height="1.668"/>
		</g>
		<g>
			<rect x="781.83" y="142.246" fill="currentColor" width="28.133" height="1.668"/>
		</g>
		<g>
			<rect x="819.133" y="146.207" fill="currentColor" width="22.504" height="1.668"/>
		</g>
		<g>
			<rect x="781.83" y="146.207" fill="currentColor" width="28.133" height="1.668"/>
		</g>
		<g>
			<rect x="819.133" y="157.148" fill="currentColor" width="22.504" height="1.668"/>
		</g>
		<g>
			<rect x="781.83" y="157.148" fill="currentColor" width="28.133" height="1.668"/>
		</g>
		<g>
			<rect x="819.133" y="161.109" fill="currentColor" width="22.504" height="1.668"/>
		</g>
		<g>
			<rect x="781.83" y="161.109" fill="currentColor" width="28.133" height="1.668"/>
		</g>
		<g>
			<rect x="819.133" y="172.051" fill="currentColor" width="22.504" height="1.668"/>
		</g>
		<g>
			<rect x="781.83" y="172.051" fill="currentColor" width="28.133" height="1.668"/>
		</g>
		<g>
			<rect x="819.133" y="176.012" fill="currentColor" width="22.504" height="1.668"/>
		</g>
		<g>
			<rect x="781.83" y="176.012" fill="currentColor" width="28.133" height="1.668"/>
		</g>
		<g>
			<rect x="781.83" y="186.953" fill="currentColor" width="28.133" height="1.668"/>
		</g>
		<g>
			<rect x="781.83" y="190.914" fill="currentColor" width="28.133" height="1.67"/>
		</g>
		<g>
			<rect x="781.83" y="201.854" fill="currentColor" width="28.133" height="1.67"/>
		</g>
		<g>
			<rect x="781.83" y="205.816" fill="currentColor" width="28.133" height="1.668"/>
		</g>
		<g>
			<rect x="767.658" y="155.285" fill="currentColor" width="2.918" height="9.176"/>
		</g>
		<g>
			<rect x="767.658" y="171.424" fill="currentColor" width="2.918" height="9.176"/>
		</g>
		<g>
			<rect x="767.658" y="187.564" fill="currentColor" width="2.918" height="9.174"/>
		</g>
		<g>
			<rect x="767.658" y="203.703" fill="currentColor" width="2.918" height="9.174"/>
		</g>
		<g>
			<rect x="707.385" y="164.461" fill="currentColor" width="42.77" height="5.004"/>
		</g>
		<g>
			<rect x="740.727" y="174.344" fill="currentColor" width="9.428" height="5.004"/>
		</g>
		<g>
			<rect x="740.727" y="184.227" fill="currentColor" width="9.428" height="5.004"/>
		</g>
		<g>
			<rect x="740.727" y="194.111" fill="currentColor" width="9.428" height="5.004"/>
		</g>
		<g>
			<rect x="740.727" y="203.994" fill="currentColor" width="9.428" height="5.004"/>
		</g>
		<g>
			<rect x="740.727" y="213.877" fill="currentColor" width="9.428" height="5.004"/>
		</g>
	</g>
	<g>
		<polygon fill="currentColor" points="501.84,245.367 499.588,245.367 499.588,242.115 437.073,242.115 437.073,237.736 
			385.561,237.736 385.561,245.367 383.31,245.367 383.31,235.482 439.324,235.482 439.324,239.861 501.84,239.861 		"/>
	</g>
	<g>
		<polygon fill="currentColor" points="474.334,236.609 472.082,236.609 472.082,208.961 414.318,208.961 414.318,233.795 
			412.066,233.795 412.066,206.707 474.334,206.707 		"/>
	</g>
	<g>
		<polygon fill="currentColor" points="374.308,245.367 372.057,245.367 372.057,197.949 414.318,197.949 414.318,204.08 412.066,204.08 
			412.066,200.203 374.308,200.203 		"/>
	</g>
	<g>
		<path fill="currentColor" d="M394.313,221.889h-7.669v-14.766h7.669V221.889z M388.895,219.635h3.167v-10.258h-3.167V219.635z"/>
	</g>
	<g>
		<polygon fill="currentColor" points="461.205,236.609 458.953,236.609 458.953,216.051 421.195,216.051 421.195,232.021 
			418.943,232.021 418.943,213.797 461.205,213.797 		"/>
	</g>
	<g>
		<polygon fill="currentColor" points="310.198,214.674 312.45,214.674 312.45,182.186 328.537,182.186 328.537,188.566 330.788,188.566 
			330.788,179.934 310.198,179.934 		"/>
	</g>
	<g>
		<polygon fill="currentColor" points="240.566,245.367 242.818,245.367 242.818,191.025 282.661,191.025 282.661,224.098 
			284.912,224.098 284.912,188.773 240.566,188.773 		"/>
	</g>
	<g>
		<polygon fill="currentColor" points="213.06,245.367 215.311,245.367 215.311,169.549 232.23,169.549 232.23,245.367 234.482,245.367 
			234.482,167.295 213.06,167.295 		"/>
	</g>
	<g>
		<polygon fill="currentColor" points="172.215,245.367 174.467,245.367 174.467,206.707 168.215,206.707 168.215,199.367 
			191.388,199.367 191.388,230.645 206.808,230.645 206.808,245.367 209.06,245.367 209.06,228.393 193.639,228.393 
			193.639,197.113 165.964,197.113 165.964,208.959 172.215,208.959 		"/>
	</g>
	<g>
		<polygon fill="currentColor" points="205.782,225.35 208.034,225.35 208.034,165.834 189.945,165.834 189.945,193.652 192.196,193.652 
			192.196,168.088 205.782,168.088 		"/>
	</g>
	<g>
		<rect x="220.854" y="206.166" fill="currentColor" width="7.919" height="3.752"/>
	</g>
	<g>
		<rect x="220.854" y="223.576" fill="currentColor" width="7.919" height="3.754"/>
	</g>
	<g>
		<rect x="220.854" y="231.709" fill="currentColor" width="7.919" height="3.752"/>
	</g>
	<g>
		<polygon fill="currentColor" points="262.238,245.367 264.49,245.367 264.49,234.711 273.074,234.711 273.074,245.367 275.326,245.367 
			275.326,232.459 262.238,232.459 		"/>
	</g>
	<g>
		<g>
			<polygon fill="currentColor" points="366.435,245.367 368.687,245.367 368.687,225.475 361.185,225.475 361.185,195.863 
				335.053,195.863 335.053,198.117 358.933,198.117 358.933,227.727 366.435,227.727 			"/>
		</g>
		<g>
			<rect x="348.931" y="202.412" fill="currentColor" width="2.252" height="24.188"/>
		</g>
		<g>
			<polygon fill="currentColor" points="353.516,245.367 355.766,245.367 355.766,232.564 345.347,232.564 345.347,225.475 
				330.76,225.475 330.76,202.412 328.509,202.412 328.509,227.727 343.097,227.727 343.097,234.818 353.516,234.818 			"/>
		</g>
		<g>
			<polyline fill="currentColor" points="352.849,191.256 352.849,193.529 330.343,193.529 330.343,200.203 324.508,200.203 
				324.508,227.727 305.753,227.727 305.753,239.861 320.591,239.861 320.591,232.668 337.554,232.668 337.554,234.922 
				322.841,234.922 322.841,242.115 303.503,242.115 303.503,225.475 322.258,225.475 322.258,197.949 328.093,197.949 
				328.093,191.277 			"/>
		</g>
	</g>
	<g>
		<g>
			<path fill="currentColor" d="M169.666,189.656c-0.622,0-1.126-0.506-1.126-1.127v-28.908c0-0.623,0.504-1.127,1.126-1.127
				s1.126,0.504,1.126,1.127v28.908C170.792,189.15,170.288,189.656,169.666,189.656z"/>
		</g>
		<g>
			<path fill="currentColor" d="M134.395,178.197c-0.622,0-1.126-0.506-1.126-1.127v-17.449c0-0.623,0.504-1.127,1.126-1.127
				s1.126,0.504,1.126,1.127v17.449C135.521,177.691,135.017,178.197,134.395,178.197z"/>
		</g>
		<g>
			<path fill="currentColor" d="M169.666,160.748h-9.389c-0.622,0-1.126-0.504-1.126-1.127s0.504-1.127,1.126-1.127h9.389
				c0.622,0,1.126,0.504,1.126,1.127S170.288,160.748,169.666,160.748z"/>
		</g>
		<g>
			<path fill="currentColor" d="M160.276,160.748c-0.511,0-0.974-0.352-1.095-0.871c-0.51-2.172-1.912-4.053-3.848-5.16
				c-0.54-0.309-0.728-0.996-0.42-1.535c0.308-0.541,0.997-0.73,1.535-0.42c2.478,1.416,4.272,3.82,4.924,6.602
				c0.142,0.607-0.233,1.213-0.839,1.354C160.448,160.738,160.361,160.748,160.276,160.748z"/>
		</g>
		<g>
			<path fill="currentColor" d="M143.783,160.748h-9.389c-0.622,0-1.126-0.504-1.126-1.127s0.504-1.127,1.126-1.127h9.389
				c0.622,0,1.126,0.504,1.126,1.127S144.405,160.748,143.783,160.748z"/>
		</g>
		<g>
			<path fill="currentColor" d="M143.784,160.748c-0.085,0-0.172-0.01-0.259-0.031c-0.604-0.143-0.98-0.748-0.838-1.354
				c0.652-2.781,2.447-5.188,4.924-6.602c0.539-0.311,1.227-0.121,1.535,0.42c0.308,0.539,0.12,1.227-0.42,1.535
				c-1.935,1.105-3.337,2.986-3.848,5.162C144.757,160.398,144.295,160.748,143.784,160.748z"/>
		</g>
		<g>
			<path fill="currentColor" d="M155.891,154.865c-0.206,0-0.415-0.057-0.602-0.176c-2.212-1.402-3.758-3.582-4.354-6.139
				c-0.142-0.605,0.234-1.211,0.84-1.352c0.603-0.146,1.211,0.234,1.352,0.84c0.462,1.977,1.658,3.664,3.368,4.75
				c0.525,0.332,0.681,1.027,0.348,1.553C156.628,154.68,156.263,154.865,155.891,154.865z"/>
		</g>
		<g>
			<path fill="currentColor" d="M148.17,154.865c-0.372,0-0.737-0.186-0.951-0.523c-0.333-0.525-0.178-1.221,0.348-1.553
				c1.711-1.088,2.907-2.773,3.368-4.75c0.142-0.605,0.752-0.984,1.352-0.84c0.605,0.141,0.981,0.746,0.84,1.352
				c-0.595,2.555-2.142,4.734-4.354,6.139C148.585,154.809,148.376,154.865,148.17,154.865z"/>
		</g>
		<g>
			<path fill="currentColor" d="M161.244,152.143c-0.622,0-1.126-0.504-1.126-1.125v-29.59c0-0.623,0.504-1.127,1.126-1.127
				s1.126,0.504,1.126,1.127v29.59C162.37,151.639,161.866,152.143,161.244,152.143z"/>
		</g>
		<g>
			<path fill="currentColor" d="M152.03,143.979c-3.62,0-6.566-2.949-6.566-6.572c0-3.621,2.946-6.568,6.566-6.568
				s6.566,2.947,6.566,6.568C158.597,141.029,155.65,143.979,152.03,143.979z M152.03,133.09c-2.379,0-4.314,1.938-4.314,4.316
				c0,2.381,1.936,4.318,4.314,4.318s4.314-1.938,4.314-4.318C156.345,135.027,154.409,133.09,152.03,133.09z"/>
		</g>
		<g>
			<path fill="currentColor" d="M169.666,157.807c-0.622,0-1.126-0.504-1.126-1.127v-6.014c0-0.623,0.504-1.127,1.126-1.127
				s1.126,0.504,1.126,1.127v6.014C170.792,157.303,170.288,157.807,169.666,157.807z"/>
		</g>
		<g>
			<path fill="currentColor" d="M169.666,151.793h-4.211c-0.622,0-1.126-0.504-1.126-1.127s0.504-1.127,1.126-1.127h4.211
				c0.622,0,1.126,0.504,1.126,1.127S170.288,151.793,169.666,151.793z"/>
		</g>
		<g>
			<path fill="currentColor" d="M167.562,151.793c-0.622,0-1.126-0.504-1.126-1.127v-7.814c0-0.623,0.504-1.127,1.126-1.127
				s1.126,0.504,1.126,1.127v7.814C168.688,151.289,168.184,151.793,167.562,151.793z"/>
		</g>
		<g>
			<path fill="currentColor" d="M142.818,152.143c-0.622,0-1.126-0.504-1.126-1.125v-29.59c0-0.623,0.504-1.127,1.126-1.127
				s1.126,0.504,1.126,1.127v29.59C143.944,151.639,143.44,152.143,142.818,152.143z"/>
		</g>
		<g>
			<path fill="currentColor" d="M134.395,157.807c-0.622,0-1.126-0.504-1.126-1.127v-6.014c0-0.623,0.504-1.127,1.126-1.127
				s1.126,0.504,1.126,1.127v6.014C135.521,157.303,135.017,157.807,134.395,157.807z"/>
		</g>
		<g>
			<path fill="currentColor" d="M138.605,151.793h-4.211c-0.622,0-1.126-0.504-1.126-1.127s0.504-1.127,1.126-1.127h4.211
				c0.622,0,1.126,0.504,1.126,1.127S139.228,151.793,138.605,151.793z"/>
		</g>
		<g>
			<path fill="currentColor" d="M136.5,151.793c-0.622,0-1.126-0.504-1.126-1.127v-7.814c0-0.623,0.504-1.127,1.126-1.127
				s1.126,0.504,1.126,1.127v7.814C137.626,151.289,137.122,151.793,136.5,151.793z"/>
		</g>
		<g>
			<path fill="currentColor" d="M143.783,172.775c-0.622,0-1.126-0.504-1.126-1.125v-12.029c0-0.623,0.504-1.127,1.126-1.127
				s1.126,0.504,1.126,1.127v12.029C144.909,172.271,144.405,172.775,143.783,172.775z"/>
		</g>
		<g>
			<path fill="currentColor" d="M160.277,172.775c-0.622,0-1.126-0.504-1.126-1.125v-12.029c0-0.623,0.504-1.127,1.126-1.127
				s1.126,0.504,1.126,1.127v12.029C161.403,172.271,160.899,172.775,160.277,172.775z"/>
		</g>
		<g>
			<path fill="currentColor" d="M154.839,172.775h-5.616c-0.622,0-1.126-0.504-1.126-1.125c0-0.623,0.504-1.127,1.126-1.127h5.616
				c0.622,0,1.126,0.504,1.126,1.127C155.965,172.271,155.461,172.775,154.839,172.775z"/>
		</g>
		<g>
			<path fill="currentColor" d="M155.188,129.93c-0.209,0-0.42-0.059-0.608-0.18c-2.302-1.484-3.676-4.004-3.676-6.741
				c0-0.623,0.504-1.127,1.126-1.127s1.126,0.504,1.126,1.127c0,1.967,0.987,3.78,2.643,4.848c0.522,0.336,0.674,1.033,0.337,1.557
				C155.92,129.748,155.559,129.93,155.188,129.93z"/>
		</g>
		<g>
			<path fill="currentColor" d="M148.873,129.93c-0.37,0-0.731-0.182-0.947-0.516c-0.337-0.523-0.186-1.221,0.337-1.557
				c1.654-1.066,2.642-2.879,2.642-4.848c0-0.623,0.504-1.127,1.126-1.127s1.126,0.504,1.126,1.127c0,2.737-1.374,5.258-3.675,6.741
				C149.293,129.871,149.082,129.93,148.873,129.93z"/>
		</g>
		<g>
			<path fill="currentColor" d="M146.59,122.553h-3.771c-0.622,0-1.126-0.505-1.126-1.126c0-0.623,0.504-1.127,1.126-1.127h3.771
				c0.622,0,1.126,0.504,1.126,1.127C147.716,122.048,147.212,122.553,146.59,122.553z"/>
		</g>
		<g>
			<path fill="currentColor" d="M161.244,122.553h-3.773c-0.622,0-1.126-0.505-1.126-1.126c0-0.623,0.504-1.127,1.126-1.127h3.773
				c0.622,0,1.126,0.504,1.126,1.127C162.37,122.048,161.866,122.553,161.244,122.553z"/>
		</g>
		<g>
			<path fill="currentColor" d="M144.134,122.553c-0.622,0-1.126-0.505-1.126-1.126v-13.521c0-0.622,0.504-1.127,1.126-1.127
				s1.126,0.505,1.126,1.127v13.521C145.26,122.048,144.756,122.553,144.134,122.553z"/>
		</g>
		<g>
			<path fill="currentColor" d="M148.872,118.252c-0.622,0-1.126-0.504-1.126-1.126v-9.221c0-0.622,0.504-1.127,1.126-1.127
				s1.126,0.505,1.126,1.127v9.221C149.998,117.749,149.494,118.252,148.872,118.252z"/>
		</g>
		<g>
			<path fill="currentColor" d="M159.927,122.553c-0.622,0-1.126-0.505-1.126-1.126v-13.521c0-0.622,0.504-1.127,1.126-1.127
				s1.126,0.505,1.126,1.127v13.521C161.053,122.048,160.549,122.553,159.927,122.553z"/>
		</g>
		<g>
			<path fill="currentColor" d="M155.189,118.252c-0.622,0-1.126-0.504-1.126-1.126v-9.221c0-0.622,0.504-1.127,1.126-1.127
				s1.126,0.505,1.126,1.127v9.221C156.315,117.749,155.812,118.252,155.189,118.252z"/>
		</g>
		<g>
			<path fill="currentColor" d="M148.871,109.033c-0.233,0-0.468-0.072-0.67-0.223c-0.499-0.371-0.604-1.076-0.232-1.575l3.158-4.258
				c0.371-0.501,1.075-0.604,1.574-0.233s0.604,1.076,0.232,1.576l-3.158,4.258C149.555,108.875,149.215,109.033,148.871,109.033z"
				/>
		</g>
		<g>
			<path fill="currentColor" d="M155.19,109.033c-0.344,0-0.684-0.157-0.904-0.455l-3.159-4.258c-0.371-0.5-0.267-1.205,0.232-1.576
				c0.497-0.371,1.203-0.268,1.574,0.233l3.159,4.258c0.371,0.499,0.267,1.204-0.232,1.575
				C155.659,108.96,155.424,109.033,155.19,109.033z"/>
		</g>
		<g>
			<path fill="currentColor" d="M155.188,109.033c-0.186,0-0.373-0.046-0.547-0.143c-0.543-0.303-0.738-0.989-0.436-1.532l2.37-4.258
				c0.304-0.542,0.989-0.737,1.531-0.437c0.543,0.304,0.738,0.99,0.436,1.533l-2.37,4.258
				C155.967,108.824,155.583,109.033,155.188,109.033z"/>
		</g>
		<g>
			<path fill="currentColor" d="M159.928,109.033c-0.396,0-0.778-0.209-0.984-0.58l-2.367-4.258c-0.303-0.543-0.107-1.229,0.437-1.531
				c0.541-0.303,1.228-0.107,1.53,0.438l2.367,4.258c0.303,0.543,0.107,1.229-0.437,1.531
				C160.301,108.987,160.113,109.033,159.928,109.033z"/>
		</g>
		<g>
			<path fill="currentColor" d="M144.133,109.033c-0.186,0-0.373-0.046-0.546-0.143c-0.544-0.303-0.739-0.988-0.437-1.531l2.368-4.258
				c0.303-0.545,0.987-0.74,1.53-0.438c0.544,0.304,0.739,0.988,0.437,1.531l-2.368,4.258
				C144.911,108.824,144.528,109.033,144.133,109.033z"/>
		</g>
		<g>
			<path fill="currentColor" d="M148.873,109.033c-0.396,0-0.778-0.209-0.984-0.578l-2.37-4.258c-0.303-0.543-0.107-1.229,0.436-1.533
				c0.543-0.303,1.229-0.107,1.531,0.437l2.37,4.258c0.303,0.543,0.107,1.229-0.436,1.532
				C149.246,108.987,149.059,109.033,148.873,109.033z"/>
		</g>
		<g>
			<path fill="currentColor" d="M147.112,105.87c-0.071,0-0.143-0.007-0.216-0.021c-0.609-0.118-1.009-0.71-0.89-1.319l4.919-25.372
				c0.118-0.61,0.702-1.012,1.319-0.89c0.609,0.117,1.009,0.709,0.89,1.319l-4.919,25.371
				C148.112,105.496,147.641,105.87,147.112,105.87z"/>
		</g>
		<g>
			<path fill="currentColor" d="M156.949,105.87c-0.528,0-1-0.374-1.104-0.912l-4.92-25.371c-0.119-0.61,0.28-1.202,0.89-1.319
				c0.616-0.124,1.201,0.279,1.319,0.89l4.92,25.371c0.119,0.61-0.28,1.202-0.89,1.32
				C157.092,105.863,157.021,105.87,156.949,105.87z"/>
		</g>
		<g>
			<path fill="currentColor" d="M152.03,80.499c-0.622,0-1.126-0.505-1.126-1.127v-4.214c0-0.623,0.504-1.127,1.126-1.127
				s1.126,0.504,1.126,1.127v4.214C153.156,79.994,152.652,80.499,152.03,80.499z"/>
		</g>
		<g>
			<path fill="currentColor" d="M147.754,148.369h-1.164c-0.622,0-1.126-0.506-1.126-1.127c0-0.623,0.504-1.127,1.126-1.127h1.164
				c0.622,0,1.126,0.504,1.126,1.127C148.88,147.863,148.376,148.369,147.754,148.369z"/>
		</g>
		<g>
			<path fill="currentColor" d="M157.471,148.369h-1.162c-0.622,0-1.126-0.506-1.126-1.127c0-0.623,0.504-1.127,1.126-1.127h1.162
				c0.622,0,1.126,0.504,1.126,1.127C158.597,147.863,158.093,148.369,157.471,148.369z"/>
		</g>
		<g>
			<path fill="currentColor" d="M152.03,159.803c-0.622,0-1.126-0.504-1.126-1.127v-1.623c0-0.623,0.504-1.127,1.126-1.127
				s1.126,0.504,1.126,1.127v1.623C153.156,159.299,152.652,159.803,152.03,159.803z"/>
		</g>
		<g>
			<path fill="currentColor" d="M164.973,167.816c-0.622,0-1.126-0.506-1.126-1.127v-1.602c0-0.623,0.504-1.127,1.126-1.127
				s1.126,0.504,1.126,1.127v1.602C166.099,167.311,165.595,167.816,164.973,167.816z"/>
		</g>
		<g>
			<path fill="currentColor" d="M139.089,167.816c-0.622,0-1.126-0.506-1.126-1.127v-1.602c0-0.623,0.504-1.127,1.126-1.127
				s1.126,0.504,1.126,1.127v1.602C140.215,167.311,139.711,167.816,139.089,167.816z"/>
		</g>
		<g>
			<path fill="currentColor" d="M163.81,177.805h-23.559c-0.622,0-1.126-0.506-1.126-1.127c0-0.623,0.504-1.127,1.126-1.127h23.559
				c0.622,0,1.126,0.504,1.126,1.127C164.936,177.299,164.432,177.805,163.81,177.805z"/>
		</g>
		<g>
			<path fill="currentColor" d="M153.61,138.533h-1.58c-0.622,0-1.126-0.504-1.126-1.127c0-0.621,0.504-1.125,1.126-1.125h1.58
				c0.622,0,1.126,0.504,1.126,1.125C154.736,138.029,154.232,138.533,153.61,138.533z"/>
		</g>
		<g>
			<path fill="currentColor" d="M152.03,138.533c-0.622,0-1.126-0.504-1.126-1.127v-2.051c0-0.623,0.504-1.127,1.126-1.127
				s1.126,0.504,1.126,1.127v2.051C153.156,138.029,152.652,138.533,152.03,138.533z"/>
		</g>
		<g>
			<path fill="currentColor" d="M173.79,183.918h-4.124c-0.622,0-1.126-0.504-1.126-1.127s0.504-1.127,1.126-1.127h4.124
				c0.622,0,1.126,0.504,1.126,1.127S174.412,183.918,173.79,183.918z"/>
		</g>
		<g>
			<path fill="currentColor" d="M173.79,183.918c-0.622,0-1.126-0.504-1.126-1.127v-5.115c0-0.621,0.504-1.125,1.126-1.125
				s1.126,0.504,1.126,1.125v5.115C174.916,183.414,174.412,183.918,173.79,183.918z"/>
		</g>
		<g>
			<path fill="currentColor" d="M176.337,180.34c-0.404,0-0.795-0.219-0.997-0.602c-0.304-0.578-0.897-0.936-1.55-0.936
				c-0.622,0-1.126-0.504-1.126-1.127c0-0.621,0.504-1.125,1.126-1.125c1.49,0,2.847,0.818,3.542,2.139
				c0.289,0.551,0.078,1.23-0.472,1.521C176.693,180.299,176.514,180.34,176.337,180.34z"/>
		</g>
		<g>
			<path fill="currentColor" d="M178.88,183.918c-0.622,0-1.126-0.504-1.126-1.127v-5.115c0-0.621,0.504-1.125,1.126-1.125
				s1.126,0.504,1.126,1.125v5.115C180.006,183.414,179.502,183.918,178.88,183.918z"/>
		</g>
		<g>
			<path fill="currentColor" d="M176.335,180.34c-0.176,0-0.355-0.041-0.522-0.129c-0.55-0.289-0.762-0.969-0.474-1.521
				c0.692-1.318,2.05-2.139,3.541-2.139c0.622,0,1.126,0.504,1.126,1.125c0,0.623-0.504,1.127-1.126,1.127
				c-0.652,0-1.245,0.357-1.547,0.936C177.131,180.121,176.74,180.34,176.335,180.34z"/>
		</g>
		<g>
			<path fill="currentColor" d="M183.005,183.918h-4.125c-0.622,0-1.126-0.504-1.126-1.127s0.504-1.127,1.126-1.127h4.125
				c0.622,0,1.126,0.504,1.126,1.127S183.627,183.918,183.005,183.918z"/>
		</g>
	</g>
	<g>
		<g>
			<path fill="currentColor" d="M349.032,153.877c-0.485,0-0.934-0.316-1.079-0.805c-0.177-0.596,0.162-1.223,0.758-1.4l43.797-13.051
				c0.602-0.178,1.224,0.162,1.4,0.758s-0.162,1.223-0.758,1.402l-43.797,13.049C349.246,153.861,349.138,153.877,349.032,153.877z"
				/>
		</g>
		<g>
			<path fill="currentColor" d="M366.025,152.781c-0.485,0-0.934-0.316-1.079-0.805c-0.177-0.596,0.162-1.225,0.758-1.402l26.804-7.986
				c0.602-0.176,1.224,0.164,1.4,0.758c0.177,0.598-0.162,1.225-0.758,1.402l-26.804,7.986
				C366.239,152.766,366.131,152.781,366.025,152.781z"/>
		</g>
		<g>
			<path fill="currentColor" d="M392.829,156.596h-43.797c-0.622,0-1.126-0.504-1.126-1.125c0-0.623,0.504-1.127,1.126-1.127h43.797
				c0.622,0,1.126,0.504,1.126,1.127C393.955,156.092,393.451,156.596,392.829,156.596z"/>
		</g>
		<g>
			<path fill="currentColor" d="M352.429,174.859c-0.622,0-1.126-0.504-1.126-1.127v-18.262c0-0.623,0.504-1.127,1.126-1.127
				s1.126,0.504,1.126,1.127v18.262C353.555,174.355,353.051,174.859,352.429,174.859z"/>
		</g>
		<g>
			<path fill="currentColor" d="M355.222,174.859h-25.893c-0.622,0-1.126-0.504-1.126-1.127s0.504-1.127,1.126-1.127h25.893
				c0.622,0,1.126,0.504,1.126,1.127S355.844,174.859,355.222,174.859z"/>
		</g>
		<g>
			<path fill="currentColor" d="M349.032,156.596c-0.622,0-1.126-0.504-1.126-1.125v-2.719c0-0.623,0.504-1.127,1.126-1.127
				s1.126,0.504,1.126,1.127v2.719C350.158,156.092,349.654,156.596,349.032,156.596z"/>
		</g>
		<g>
			<path fill="currentColor" d="M347.521,180.6c-0.512,0-0.974-0.35-1.095-0.869c-0.142-0.607,0.234-1.213,0.84-1.354l45.308-10.574
				c0.604-0.145,1.211,0.232,1.352,0.84c0.142,0.605-0.234,1.211-0.84,1.352l-45.308,10.576
				C347.691,180.59,347.605,180.6,347.521,180.6z"/>
		</g>
		<g>
			<path fill="currentColor" d="M369.055,179.502c-0.512,0-0.974-0.352-1.095-0.871c-0.142-0.605,0.234-1.211,0.84-1.352l23.773-5.551
				c0.604-0.146,1.211,0.234,1.352,0.84c0.142,0.605-0.234,1.213-0.84,1.354l-23.773,5.551
				C369.226,179.492,369.14,179.502,369.055,179.502z"/>
		</g>
		<g>
			<path fill="currentColor" d="M347.521,182.539c-0.622,0-1.126-0.506-1.126-1.127v-1.938c0-0.623,0.504-1.127,1.126-1.127
				s1.126,0.504,1.126,1.127v1.938C348.647,182.033,348.144,182.539,347.521,182.539z"/>
		</g>
		<g>
			<path fill="currentColor" d="M392.829,183.168h-45.308c-0.622,0-1.126-0.504-1.126-1.127c0-0.621,0.504-1.125,1.126-1.125h45.308
				c0.622,0,1.126,0.504,1.126,1.125C393.955,182.664,393.451,183.168,392.829,183.168z"/>
		</g>
		<g>
			<path fill="currentColor" d="M349.334,187.152c-0.622,0-1.126-0.504-1.126-1.127v-3.984c0-0.621,0.504-1.125,1.126-1.125
				s1.126,0.504,1.126,1.125v3.984C350.46,186.648,349.956,187.152,349.334,187.152z"/>
		</g>
		<g>
			<path fill="currentColor" d="M392.829,187.152h-43.495c-0.622,0-1.126-0.504-1.126-1.127c0-0.621,0.504-1.125,1.126-1.125h43.495
				c0.622,0,1.126,0.504,1.126,1.125C393.955,186.648,393.451,187.152,392.829,187.152z"/>
		</g>
		<g>
			<path fill="currentColor" d="M374.899,191.756c-0.622,0-1.126-0.504-1.126-1.127v-4.604c0-0.621,0.504-1.125,1.126-1.125
				s1.126,0.504,1.126,1.125v4.604C376.025,191.252,375.521,191.756,374.899,191.756z"/>
		</g>
		<g>
			<path fill="currentColor" d="M386.852,191.756c-0.622,0-1.126-0.504-1.126-1.127v-4.604c0-0.621,0.504-1.125,1.126-1.125
				s1.126,0.504,1.126,1.125v4.604C387.978,191.252,387.474,191.756,386.852,191.756z"/>
		</g>
		<g>
			<g>
				<path fill="currentColor" d="M373.138,167.797c-0.622,0-1.126-0.506-1.126-1.127v-3.211c0-0.623,0.504-1.127,1.126-1.127
					s1.126,0.504,1.126,1.127v3.211C374.264,167.291,373.76,167.797,373.138,167.797z"/>
			</g>
			<g>
				<path fill="currentColor" d="M369.056,167.797c-0.622,0-1.126-0.506-1.126-1.127v-3.211c0-0.623,0.504-1.127,1.126-1.127
					s1.126,0.504,1.126,1.127v3.211C370.182,167.291,369.678,167.797,369.056,167.797z"/>
			</g>
		</g>
		<g>
			<g>
				<path fill="currentColor" d="M384.411,167.797c-0.622,0-1.126-0.506-1.126-1.127v-3.211c0-0.623,0.504-1.127,1.126-1.127
					s1.126,0.504,1.126,1.127v3.211C385.537,167.291,385.033,167.797,384.411,167.797z"/>
			</g>
			<g>
				<path fill="currentColor" d="M380.329,167.797c-0.622,0-1.126-0.506-1.126-1.127v-3.211c0-0.623,0.504-1.127,1.126-1.127
					s1.126,0.504,1.126,1.127v3.211C381.455,167.291,380.951,167.797,380.329,167.797z"/>
			</g>
		</g>
		<g>
			<g>
				<path fill="currentColor" d="M361.865,167.797c-0.622,0-1.126-0.506-1.126-1.127v-3.211c0-0.623,0.504-1.127,1.126-1.127
					s1.126,0.504,1.126,1.127v3.211C362.991,167.291,362.487,167.797,361.865,167.797z"/>
			</g>
			<g>
				<path fill="currentColor" d="M357.784,167.797c-0.622,0-1.126-0.506-1.126-1.127v-3.211c0-0.623,0.504-1.127,1.126-1.127
					s1.126,0.504,1.126,1.127v3.211C358.91,167.291,358.406,167.797,357.784,167.797z"/>
			</g>
		</g>
		<g>
			<path fill="currentColor" d="M356.052,158.201c-0.622,0-1.126-0.504-1.126-1.125v-1.605c0-0.623,0.504-1.127,1.126-1.127
				s1.126,0.504,1.126,1.127v1.605C357.178,157.697,356.674,158.201,356.052,158.201z"/>
		</g>
		<g>
			<path fill="currentColor" d="M359.45,158.201c-0.622,0-1.126-0.504-1.126-1.125v-1.605c0-0.623,0.504-1.127,1.126-1.127
				s1.126,0.504,1.126,1.127v1.605C360.576,157.697,360.072,158.201,359.45,158.201z"/>
		</g>
		<g>
			<path fill="currentColor" d="M362.847,158.201c-0.622,0-1.126-0.504-1.126-1.125v-1.605c0-0.623,0.504-1.127,1.126-1.127
				s1.126,0.504,1.126,1.127v1.605C363.973,157.697,363.469,158.201,362.847,158.201z"/>
		</g>
		<g>
			<path fill="currentColor" d="M366.244,158.201c-0.622,0-1.126-0.504-1.126-1.125v-1.605c0-0.623,0.504-1.127,1.126-1.127
				s1.126,0.504,1.126,1.127v1.605C367.37,157.697,366.866,158.201,366.244,158.201z"/>
		</g>
		<g>
			<path fill="currentColor" d="M369.641,158.201c-0.622,0-1.126-0.504-1.126-1.125v-1.605c0-0.623,0.504-1.127,1.126-1.127
				s1.126,0.504,1.126,1.127v1.605C370.767,157.697,370.263,158.201,369.641,158.201z"/>
		</g>
		<g>
			<path fill="currentColor" d="M373.038,158.201c-0.622,0-1.126-0.504-1.126-1.125v-1.605c0-0.623,0.504-1.127,1.126-1.127
				s1.126,0.504,1.126,1.127v1.605C374.164,157.697,373.66,158.201,373.038,158.201z"/>
		</g>
		<g>
			<path fill="currentColor" d="M376.436,158.201c-0.622,0-1.126-0.504-1.126-1.125v-1.605c0-0.623,0.504-1.127,1.126-1.127
				s1.126,0.504,1.126,1.127v1.605C377.562,157.697,377.058,158.201,376.436,158.201z"/>
		</g>
		<g>
			<path fill="currentColor" d="M379.833,158.201c-0.622,0-1.126-0.504-1.126-1.125v-1.605c0-0.623,0.504-1.127,1.126-1.127
				s1.126,0.504,1.126,1.127v1.605C380.959,157.697,380.455,158.201,379.833,158.201z"/>
		</g>
		<g>
			<path fill="currentColor" d="M383.229,158.201c-0.622,0-1.126-0.504-1.126-1.125v-1.605c0-0.623,0.504-1.127,1.126-1.127
				s1.126,0.504,1.126,1.127v1.605C384.354,157.697,383.851,158.201,383.229,158.201z"/>
		</g>
		<g>
			<path fill="currentColor" d="M386.626,158.201c-0.622,0-1.126-0.504-1.126-1.125v-1.605c0-0.623,0.504-1.127,1.126-1.127
				s1.126,0.504,1.126,1.127v1.605C387.752,157.697,387.248,158.201,386.626,158.201z"/>
		</g>
		<g>
			<path fill="currentColor" d="M390.022,158.201c-0.622,0-1.126-0.504-1.126-1.125v-1.605c0-0.623,0.504-1.127,1.126-1.127
				s1.126,0.504,1.126,1.127v1.605C391.148,157.697,390.645,158.201,390.022,158.201z"/>
		</g>
		<g>
			<path fill="currentColor" d="M456.329,203.723c-0.622,0-1.126-0.504-1.126-1.127v-28.863c0-0.623,0.504-1.127,1.126-1.127
				s1.126,0.504,1.126,1.127v28.863C457.455,203.219,456.951,203.723,456.329,203.723z"/>
		</g>
		<g>
			<path fill="currentColor" d="M436.624,153.877c-0.105,0-0.214-0.016-0.321-0.047l-43.795-13.049c-0.596-0.18-0.935-0.807-0.758-1.402
				c0.178-0.596,0.796-0.936,1.4-0.758l43.795,13.051c0.596,0.178,0.935,0.805,0.758,1.4
				C437.558,153.561,437.109,153.877,436.624,153.877z"/>
		</g>
		<g>
			<path fill="currentColor" d="M419.631,152.781c-0.105,0-0.214-0.016-0.321-0.047l-26.802-7.986c-0.596-0.178-0.935-0.805-0.758-1.402
				c0.178-0.594,0.796-0.934,1.4-0.758l26.802,7.986c0.596,0.178,0.935,0.807,0.758,1.402
				C420.564,152.465,420.116,152.781,419.631,152.781z"/>
		</g>
		<g>
			<path fill="currentColor" d="M436.624,156.596h-43.795c-0.622,0-1.126-0.504-1.126-1.125c0-0.623,0.504-1.127,1.126-1.127h43.795
				c0.622,0,1.126,0.504,1.126,1.127C437.75,156.092,437.246,156.596,436.624,156.596z"/>
		</g>
		<g>
			<path fill="currentColor" d="M433.229,174.859c-0.622,0-1.126-0.504-1.126-1.127v-18.262c0-0.623,0.504-1.127,1.126-1.127
				s1.126,0.504,1.126,1.127v18.262C434.354,174.355,433.851,174.859,433.229,174.859z"/>
		</g>
		<g>
			<path fill="currentColor" d="M456.329,174.859h-25.894c-0.622,0-1.126-0.504-1.126-1.127s0.504-1.127,1.126-1.127h25.894
				c0.622,0,1.126,0.504,1.126,1.127S456.951,174.859,456.329,174.859z"/>
		</g>
		<g>
			<path fill="currentColor" d="M436.624,156.596c-0.622,0-1.126-0.504-1.126-1.125v-2.719c0-0.623,0.504-1.127,1.126-1.127
				s1.126,0.504,1.126,1.127v2.719C437.75,156.092,437.246,156.596,436.624,156.596z"/>
		</g>
		<g>
			<path fill="currentColor" d="M438.137,180.6c-0.085,0-0.171-0.01-0.257-0.029l-45.307-10.576c-0.605-0.141-0.981-0.746-0.84-1.352
				c0.142-0.607,0.751-0.984,1.352-0.84l45.307,10.574c0.605,0.141,0.981,0.746,0.84,1.354
				C439.11,180.25,438.648,180.6,438.137,180.6z"/>
		</g>
		<g>
			<path fill="currentColor" d="M416.602,179.502c-0.085,0-0.171-0.01-0.257-0.029l-23.771-5.551c-0.605-0.141-0.981-0.748-0.84-1.354
				s0.745-0.988,1.352-0.84l23.771,5.551c0.605,0.141,0.981,0.746,0.84,1.352C417.575,179.15,417.112,179.502,416.602,179.502z"/>
		</g>
		<g>
			<path fill="currentColor" d="M438.136,182.539c-0.622,0-1.126-0.506-1.126-1.127v-1.938c0-0.623,0.504-1.127,1.126-1.127
				s1.126,0.504,1.126,1.127v1.938C439.262,182.033,438.758,182.539,438.136,182.539z"/>
		</g>
		<g>
			<path fill="currentColor" d="M438.136,183.168h-45.307c-0.622,0-1.126-0.504-1.126-1.127c0-0.621,0.504-1.125,1.126-1.125h45.307
				c0.622,0,1.126,0.504,1.126,1.125C439.262,182.664,438.758,183.168,438.136,183.168z"/>
		</g>
		<g>
			<path fill="currentColor" d="M436.323,187.152c-0.622,0-1.126-0.504-1.126-1.127v-3.984c0-0.621,0.504-1.125,1.126-1.125
				s1.126,0.504,1.126,1.125v3.984C437.449,186.648,436.945,187.152,436.323,187.152z"/>
		</g>
		<g>
			<path fill="currentColor" d="M436.323,187.152h-43.494c-0.622,0-1.126-0.504-1.126-1.127c0-0.621,0.504-1.125,1.126-1.125h43.494
				c0.622,0,1.126,0.504,1.126,1.125C437.449,186.648,436.945,187.152,436.323,187.152z"/>
		</g>
		<g>
			<path fill="currentColor" d="M456.329,183.168h-12.946c-0.622,0-1.126-0.504-1.126-1.127c0-0.621,0.504-1.125,1.126-1.125h12.946
				c0.622,0,1.126,0.504,1.126,1.125C457.455,182.664,456.951,183.168,456.329,183.168z"/>
		</g>
		<g>
			<path fill="currentColor" d="M456.329,187.152h-10.041c-0.622,0-1.126-0.504-1.126-1.127c0-0.621,0.504-1.125,1.126-1.125h10.041
				c0.622,0,1.126,0.504,1.126,1.125C457.455,186.648,456.951,187.152,456.329,187.152z"/>
		</g>
		<g>
			<path fill="currentColor" d="M434.663,198.303c-0.622,0-1.126-0.504-1.126-1.125v-11.152c0-0.621,0.504-1.125,1.126-1.125
				s1.126,0.504,1.126,1.125v11.152C435.789,197.799,435.285,198.303,434.663,198.303z"/>
		</g>
		<g>
			<path fill="currentColor" d="M422.71,197.529c-0.622,0-1.126-0.506-1.126-1.127v-10.377c0-0.621,0.504-1.125,1.126-1.125
				s1.126,0.504,1.126,1.125v10.377C423.836,197.023,423.332,197.529,422.71,197.529z"/>
		</g>
		<g>
			<path fill="currentColor" d="M410.758,191.756c-0.622,0-1.126-0.504-1.126-1.127v-4.604c0-0.621,0.504-1.125,1.126-1.125
				s1.126,0.504,1.126,1.125v4.604C411.884,191.252,411.38,191.756,410.758,191.756z"/>
		</g>
		<g>
			<path fill="currentColor" d="M398.805,191.756c-0.622,0-1.126-0.504-1.126-1.127v-4.604c0-0.621,0.504-1.125,1.126-1.125
				s1.126,0.504,1.126,1.125v4.604C399.931,191.252,399.427,191.756,398.805,191.756z"/>
		</g>
		<g>
			<path fill="currentColor" d="M449.855,198.883c-0.573,0-1.063-0.438-1.119-1.02c-0.174-1.789-1.66-3.141-3.458-3.141
				s-3.283,1.35-3.455,3.141c-0.059,0.619-0.612,1.086-1.228,1.014c-0.619-0.061-1.072-0.611-1.013-1.229
				c0.283-2.951,2.731-5.18,5.695-5.18c2.963,0,5.412,2.229,5.698,5.178c0.061,0.619-0.393,1.17-1.012,1.23
				C449.928,198.881,449.892,198.883,449.855,198.883z"/>
		</g>
		<g>
			<g>
				<path fill="currentColor" d="M412.519,167.797c-0.622,0-1.126-0.506-1.126-1.127v-3.211c0-0.623,0.504-1.127,1.126-1.127
					s1.126,0.504,1.126,1.127v3.211C413.645,167.291,413.141,167.797,412.519,167.797z"/>
			</g>
			<g>
				<path fill="currentColor" d="M416.601,167.797c-0.622,0-1.126-0.506-1.126-1.127v-3.211c0-0.623,0.504-1.127,1.126-1.127
					s1.126,0.504,1.126,1.127v3.211C417.727,167.291,417.223,167.797,416.601,167.797z"/>
			</g>
		</g>
		<g>
			<g>
				<path fill="currentColor" d="M401.245,167.797c-0.622,0-1.126-0.506-1.126-1.127v-3.211c0-0.623,0.504-1.127,1.126-1.127
					s1.126,0.504,1.126,1.127v3.211C402.371,167.291,401.867,167.797,401.245,167.797z"/>
			</g>
			<g>
				<path fill="currentColor" d="M405.328,167.797c-0.622,0-1.126-0.506-1.126-1.127v-3.211c0-0.623,0.504-1.127,1.126-1.127
					s1.126,0.504,1.126,1.127v3.211C406.454,167.291,405.95,167.797,405.328,167.797z"/>
			</g>
		</g>
		<g>
			<g>
				<path fill="currentColor" d="M423.792,167.797c-0.622,0-1.126-0.506-1.126-1.127v-3.211c0-0.623,0.504-1.127,1.126-1.127
					s1.126,0.504,1.126,1.127v3.211C424.918,167.291,424.414,167.797,423.792,167.797z"/>
			</g>
			<g>
				<path fill="currentColor" d="M427.875,167.797c-0.622,0-1.126-0.506-1.126-1.127v-3.211c0-0.623,0.504-1.127,1.126-1.127
					s1.126,0.504,1.126,1.127v3.211C429.001,167.291,428.497,167.797,427.875,167.797z"/>
			</g>
		</g>
		<g>
			<path fill="currentColor" d="M429.605,158.201c-0.622,0-1.126-0.504-1.126-1.125v-1.605c0-0.623,0.504-1.127,1.126-1.127
				s1.126,0.504,1.126,1.127v1.605C430.731,157.697,430.228,158.201,429.605,158.201z"/>
		</g>
		<g>
			<path fill="currentColor" d="M426.208,158.201c-0.622,0-1.126-0.504-1.126-1.125v-1.605c0-0.623,0.504-1.127,1.126-1.127
				s1.126,0.504,1.126,1.127v1.605C427.334,157.697,426.83,158.201,426.208,158.201z"/>
		</g>
		<g>
			<path fill="currentColor" d="M422.812,158.201c-0.622,0-1.126-0.504-1.126-1.125v-1.605c0-0.623,0.504-1.127,1.126-1.127
				s1.126,0.504,1.126,1.127v1.605C423.938,157.697,423.434,158.201,422.812,158.201z"/>
		</g>
		<g>
			<path fill="currentColor" d="M419.413,158.201c-0.622,0-1.126-0.504-1.126-1.125v-1.605c0-0.623,0.504-1.127,1.126-1.127
				s1.126,0.504,1.126,1.127v1.605C420.539,157.697,420.035,158.201,419.413,158.201z"/>
		</g>
		<g>
			<path fill="currentColor" d="M416.018,158.201c-0.622,0-1.126-0.504-1.126-1.125v-1.605c0-0.623,0.504-1.127,1.126-1.127
				s1.126,0.504,1.126,1.127v1.605C417.144,157.697,416.64,158.201,416.018,158.201z"/>
		</g>
		<g>
			<path fill="currentColor" d="M412.62,158.201c-0.622,0-1.126-0.504-1.126-1.125v-1.605c0-0.623,0.504-1.127,1.126-1.127
				s1.126,0.504,1.126,1.127v1.605C413.746,157.697,413.242,158.201,412.62,158.201z"/>
		</g>
		<g>
			<path fill="currentColor" d="M409.224,158.201c-0.622,0-1.126-0.504-1.126-1.125v-1.605c0-0.623,0.504-1.127,1.126-1.127
				s1.126,0.504,1.126,1.127v1.605C410.35,157.697,409.846,158.201,409.224,158.201z"/>
		</g>
		<g>
			<path fill="currentColor" d="M405.825,158.201c-0.622,0-1.126-0.504-1.126-1.125v-1.605c0-0.623,0.504-1.127,1.126-1.127
				s1.126,0.504,1.126,1.127v1.605C406.951,157.697,406.447,158.201,405.825,158.201z"/>
		</g>
		<g>
			<path fill="currentColor" d="M402.428,158.201c-0.622,0-1.126-0.504-1.126-1.125v-1.605c0-0.623,0.504-1.127,1.126-1.127
				s1.126,0.504,1.126,1.127v1.605C403.554,157.697,403.05,158.201,402.428,158.201z"/>
		</g>
		<g>
			<path fill="currentColor" d="M399.03,158.201c-0.622,0-1.126-0.504-1.126-1.125v-1.605c0-0.623,0.504-1.127,1.126-1.127
				s1.126,0.504,1.126,1.127v1.605C400.156,157.697,399.652,158.201,399.03,158.201z"/>
		</g>
		<g>
			<path fill="currentColor" d="M395.633,158.201c-0.622,0-1.126-0.504-1.126-1.125v-1.605c0-0.623,0.504-1.127,1.126-1.127
				s1.126,0.504,1.126,1.127v1.605C396.759,157.697,396.255,158.201,395.633,158.201z"/>
		</g>
	</g>
	<g>
		<path fill="currentColor" d="M297.456,89.542h-4.154c-0.622,0-1.126-0.505-1.126-1.127s0.504-1.126,1.126-1.126h4.154
			c0.622,0,1.126,0.504,1.126,1.126S298.078,89.542,297.456,89.542z"/>
	</g>
	<g>
		<path fill="currentColor" d="M293.302,89.542c-0.622,0-1.126-0.505-1.126-1.127v-3.473c0-0.622,0.504-1.127,1.126-1.127
			s1.126,0.505,1.126,1.127v3.473C294.428,89.037,293.924,89.542,293.302,89.542z"/>
	</g>
	<g>
		<path fill="currentColor" d="M293.302,86.068h-1.23c-0.622,0-1.126-0.504-1.126-1.126s0.504-1.127,1.126-1.127h1.23
			c0.622,0,1.126,0.505,1.126,1.127S293.924,86.068,293.302,86.068z"/>
	</g>
	<g>
		<path fill="currentColor" d="M292.071,86.068c-0.622,0-1.126-0.504-1.126-1.126V74.185c0-0.622,0.504-1.126,1.126-1.126
			s1.126,0.504,1.126,1.126v10.757C293.197,85.564,292.693,86.068,292.071,86.068z"/>
	</g>
	<g>
		<path fill="currentColor" d="M297.456,75.312h-5.385c-0.622,0-1.126-0.504-1.126-1.127c0-0.622,0.504-1.126,1.126-1.126h5.385
			c0.622,0,1.126,0.504,1.126,1.126C298.582,74.808,298.078,75.312,297.456,75.312z"/>
	</g>
	<g>
		<path fill="currentColor" d="M294.763,75.312c-0.622,0-1.126-0.504-1.126-1.127V66.23c0-0.623,0.504-1.127,1.126-1.127
			s1.126,0.504,1.126,1.127v7.955C295.889,74.808,295.385,75.312,294.763,75.312z"/>
	</g>
	<g>
		<path fill="currentColor" d="M297.456,67.357h-2.693c-0.622,0-1.126-0.504-1.126-1.127s0.504-1.127,1.126-1.127h2.693
			c0.622,0,1.126,0.504,1.126,1.127S298.078,67.357,297.456,67.357z"/>
	</g>
	<g>
		<path fill="currentColor" d="M294.311,116.283c-0.622,0-1.126-0.504-1.126-1.127V88.415c0-0.622,0.504-1.126,1.126-1.126
			s1.126,0.504,1.126,1.126v26.741C295.437,115.779,294.933,116.283,294.311,116.283z"/>
	</g>
	<g>
		<path fill="currentColor" d="M297.456,116.283h-4.77c-0.622,0-1.126-0.504-1.126-1.127s0.504-1.127,1.126-1.127h4.77
			c0.622,0,1.126,0.504,1.126,1.127S298.078,116.283,297.456,116.283z"/>
	</g>
	<g>
		<path fill="currentColor" d="M292.687,123.265c-0.622,0-1.126-0.504-1.126-1.126v-6.983c0-0.623,0.504-1.127,1.126-1.127
			s1.126,0.504,1.126,1.127v6.983C293.813,122.761,293.309,123.265,292.687,123.265z"/>
	</g>
	<g>
		<path fill="currentColor" d="M297.456,123.265h-4.77c-0.622,0-1.126-0.504-1.126-1.126s0.504-1.127,1.126-1.127h4.77
			c0.622,0,1.126,0.505,1.126,1.127S298.078,123.265,297.456,123.265z"/>
	</g>
	<g>
		<path fill="currentColor" d="M293.19,163.152c-0.006,0-0.013,0-0.019,0c-0.622-0.01-1.117-0.523-1.106-1.145l0.672-39.887
			c0.01-0.615,0.512-1.108,1.125-1.108c0.006,0,0.013,0.001,0.019,0.001c0.622,0.01,1.117,0.523,1.106,1.145l-0.672,39.887
			C294.306,162.66,293.804,163.152,293.19,163.152z"/>
	</g>
	<g>
		<path fill="currentColor" d="M297.456,163.152h-6.953c-0.622,0-1.126-0.504-1.126-1.127c0-0.621,0.504-1.125,1.126-1.125h6.953
			c0.622,0,1.126,0.504,1.126,1.125C298.582,162.648,298.078,163.152,297.456,163.152z"/>
	</g>
	<g>
		<path fill="currentColor" d="M290.503,177.197c-0.622,0-1.126-0.504-1.126-1.127v-14.045c0-0.621,0.504-1.125,1.126-1.125
			s1.126,0.504,1.126,1.125v14.045C291.629,176.693,291.125,177.197,290.503,177.197z"/>
	</g>
	<g>
		<path fill="currentColor" d="M297.456,177.197h-6.953c-0.622,0-1.126-0.504-1.126-1.127s0.504-1.127,1.126-1.127h6.953
			c0.622,0,1.126,0.504,1.126,1.127S298.078,177.197,297.456,177.197z"/>
	</g>
	<g>
		<path fill="currentColor" d="M291.736,207.148c-0.009,0-0.018-0.002-0.026-0.002c-0.621-0.014-1.113-0.527-1.1-1.15l0.671-29.951
			c0.014-0.621,0.563-1.119,1.15-1.1c0.621,0.014,1.113,0.527,1.1,1.15l-0.671,29.951
			C292.847,206.66,292.346,207.148,291.736,207.148z"/>
	</g>
	<g>
		<path fill="currentColor" d="M277.627,246.494c-0.239,0-0.48-0.076-0.686-0.234c-0.492-0.379-0.585-1.086-0.205-1.578
			c8.608-11.199,13.406-24.58,13.874-38.697c0.021-0.621,0.563-1.078,1.162-1.088c0.621,0.02,1.108,0.541,1.088,1.162
			c-0.483,14.592-5.442,28.422-14.341,39.996C278.298,246.344,277.965,246.494,277.627,246.494z"/>
	</g>
	<g>
		<path fill="currentColor" d="M301.606,89.542h-4.15c-0.622,0-1.126-0.505-1.126-1.127s0.504-1.126,1.126-1.126h4.15
			c0.622,0,1.126,0.504,1.126,1.126S302.229,89.542,301.606,89.542z"/>
	</g>
	<g>
		<path fill="currentColor" d="M301.606,89.542c-0.622,0-1.126-0.505-1.126-1.127v-3.473c0-0.622,0.504-1.127,1.126-1.127
			s1.126,0.505,1.126,1.127v3.473C302.732,89.037,302.229,89.542,301.606,89.542z"/>
	</g>
	<g>
		<path fill="currentColor" d="M302.839,86.068h-1.232c-0.622,0-1.126-0.504-1.126-1.126s0.504-1.127,1.126-1.127h1.232
			c0.622,0,1.126,0.505,1.126,1.127S303.461,86.068,302.839,86.068z"/>
	</g>
	<g>
		<path fill="currentColor" d="M302.839,86.068c-0.622,0-1.126-0.504-1.126-1.126V74.185c0-0.622,0.504-1.126,1.126-1.126
			s1.126,0.504,1.126,1.126v10.757C303.965,85.564,303.461,86.068,302.839,86.068z"/>
	</g>
	<g>
		<path fill="currentColor" d="M302.839,75.312h-5.383c-0.622,0-1.126-0.504-1.126-1.127c0-0.622,0.504-1.126,1.126-1.126h5.383
			c0.622,0,1.126,0.504,1.126,1.126C303.965,74.808,303.461,75.312,302.839,75.312z"/>
	</g>
	<g>
		<path fill="currentColor" d="M300.147,75.312c-0.622,0-1.126-0.504-1.126-1.127V66.23c0-0.623,0.504-1.127,1.126-1.127
			s1.126,0.504,1.126,1.127v7.955C301.273,74.808,300.77,75.312,300.147,75.312z"/>
	</g>
	<g>
		<path fill="currentColor" d="M300.147,67.357h-2.691c-0.622,0-1.126-0.504-1.126-1.127s0.504-1.127,1.126-1.127h2.691
			c0.622,0,1.126,0.504,1.126,1.127S300.77,67.357,300.147,67.357z"/>
	</g>
	<g>
		<path fill="currentColor" d="M300.599,116.283c-0.622,0-1.126-0.504-1.126-1.127V88.415c0-0.622,0.504-1.126,1.126-1.126
			s1.126,0.504,1.126,1.126v26.741C301.725,115.779,301.221,116.283,300.599,116.283z"/>
	</g>
	<g>
		<path fill="currentColor" d="M302.224,116.283h-4.768c-0.622,0-1.126-0.504-1.126-1.127s0.504-1.127,1.126-1.127h4.768
			c0.622,0,1.126,0.504,1.126,1.127S302.846,116.283,302.224,116.283z"/>
	</g>
	<g>
		<path fill="currentColor" d="M302.224,123.265c-0.622,0-1.126-0.504-1.126-1.126v-6.983c0-0.623,0.504-1.127,1.126-1.127
			s1.126,0.504,1.126,1.127v6.983C303.35,122.761,302.846,123.265,302.224,123.265z"/>
	</g>
	<g>
		<path fill="currentColor" d="M302.224,123.265h-4.768c-0.622,0-1.126-0.504-1.126-1.126s0.504-1.127,1.126-1.127h4.768
			c0.622,0,1.126,0.505,1.126,1.127S302.846,123.265,302.224,123.265z"/>
	</g>
	<g>
		<path fill="currentColor" d="M301.719,163.152c-0.613,0-1.115-0.492-1.125-1.107l-0.671-39.887c-0.011-0.621,0.484-1.135,1.106-1.145
			c0.006,0,0.013-0.001,0.019-0.001c0.613,0,1.115,0.493,1.125,1.108l0.671,39.887c0.011,0.621-0.484,1.135-1.106,1.145
			C301.731,163.152,301.725,163.152,301.719,163.152z"/>
	</g>
	<g>
		<path fill="currentColor" d="M304.406,163.152h-6.95c-0.622,0-1.126-0.504-1.126-1.127c0-0.621,0.504-1.125,1.126-1.125h6.95
			c0.622,0,1.126,0.504,1.126,1.125C305.532,162.648,305.028,163.152,304.406,163.152z"/>
	</g>
	<g>
		<path fill="currentColor" d="M304.406,177.197c-0.622,0-1.126-0.504-1.126-1.127v-14.045c0-0.621,0.504-1.125,1.126-1.125
			s1.126,0.504,1.126,1.125v14.045C305.532,176.693,305.028,177.197,304.406,177.197z"/>
	</g>
	<g>
		<path fill="currentColor" d="M304.406,177.197h-6.95c-0.622,0-1.126-0.504-1.126-1.127s0.504-1.127,1.126-1.127h6.95
			c0.622,0,1.126,0.504,1.126,1.127S305.028,177.197,304.406,177.197z"/>
	</g>
	<g>
		<path fill="currentColor" d="M303.174,207.148c-0.609,0-1.11-0.488-1.124-1.102l-0.673-29.951c-0.015-0.621,0.479-1.137,1.1-1.15
			c0.639-0.012,1.137,0.479,1.15,1.1l0.673,29.951c0.015,0.621-0.479,1.137-1.1,1.15
			C303.191,207.146,303.183,207.148,303.174,207.148z"/>
	</g>
	<g>
		<path fill="currentColor" d="M297.456,67.357c-0.622,0-1.126-0.504-1.126-1.127V25.222c0-0.622,0.504-1.126,1.126-1.126
			s1.126,0.504,1.126,1.126V66.23C298.582,66.853,298.078,67.357,297.456,67.357z"/>
	</g>
	<g>
		<path fill="currentColor" d="M303.007,140.072h-11.104c-0.622,0-1.126-0.504-1.126-1.127c0-0.621,0.504-1.125,1.126-1.125h11.104
			c0.622,0,1.126,0.504,1.126,1.125C304.133,139.568,303.629,140.072,303.007,140.072z"/>
	</g>
	<g>
		<path fill="currentColor" d="M303.454,144.74h-11.999c-0.622,0-1.126-0.504-1.126-1.127s0.504-1.127,1.126-1.127h11.999
			c0.622,0,1.126,0.504,1.126,1.127S304.076,144.74,303.454,144.74z"/>
	</g>
	<g>
		<path fill="currentColor" d="M302.224,96.936h-9.537c-0.622,0-1.126-0.505-1.126-1.127s0.504-1.126,1.126-1.126h9.537
			c0.622,0,1.126,0.504,1.126,1.126S302.846,96.936,302.224,96.936z"/>
	</g>
	<g>
		<path fill="currentColor" d="M302.224,103.884h-9.537c-0.622,0-1.126-0.505-1.126-1.127c0-0.621,0.504-1.127,1.126-1.127h9.537
			c0.622,0,1.126,0.506,1.126,1.127C303.35,103.379,302.846,103.884,302.224,103.884z"/>
	</g>
	<g>
		<path fill="currentColor" d="M302.224,110.306h-9.537c-0.622,0-1.126-0.504-1.126-1.127s0.504-1.127,1.126-1.127h9.537
			c0.622,0,1.126,0.504,1.126,1.127S302.846,110.306,302.224,110.306z"/>
	</g>
	<g>
		<path fill="currentColor" d="M298.801,56.826h-2.691c-0.622,0-1.126-0.504-1.126-1.127s0.504-1.127,1.126-1.127h2.691
			c0.622,0,1.126,0.504,1.126,1.127S299.423,56.826,298.801,56.826z"/>
	</g>
	<g>
		<path fill="currentColor" d="M298.801,46.442h-2.691c-0.622,0-1.126-0.505-1.126-1.127s0.504-1.126,1.126-1.126h2.691
			c0.622,0,1.126,0.504,1.126,1.126S299.423,46.442,298.801,46.442z"/>
	</g>
	<g>
		<path fill="currentColor" d="M298.801,38.898h-2.691c-0.622,0-1.126-0.504-1.126-1.126s0.504-1.127,1.126-1.127h2.691
			c0.622,0,1.126,0.505,1.126,1.127S299.423,38.898,298.801,38.898z"/>
	</g>
	<g>
		<path fill="currentColor" d="M306.515,168.643h-18.119c-0.622,0-1.126-0.504-1.126-1.125c0-0.623,0.504-1.127,1.126-1.127h18.119
			c0.622,0,1.126,0.504,1.126,1.127C307.641,168.139,307.137,168.643,306.515,168.643z"/>
	</g>
	<g>
		<path fill="currentColor" d="M306.515,172.229h-18.119c-0.622,0-1.126-0.504-1.126-1.127c0-0.621,0.504-1.127,1.126-1.127h18.119
			c0.622,0,1.126,0.506,1.126,1.127C307.641,171.725,307.137,172.229,306.515,172.229z"/>
	</g>
	<g>
		<path fill="currentColor" d="M304.406,197.102h-13.903c-0.622,0-1.126-0.504-1.126-1.127s0.504-1.127,1.126-1.127h13.903
			c0.622,0,1.126,0.504,1.126,1.127S305.028,197.102,304.406,197.102z"/>
	</g>
	<g>
		<path fill="currentColor" d="M305.731,215.926h-16.554c-0.622,0-1.126-0.504-1.126-1.127s0.504-1.127,1.126-1.127h16.554
			c0.622,0,1.126,0.504,1.126,1.127S306.354,215.926,305.731,215.926z"/>
	</g>
	<g>
		<path fill="currentColor" d="M290.502,246.494c-0.164,0-0.331-0.035-0.489-0.113c-0.56-0.27-0.794-0.943-0.522-1.504
			c1.615-3.34,2.753-6.889,3.38-10.549c0.105-0.613,0.681-1.02,1.3-0.92c0.612,0.105,1.024,0.686,0.919,1.301
			c-0.663,3.867-1.865,7.619-3.573,11.148C291.321,246.26,290.92,246.494,290.502,246.494z"/>
	</g>
	<g>
		<path fill="currentColor" d="M293.228,222.424c-0.622,0-1.126-0.506-1.126-1.127v-0.953c0-0.621,0.504-1.127,1.126-1.127
			s1.126,0.506,1.126,1.127v0.953C294.354,221.918,293.85,222.424,293.228,222.424z"/>
	</g>
	<g>
		<path fill="currentColor" d="M295.691,225.262c-0.622,0-1.126-0.504-1.126-1.127v-0.523c0-0.621,0.504-1.125,1.126-1.125
			s1.126,0.504,1.126,1.125v0.523C296.817,224.758,296.313,225.262,295.691,225.262z"/>
	</g>
	<g>
		<path fill="currentColor" d="M292.071,226.822c-0.622,0-1.126-0.506-1.126-1.127v-0.365c0-0.623,0.504-1.127,1.126-1.127
			s1.126,0.504,1.126,1.127v0.365C293.197,226.316,292.693,226.822,292.071,226.822z"/>
	</g>
	<g>
		<path fill="currentColor" d="M295.169,230.342c-0.622,0-1.126-0.504-1.126-1.127v-0.598c0-0.623,0.504-1.127,1.126-1.127
			s1.126,0.504,1.126,1.127v0.598C296.295,229.838,295.791,230.342,295.169,230.342z"/>
	</g>
	<g>
		<path fill="currentColor" d="M290.503,231.387c-0.622,0-1.126-0.504-1.126-1.127v-0.674c0-0.621,0.504-1.125,1.126-1.125
			s1.126,0.504,1.126,1.125v0.674C291.629,230.883,291.125,231.387,290.503,231.387z"/>
	</g>
	<g>
		<path fill="currentColor" d="M301.681,222.424c-0.622,0-1.126-0.506-1.126-1.127v-0.953c0-0.621,0.504-1.127,1.126-1.127
			s1.126,0.506,1.126,1.127v0.953C302.807,221.918,302.303,222.424,301.681,222.424z"/>
	</g>
	<g>
		<path fill="currentColor" d="M299.218,225.262c-0.622,0-1.126-0.504-1.126-1.127v-0.523c0-0.621,0.504-1.125,1.126-1.125
			s1.126,0.504,1.126,1.125v0.523C300.344,224.758,299.84,225.262,299.218,225.262z"/>
	</g>
	<g>
		<path fill="currentColor" d="M299.741,230.342c-0.622,0-1.126-0.504-1.126-1.127v-0.598c0-0.623,0.504-1.127,1.126-1.127
			s1.126,0.504,1.126,1.127v0.598C300.867,229.838,300.363,230.342,299.741,230.342z"/>
	</g>
	<g>
		<polygon fill="currentColor" points="282.399,229.186 282.399,226.934 276.993,226.934 276.993,221.094 269.074,221.094 
			269.074,214.838 248.484,214.838 248.484,245.367 250.736,245.367 250.736,217.092 266.823,217.092 266.823,223.348 
			274.741,223.348 274.741,229.186 		"/>
	</g>
	<g>
		<path fill="currentColor" d="M679.475,200.553c-0.623,0-1.127-0.504-1.127-1.127c0-6.738,3.652-12.971,9.527-16.262
			c0.541-0.303,1.229-0.109,1.533,0.434c0.303,0.543,0.109,1.229-0.434,1.533c-5.166,2.893-8.375,8.369-8.375,14.295
			C680.6,200.049,680.096,200.553,679.475,200.553z"/>
	</g>
	<g>
		<path fill="currentColor" d="M688.426,185.275c-0.391,0-0.773-0.207-0.98-0.572c-0.307-0.541-0.115-1.229,0.426-1.535
			c1.813-1.029,3.418-2.465,4.643-4.158c0.365-0.502,1.068-0.615,1.572-0.252c0.504,0.365,0.615,1.07,0.25,1.572
			c-1.412,1.953-3.264,3.611-5.355,4.797C688.805,185.227,688.615,185.275,688.426,185.275z"/>
	</g>
	<g>
		<path fill="currentColor" d="M662.891,200.553c-0.623,0-1.127-0.504-1.127-1.127c0-3.83,2.275-7.363,5.938-9.221
			c0.557-0.285,1.232-0.059,1.514,0.494c0.281,0.557,0.059,1.232-0.496,1.514c-2.9,1.473-4.703,4.236-4.703,7.213
			C664.016,200.049,663.512,200.553,662.891,200.553z"/>
	</g>
	<g>
		<path fill="currentColor" d="M668.211,192.336c-0.408,0-0.803-0.225-1.002-0.613c-0.283-0.553-0.064-1.232,0.488-1.516
			c1.02-0.523,1.922-1.252,2.607-2.109c0.389-0.486,1.096-0.564,1.582-0.176c0.484,0.389,0.563,1.098,0.176,1.582
			c-0.896,1.121-2.02,2.031-3.338,2.707C668.559,192.295,668.385,192.336,668.211,192.336z"/>
	</g>
	<g>
		<path fill="currentColor" d="M679.475,200.553c-0.623,0-1.127-0.504-1.127-1.127c0-2.979-1.801-5.74-4.701-7.213
			c-0.555-0.281-0.775-0.957-0.494-1.514c0.281-0.553,0.957-0.779,1.512-0.494c3.662,1.857,5.936,5.391,5.936,9.221
			C680.6,200.049,680.096,200.553,679.475,200.553z"/>
	</g>
	<g>
		<path fill="currentColor" d="M674.154,192.336c-0.172,0-0.348-0.041-0.512-0.125c-1.32-0.676-2.443-1.588-3.338-2.707
			c-0.389-0.484-0.311-1.193,0.176-1.582s1.193-0.309,1.582,0.176c0.684,0.857,1.586,1.586,2.605,2.109
			c0.555,0.283,0.773,0.963,0.49,1.516C674.959,192.111,674.564,192.336,674.154,192.336z"/>
	</g>
	<g>
		<g>
			<path fill="currentColor" d="M645.869,200.553c-0.623,0-1.127-0.504-1.127-1.127c0-3.836,2.334-7.371,6.088-9.227
				c0.559-0.273,1.232-0.045,1.508,0.512s0.047,1.232-0.512,1.508c-2.98,1.473-4.832,4.234-4.832,7.207
				C646.994,200.049,646.49,200.553,645.869,200.553z"/>
		</g>
		<g>
			<path fill="currentColor" d="M651.33,192.336c-0.414,0-0.813-0.229-1.008-0.625c-0.277-0.555-0.053-1.232,0.504-1.51
				c1.051-0.523,1.979-1.256,2.686-2.115c0.391-0.48,1.1-0.553,1.584-0.154c0.479,0.395,0.549,1.104,0.154,1.584
				c-0.918,1.119-2.068,2.027-3.42,2.701C651.67,192.297,651.498,192.336,651.33,192.336z"/>
		</g>
		<g>
			<path fill="currentColor" d="M662.891,200.553c-0.623,0-1.127-0.504-1.127-1.127c0-2.973-1.85-5.734-4.83-7.207
				c-0.559-0.273-0.787-0.951-0.512-1.508s0.949-0.785,1.508-0.512c3.754,1.855,6.086,5.391,6.086,9.227
				C664.016,200.049,663.512,200.553,662.891,200.553z"/>
		</g>
		<g>
			<path fill="currentColor" d="M657.43,192.336c-0.168,0-0.34-0.039-0.502-0.119c-1.332-0.666-2.514-1.6-3.418-2.701
				c-0.395-0.48-0.324-1.189,0.156-1.586c0.48-0.395,1.189-0.322,1.584,0.156c0.703,0.859,1.633,1.59,2.684,2.115
				c0.557,0.277,0.781,0.955,0.504,1.512C658.24,192.107,657.844,192.336,657.43,192.336z"/>
		</g>
	</g>
	<g>
		<path fill="currentColor" d="M645.869,200.553h-14.564c-0.623,0-1.127-0.504-1.127-1.127s0.504-1.127,1.127-1.127h14.564
			c0.621,0,1.125,0.504,1.125,1.127S646.49,200.553,645.869,200.553z"/>
	</g>
	<g>
		<path fill="currentColor" d="M636.307,200.553c-0.623,0-1.127-0.504-1.127-1.127v-5.268c0-0.623,0.504-1.127,1.127-1.127
			c0.621,0,1.125,0.504,1.125,1.127v5.268C637.432,200.049,636.928,200.553,636.307,200.553z"/>
	</g>
	<g>
		<path fill="currentColor" d="M693.426,201.166h-30.535c-0.623,0-1.127-0.504-1.127-1.125c0-0.623,0.504-1.127,1.127-1.127h30.535
			c0.621,0,1.125,0.504,1.125,1.127C694.551,200.662,694.047,201.166,693.426,201.166z"/>
	</g>
	<g>
		<path fill="currentColor" d="M693.426,205.469h-30.535c-0.623,0-1.127-0.504-1.127-1.127s0.504-1.127,1.127-1.127h30.535
			c0.621,0,1.125,0.504,1.125,1.127S694.047,205.469,693.426,205.469z"/>
	</g>
	<g>
		<path fill="currentColor" d="M658.637,204.592h-8.512c-0.621,0-1.125-0.506-1.125-1.127c0-0.623,0.504-1.127,1.125-1.127h8.512
			c0.621,0,1.125,0.504,1.125,1.127C659.762,204.086,659.258,204.592,658.637,204.592z"/>
	</g>
	<g>
		<path fill="currentColor" d="M654.381,199.059c-0.623,0-1.127-0.504-1.127-1.127v-1.141c0-0.623,0.504-1.127,1.127-1.127
			c0.621,0,1.125,0.504,1.125,1.127v1.141C655.506,198.555,655.002,199.059,654.381,199.059z"/>
	</g>
	<g>
		<path fill="currentColor" d="M671.184,196.443c-0.623,0-1.127-0.504-1.127-1.127v-0.545c0-0.621,0.504-1.127,1.127-1.127
			c0.621,0,1.125,0.506,1.125,1.127v0.545C672.309,195.939,671.805,196.443,671.184,196.443z"/>
	</g>
	<g>
		<path fill="currentColor" d="M647.449,195.283c-0.623,0-1.127-0.504-1.127-1.125v-27.219c0-0.623,0.504-1.127,1.127-1.127
			c0.621,0,1.125,0.504,1.125,1.127v27.219C648.574,194.779,648.07,195.283,647.449,195.283z"/>
	</g>
	<g>
		<path fill="currentColor" d="M662.891,168.066h-15.441c-0.623,0-1.127-0.504-1.127-1.127s0.504-1.127,1.127-1.127h15.441
			c0.621,0,1.125,0.504,1.125,1.127S663.512,168.066,662.891,168.066z"/>
	</g>
	<g>
		<path fill="currentColor" d="M662.891,180.797c-0.623,0-1.127-0.504-1.127-1.127v-12.73c0-0.623,0.504-1.127,1.127-1.127
			c0.621,0,1.125,0.504,1.125,1.127v12.73C664.016,180.293,663.512,180.797,662.891,180.797z"/>
	</g>
	<g>
		<path fill="currentColor" d="M687.459,180.797h-24.568c-0.623,0-1.127-0.504-1.127-1.127s0.504-1.127,1.127-1.127h24.568
			c0.621,0,1.125,0.504,1.125,1.127S688.08,180.797,687.459,180.797z"/>
	</g>
	<g>
		<path fill="currentColor" d="M680.527,185.275h-17.637c-0.623,0-1.127-0.506-1.127-1.127c0-0.623,0.504-1.127,1.127-1.127h17.637
			c0.621,0,1.125,0.504,1.125,1.127C681.652,184.77,681.148,185.275,680.527,185.275z"/>
	</g>
	<g>
		<path fill="currentColor" d="M655.17,183.695c-0.623,0-1.127-0.506-1.127-1.127v-6.453c0-0.623,0.504-1.127,1.127-1.127
			c0.621,0,1.125,0.504,1.125,1.127v6.453C656.295,183.189,655.791,183.695,655.17,183.695z"/>
	</g>
	<g>
		<g>
			<path fill="currentColor" d="M648.912,160.205c-0.293,0-0.584-0.113-0.805-0.34c-0.436-0.445-0.426-1.158,0.02-1.594l6.256-6.104
				c0.447-0.436,1.158-0.424,1.592,0.02c0.436,0.447,0.426,1.16-0.02,1.594l-6.256,6.104
				C649.479,160.1,649.195,160.205,648.912,160.205z"/>
		</g>
		<g>
			<path fill="currentColor" d="M650.363,168.066c-0.152,0-0.307-0.031-0.457-0.098c-1.799-0.803-3.086-2.436-3.441-4.371
				c-0.359-1.938,0.258-3.926,1.652-5.316c0.441-0.439,1.154-0.438,1.592,0.002c0.439,0.441,0.438,1.154-0.002,1.592
				c-0.869,0.867-1.254,2.105-1.029,3.313c0.223,1.207,1.023,2.223,2.145,2.723c0.568,0.254,0.824,0.918,0.57,1.488
				C651.207,167.816,650.795,168.066,650.363,168.066z"/>
		</g>
		<g>
			<path fill="currentColor" d="M661.428,160.205c-0.283,0-0.566-0.105-0.785-0.32l-6.258-6.104c-0.445-0.434-0.455-1.146-0.021-1.592
				c0.434-0.447,1.145-0.457,1.592-0.021l6.258,6.104c0.445,0.436,0.455,1.148,0.02,1.592
				C662.012,160.092,661.721,160.205,661.428,160.205z"/>
		</g>
		<g>
			<path fill="currentColor" d="M659.975,168.066c-0.432,0-0.842-0.25-1.029-0.668c-0.252-0.57,0.004-1.234,0.57-1.488
				c1.123-0.5,1.926-1.518,2.148-2.721c0.221-1.209-0.164-2.447-1.031-3.314c-0.441-0.438-0.441-1.15-0.002-1.592
				c0.438-0.441,1.15-0.439,1.592-0.002c1.393,1.391,2.012,3.377,1.654,5.316c-0.357,1.936-1.645,3.568-3.445,4.371
				C660.283,168.035,660.127,168.066,659.975,168.066z"/>
		</g>
		<g>
			<path fill="currentColor" d="M655.17,154.102c-0.623,0-1.127-0.504-1.127-1.127v-8.863c0-0.623,0.504-1.127,1.127-1.127
				c0.621,0,1.125,0.504,1.125,1.127v8.863C656.295,153.598,655.791,154.102,655.17,154.102z"/>
		</g>
	</g>
	<g>
		<path fill="currentColor" d="M656.902,172.633h-3.465c-0.621,0-1.125-0.504-1.125-1.127s0.504-1.127,1.125-1.127h3.465
			c0.621,0,1.125,0.504,1.125,1.127S657.523,172.633,656.902,172.633z"/>
	</g>
	<g>
		<path fill="currentColor" d="M671.184,180.797c-0.623,0-1.127-0.504-1.127-1.127v-19.359c0-0.623,0.504-1.127,1.127-1.127
			c0.621,0,1.125,0.504,1.125,1.127v19.359C672.309,180.293,671.805,180.797,671.184,180.797z"/>
	</g>
	<g>
		<path fill="currentColor" d="M671.184,161.438c-0.451,0-0.875-0.273-1.049-0.719l-1.975-5.07c-0.227-0.58,0.061-1.232,0.641-1.459
			c0.578-0.225,1.23,0.063,1.457,0.641l1.975,5.07c0.225,0.58-0.061,1.232-0.641,1.459
			C671.457,161.412,671.318,161.438,671.184,161.438z"/>
	</g>
	<g>
		<path fill="currentColor" d="M688.371,161.438h-17.188c-0.623,0-1.127-0.506-1.127-1.127c0-0.623,0.504-1.127,1.127-1.127h17.188
			c0.623,0,1.127,0.504,1.127,1.127C689.498,160.932,688.994,161.438,688.371,161.438z"/>
	</g>
	<g>
		<path fill="currentColor" d="M688.371,156.365h-19.162c-0.623,0-1.127-0.504-1.127-1.127c0-0.621,0.504-1.125,1.127-1.125h19.162
			c0.623,0,1.127,0.504,1.127,1.125C689.498,155.861,688.994,156.365,688.371,156.365z"/>
	</g>
	<g>
		<path fill="currentColor" d="M693.426,152.174h-24.217c-0.623,0-1.127-0.504-1.127-1.125c0-0.623,0.504-1.127,1.127-1.127h24.217
			c0.621,0,1.125,0.504,1.125,1.127C694.551,151.67,694.047,152.174,693.426,152.174z"/>
	</g>
	<g>
		<path fill="currentColor" d="M678.51,138.127c-0.346,0-0.688-0.16-0.908-0.461c-0.367-0.502-0.26-1.207,0.242-1.574
			c5.893-4.324,10.811-9.68,14.621-15.922c0.326-0.53,1.018-0.695,1.547-0.375c0.531,0.324,0.697,1.019,0.375,1.549
			c-3.965,6.495-9.082,12.067-15.211,16.565C678.975,138.055,678.74,138.127,678.51,138.127z"/>
	</g>
	<g>
		<path fill="currentColor" d="M672.189,152.174c-0.539,0-1.016-0.389-1.107-0.938c-1.018-6.008,1.666-11.971,6.832-15.193
			c0.527-0.328,1.223-0.166,1.551,0.361s0.168,1.223-0.361,1.551c-4.389,2.736-6.666,7.803-5.803,12.904
			c0.104,0.613-0.309,1.195-0.922,1.299C672.314,152.168,672.252,152.174,672.189,152.174z"/>
	</g>
	<g>
		<path fill="currentColor" d="M693.426,121.882c-0.623,0-1.127-0.504-1.127-1.126v-14.048c0-0.623,0.504-1.127,1.127-1.127
			c0.621,0,1.125,0.504,1.125,1.127v14.048C694.551,121.378,694.047,121.882,693.426,121.882z"/>
	</g>
	<g>
		<path fill="currentColor" d="M677.721,176.186c-0.623,0-1.127-0.504-1.127-1.125v-9.527c0-0.621,0.504-1.125,1.127-1.125
			c0.621,0,1.125,0.504,1.125,1.125v9.527C678.846,175.682,678.342,176.186,677.721,176.186z"/>
	</g>
	<g>
		<path fill="currentColor" d="M684.738,176.186c-0.623,0-1.127-0.504-1.127-1.125v-9.527c0-0.621,0.504-1.125,1.127-1.125
			c0.621,0,1.125,0.504,1.125,1.125v9.527C685.863,175.682,685.359,176.186,684.738,176.186z"/>
	</g>
	<g>
		<path fill="currentColor" d="M693.426,176.186c-0.623,0-1.127-0.504-1.127-1.125v-9.527c0-0.621,0.504-1.125,1.127-1.125
			c0.621,0,1.125,0.504,1.125,1.125v9.527C694.551,175.682,694.047,176.186,693.426,176.186z"/>
	</g>
	<g>
		<path fill="currentColor" d="M696.482,161.438h-3.057c-0.623,0-1.127-0.506-1.127-1.127c0-0.623,0.504-1.127,1.127-1.127h3.057
			c0.623,0,1.127,0.504,1.127,1.127C697.609,160.932,697.105,161.438,696.482,161.438z"/>
	</g>
	<g>
		<path fill="currentColor" d="M706.822,156.365h-13.396c-0.623,0-1.127-0.504-1.127-1.127c0-0.621,0.504-1.125,1.127-1.125h13.396
			c0.623,0,1.127,0.504,1.127,1.125C707.949,155.861,707.445,156.365,706.822,156.365z"/>
	</g>
	<g>
		<path fill="currentColor" d="M717.643,152.174h-24.217c-0.623,0-1.127-0.504-1.127-1.125c0-0.623,0.504-1.127,1.127-1.127h24.217
			c0.621,0,1.125,0.504,1.125,1.127C718.768,151.67,718.264,152.174,717.643,152.174z"/>
	</g>
	<g>
		<path fill="currentColor" d="M708.34,138.127c-0.23,0-0.463-0.072-0.664-0.219c-6.129-4.496-11.246-10.07-15.211-16.565
			c-0.324-0.53-0.156-1.225,0.373-1.548c0.531-0.324,1.225-0.156,1.547,0.374c3.813,6.243,8.732,11.6,14.623,15.922
			c0.5,0.367,0.609,1.072,0.24,1.574C709.029,137.967,708.688,138.127,708.34,138.127z"/>
	</g>
	<g>
		<path fill="currentColor" d="M714.66,152.174c-0.063,0-0.125-0.006-0.188-0.016c-0.613-0.104-1.027-0.686-0.922-1.299
			c0.861-5.102-1.416-10.166-5.805-12.904c-0.527-0.328-0.689-1.023-0.359-1.551c0.328-0.527,1.021-0.689,1.551-0.361
			c5.166,3.223,7.848,9.186,6.832,15.193C715.676,151.785,715.199,152.174,714.66,152.174z"/>
	</g>
	<g>
		<path fill="currentColor" d="M693.426,152.174c-0.623,0-1.127-0.504-1.127-1.125v-4.566c0-0.623,0.504-1.127,1.127-1.127
			c0.621,0,1.125,0.504,1.125,1.127v4.566C694.551,151.67,694.047,152.174,693.426,152.174z"/>
	</g>
	<g>
		<path fill="currentColor" d="M700.051,152.174c-0.623,0-1.127-0.504-1.127-1.125v-3.514c0-0.621,0.504-1.127,1.127-1.127
			c0.621,0,1.125,0.506,1.125,1.127v3.514C701.176,151.67,700.672,152.174,700.051,152.174z"/>
	</g>
	<g>
		<path fill="currentColor" d="M706.676,152.174c-0.623,0-1.127-0.504-1.127-1.125v-3.514c0-0.621,0.504-1.127,1.127-1.127
			c0.621,0,1.125,0.506,1.125,1.127v3.514C707.801,151.67,707.297,152.174,706.676,152.174z"/>
	</g>
	<g>
		<path fill="currentColor" d="M686.801,152.174c-0.623,0-1.127-0.504-1.127-1.125v-3.514c0-0.621,0.504-1.127,1.127-1.127
			c0.621,0,1.125,0.506,1.125,1.127v3.514C687.926,151.67,687.422,152.174,686.801,152.174z"/>
	</g>
	<g>
		<path fill="currentColor" d="M680.176,152.174c-0.621,0-1.125-0.504-1.125-1.125v-3.514c0-0.621,0.504-1.127,1.125-1.127
			c0.623,0,1.127,0.506,1.127,1.127v3.514C681.303,151.67,680.799,152.174,680.176,152.174z"/>
	</g>
	<g>
		<path fill="currentColor" d="M693.227,193.896c-1.08-0.102-1.932-1.002-1.932-2.109s0.852-2.01,1.932-2.111v-2.254
			c-2.322,0.107-4.184,2.016-4.184,4.365s1.861,4.258,4.184,4.363V193.896z"/>
	</g>
	<g>
		<g>
			<path fill="currentColor" d="M498.287,207.463c-0.623,0-1.127-0.504-1.127-1.127V56.404c0-0.622,0.504-1.126,1.127-1.126
				c0.621,0,1.125,0.504,1.125,1.126v149.932C499.412,206.959,498.908,207.463,498.287,207.463z"/>
		</g>
		<g>
			<path fill="currentColor" d="M546.941,57.531h-48.654c-0.623,0-1.127-0.504-1.127-1.127c0-0.622,0.504-1.126,1.127-1.126h48.654
				c0.621,0,1.125,0.504,1.125,1.126C548.066,57.027,547.563,57.531,546.941,57.531z"/>
		</g>
		<g>
			<path fill="currentColor" d="M546.941,207.463c-0.623,0-1.127-0.504-1.127-1.127V56.404c0-0.622,0.504-1.126,1.127-1.126
				c0.621,0,1.125,0.504,1.125,1.126v149.932C548.066,206.959,547.563,207.463,546.941,207.463z"/>
		</g>
		<g>
			<path fill="currentColor" d="M522.613,207.463h-31.749c-0.622,0-1.126-0.504-1.126-1.127s0.504-1.127,1.126-1.127h31.749
				c0.621,0,1.125,0.504,1.125,1.127S523.234,207.463,522.613,207.463z"/>
		</g>
		<g>
			<path fill="currentColor" d="M490.864,235.314c-0.622,0-1.126-0.504-1.126-1.125v-27.854c0-0.623,0.504-1.127,1.126-1.127
				s1.126,0.504,1.126,1.127v27.854C491.99,234.811,491.486,235.314,490.864,235.314z"/>
		</g>
		<g>
			<path fill="currentColor" d="M554.363,207.463h-31.75c-0.623,0-1.127-0.504-1.127-1.127s0.504-1.127,1.127-1.127h31.75
				c0.621,0,1.125,0.504,1.125,1.127S554.984,207.463,554.363,207.463z"/>
		</g>
		<g>
			<path fill="currentColor" d="M554.363,217.293c-0.623,0-1.127-0.504-1.127-1.127v-9.83c0-0.623,0.504-1.127,1.127-1.127
				c0.621,0,1.125,0.504,1.125,1.127v9.83C555.488,216.789,554.984,217.293,554.363,217.293z"/>
		</g>
		<g>
			<path fill="currentColor" d="M510.518,207.463c-0.555,0-1.037-0.41-1.113-0.977c-6.176-45.764-3.785-91.723,7.107-136.598
				c0.146-0.605,0.756-0.97,1.359-0.829c0.605,0.146,0.975,0.755,0.828,1.36c-10.826,44.602-13.203,90.28-7.064,135.766
				c0.082,0.617-0.35,1.184-0.965,1.268C510.619,207.459,510.568,207.463,510.518,207.463z"/>
		</g>
		<g>
			<path fill="currentColor" d="M534.709,207.463c-0.049,0-0.1-0.004-0.15-0.01c-0.617-0.084-1.049-0.65-0.965-1.268
				c6.137-45.484,3.76-91.163-7.066-135.766c-0.146-0.605,0.223-1.214,0.828-1.36c0.6-0.146,1.211,0.225,1.359,0.829
				c10.893,44.877,13.285,90.834,7.109,136.598C535.748,207.053,535.264,207.463,534.709,207.463z"/>
		</g>
		<g>
			<path fill="currentColor" d="M517.605,71.281c-0.115,0-0.234-0.02-0.352-0.057c-0.59-0.195-0.912-0.831-0.717-1.422
				c0.865-2.633,3.307-4.402,6.076-4.402c2.771,0,5.213,1.77,6.076,4.402c0.193,0.592-0.127,1.229-0.719,1.422
				c-0.59,0.191-1.227-0.127-1.42-0.72c-0.559-1.706-2.141-2.852-3.938-2.852c-1.795,0-3.377,1.146-3.938,2.853
				C518.52,70.98,518.078,71.281,517.605,71.281z"/>
		</g>
		<g>
			<path fill="currentColor" d="M501.172,57.531c-0.621,0-1.125-0.504-1.125-1.127V40.312c0-0.623,0.504-1.127,1.125-1.127
				c0.623,0,1.127,0.504,1.127,1.127v16.092C502.299,57.027,501.795,57.531,501.172,57.531z"/>
		</g>
		<g>
			<path fill="currentColor" d="M522.613,41.439h-21.441c-0.621,0-1.125-0.505-1.125-1.127c0-0.623,0.504-1.127,1.125-1.127h21.441
				c0.621,0,1.125,0.504,1.125,1.127C523.738,40.934,523.234,41.439,522.613,41.439z"/>
		</g>
		<g>
			<path fill="currentColor" d="M544.055,57.531c-0.623,0-1.127-0.504-1.127-1.127V40.312c0-0.623,0.504-1.127,1.127-1.127
				c0.621,0,1.125,0.504,1.125,1.127v16.092C545.18,57.027,544.676,57.531,544.055,57.531z"/>
		</g>
		<g>
			<path fill="currentColor" d="M544.055,41.439h-21.441c-0.623,0-1.127-0.505-1.127-1.127c0-0.623,0.504-1.127,1.127-1.127h21.441
				c0.621,0,1.125,0.504,1.125,1.127C545.18,40.934,544.676,41.439,544.055,41.439z"/>
		</g>
		<g>
			<path fill="currentColor" d="M522.613,201.734h-12.822c-0.623,0-1.127-0.506-1.127-1.127c0-0.623,0.504-1.127,1.127-1.127h12.822
				c0.621,0,1.125,0.504,1.125,1.127C523.738,201.229,523.234,201.734,522.613,201.734z"/>
		</g>
		<g>
			<path fill="currentColor" d="M522.613,196.576h-13.4c-0.623,0-1.127-0.504-1.127-1.127s0.504-1.127,1.127-1.127h13.4
				c0.621,0,1.125,0.504,1.125,1.127S523.234,196.576,522.613,196.576z"/>
		</g>
		<g>
			<path fill="currentColor" d="M522.613,191.418h-13.902c-0.623,0-1.127-0.504-1.127-1.127c0-0.621,0.504-1.127,1.127-1.127h13.902
				c0.621,0,1.125,0.506,1.125,1.127C523.738,190.914,523.234,191.418,522.613,191.418z"/>
		</g>
		<g>
			<path fill="currentColor" d="M522.613,186.26h-14.332c-0.621,0-1.125-0.504-1.125-1.127c0-0.621,0.504-1.125,1.125-1.125h14.332
				c0.621,0,1.125,0.504,1.125,1.125C523.738,185.756,523.234,186.26,522.613,186.26z"/>
		</g>
		<g>
			<path fill="currentColor" d="M522.613,181.104h-14.688c-0.621,0-1.125-0.504-1.125-1.127c0-0.621,0.504-1.127,1.125-1.127h14.688
				c0.621,0,1.125,0.506,1.125,1.127C523.738,180.6,523.234,181.104,522.613,181.104z"/>
		</g>
		<g>
			<path fill="currentColor" d="M522.613,175.945h-14.977c-0.623,0-1.127-0.504-1.127-1.125c0-0.623,0.504-1.127,1.127-1.127h14.977
				c0.621,0,1.125,0.504,1.125,1.127C523.738,175.441,523.234,175.945,522.613,175.945z"/>
		</g>
		<g>
			<path fill="currentColor" d="M522.613,170.789h-15.191c-0.621,0-1.125-0.506-1.125-1.127c0-0.623,0.504-1.127,1.125-1.127h15.191
				c0.621,0,1.125,0.504,1.125,1.127C523.738,170.283,523.234,170.789,522.613,170.789z"/>
		</g>
		<g>
			<path fill="currentColor" d="M522.613,165.631h-15.33c-0.621,0-1.125-0.504-1.125-1.127s0.504-1.127,1.125-1.127h15.33
				c0.621,0,1.125,0.504,1.125,1.127S523.234,165.631,522.613,165.631z"/>
		</g>
		<g>
			<path fill="currentColor" d="M522.613,160.473h-15.396c-0.621,0-1.125-0.504-1.125-1.127c0-0.621,0.504-1.127,1.125-1.127h15.396
				c0.621,0,1.125,0.506,1.125,1.127C523.738,159.969,523.234,160.473,522.613,160.473z"/>
		</g>
		<g>
			<path fill="currentColor" d="M522.613,155.314h-15.396c-0.621,0-1.125-0.504-1.125-1.125c0-0.623,0.504-1.127,1.125-1.127h15.396
				c0.621,0,1.125,0.504,1.125,1.127C523.738,154.811,523.234,155.314,522.613,155.314z"/>
		</g>
		<g>
			<path fill="currentColor" d="M522.613,150.16h-15.314c-0.621,0-1.125-0.504-1.125-1.127s0.504-1.127,1.125-1.127h15.314
				c0.621,0,1.125,0.504,1.125,1.127S523.234,150.16,522.613,150.16z"/>
		</g>
		<g>
			<path fill="currentColor" d="M522.613,145.002h-15.166c-0.621,0-1.125-0.504-1.125-1.127s0.504-1.127,1.125-1.127h15.166
				c0.621,0,1.125,0.504,1.125,1.127S523.234,145.002,522.613,145.002z"/>
		</g>
		<g>
			<path fill="currentColor" d="M522.613,139.844h-14.951c-0.623,0-1.127-0.504-1.127-1.127c0-0.621,0.504-1.127,1.127-1.127h14.951
				c0.621,0,1.125,0.506,1.125,1.127C523.738,139.34,523.234,139.844,522.613,139.844z"/>
		</g>
		<g>
			<path fill="currentColor" d="M522.613,134.688h-14.654c-0.621,0-1.125-0.506-1.125-1.127c0-0.623,0.504-1.127,1.125-1.127h14.654
				c0.621,0,1.125,0.504,1.125,1.127C523.738,134.182,523.234,134.688,522.613,134.688z"/>
		</g>
		<g>
			<path fill="currentColor" d="M522.613,129.529h-14.291c-0.621,0-1.125-0.504-1.125-1.127c0-0.621,0.504-1.125,1.125-1.125h14.291
				c0.621,0,1.125,0.504,1.125,1.125C523.738,129.025,523.234,129.529,522.613,129.529z"/>
		</g>
		<g>
			<path fill="currentColor" d="M522.613,124.373h-13.846c-0.623,0-1.127-0.505-1.127-1.127c0-0.623,0.504-1.127,1.127-1.127h13.846
				c0.621,0,1.125,0.504,1.125,1.127C523.738,123.868,523.234,124.373,522.613,124.373z"/>
		</g>
		<g>
			<path fill="currentColor" d="M522.613,119.214h-13.334c-0.623,0-1.127-0.504-1.127-1.127s0.504-1.127,1.127-1.127h13.334
				c0.621,0,1.125,0.504,1.125,1.127S523.234,119.214,522.613,119.214z"/>
		</g>
		<g>
			<path fill="currentColor" d="M522.613,114.056h-12.748c-0.623,0-1.127-0.504-1.127-1.127c0-0.622,0.504-1.126,1.127-1.126h12.748
				c0.621,0,1.125,0.504,1.125,1.126C523.738,113.552,523.234,114.056,522.613,114.056z"/>
		</g>
		<g>
			<path fill="currentColor" d="M522.613,108.9h-12.098c-0.621,0-1.125-0.506-1.125-1.128s0.504-1.126,1.125-1.126h12.098
				c0.621,0,1.125,0.504,1.125,1.126S523.234,108.9,522.613,108.9z"/>
		</g>
		<g>
			<path fill="currentColor" d="M522.613,103.742h-11.355c-0.623,0-1.127-0.505-1.127-1.127c0-0.623,0.504-1.127,1.127-1.127h11.355
				c0.621,0,1.125,0.504,1.125,1.127C523.738,103.237,523.234,103.742,522.613,103.742z"/>
		</g>
		<g>
			<path fill="currentColor" d="M522.613,98.584h-10.557c-0.621,0-1.125-0.505-1.125-1.127s0.504-1.126,1.125-1.126h10.557
				c0.621,0,1.125,0.504,1.125,1.126S523.234,98.584,522.613,98.584z"/>
		</g>
		<g>
			<path fill="currentColor" d="M522.613,93.425h-9.664c-0.623,0-1.127-0.504-1.127-1.127c0-0.621,0.504-1.126,1.127-1.126h9.664
				c0.621,0,1.125,0.505,1.125,1.126C523.738,92.921,523.234,93.425,522.613,93.425z"/>
		</g>
		<g>
			<path fill="currentColor" d="M522.613,88.27h-8.707c-0.623,0-1.127-0.505-1.127-1.127s0.504-1.126,1.127-1.126h8.707
				c0.621,0,1.125,0.504,1.125,1.126S523.234,88.27,522.613,88.27z"/>
		</g>
		<g>
			<path fill="currentColor" d="M522.613,83.113h-7.668c-0.623,0-1.127-0.505-1.127-1.127c0-0.623,0.504-1.127,1.127-1.127h7.668
				c0.621,0,1.125,0.504,1.125,1.127C523.738,82.608,523.234,83.113,522.613,83.113z"/>
		</g>
		<g>
			<path fill="currentColor" d="M522.613,77.955h-6.555c-0.623,0-1.127-0.504-1.127-1.127c0-0.622,0.504-1.127,1.127-1.127h6.555
				c0.621,0,1.125,0.505,1.125,1.127C523.738,77.451,523.234,77.955,522.613,77.955z"/>
		</g>
		<g>
			<path fill="currentColor" d="M539.656,52.488h-38.484c-0.621,0-1.125-0.504-1.125-1.127s0.504-1.127,1.125-1.127h38.484
				c0.621,0,1.125,0.504,1.125,1.127S540.277,52.488,539.656,52.488z"/>
		</g>
		<g>
			<path fill="currentColor" d="M539.656,46.803h-38.484c-0.621,0-1.125-0.505-1.125-1.126c0-0.623,0.504-1.127,1.125-1.127h38.484
				c0.621,0,1.125,0.504,1.125,1.127C540.781,46.298,540.277,46.803,539.656,46.803z"/>
		</g>
	</g>
	<g>
		<path fill="currentColor" d="M529.721,1.494h-53.602c-0.623,0-1.127,0.505-1.127,1.127l0.001,201.932h2.252v-4.477h2.558v4.477h2.252
			v-4.477h3.247v4.477h2.252v-4.477h3.358v-2.254h-3.358v-6.283h3.358v-2.254h-3.358v-6.283h3.358v-2.252h-3.358v-6.283h3.358
			v-2.254h-3.358v-6.281h3.358v-2.254h-3.358v-6.281h3.358v-2.254h-3.358v-6.283h3.358v-2.254h-3.358v-6.281h3.358v-2.254h-3.358
			v-6.283h3.358v-2.254h-3.358v-6.284h3.358v-2.253h-3.358v-6.281h3.358v-2.253h-3.358v-6.284h3.358v-2.253h-3.358v-6.281h3.358
			V95.39h-3.358v-6.283h3.358v-2.253h-3.358v-6.283h3.358v-2.253h-3.358v-6.283h3.358v-2.254h-3.358V63.5h3.358v-2.254h-3.358
			v-6.281h3.358V52.71h-3.358v-6.283h3.358v-2.254h-3.358l0.001-6.283h3.357v-2.254h-3.357v-6.279h5.373v3.945h2.252v-3.945h7.027
			v3.945h2.252v-3.945h11.654c0.623,0,1.127-0.505,1.127-1.127c0-0.623-0.504-1.127-1.127-1.127h-11.654V20.82h13.029
			c0.623,0,1.127-0.505,1.127-1.127c0-0.623-0.504-1.127-1.127-1.127h-13.029l-0.002-6.282h17.43c0.621,0,1.125-0.505,1.125-1.127
			s-0.504-1.126-1.125-1.126h-17.43V3.748h24.137v29.555h2.252V2.621C530.846,1.999,530.342,1.494,529.721,1.494z M479.803,197.822
			h-2.558v-6.283h2.558V197.822z M479.803,189.285h-2.558v-6.283h2.558V189.285z M479.803,180.75h-2.558v-6.283h2.558V180.75z
			 M479.803,172.213h-2.558v-6.281h2.558V172.213z M479.803,163.678h-2.558v-6.281h2.558V163.678z M479.803,155.143h-2.558v-6.283
			h2.558V155.143z M479.803,146.605h-2.558v-6.281h2.558V146.605z M479.803,138.07h-2.558v-6.283h2.558V138.07z M479.803,129.533
			h-2.558v-6.284h2.558V129.533z M479.803,120.997h-2.558v-6.281h2.558V120.997z M479.803,112.462h-2.558v-6.284h2.558V112.462z
			 M479.803,103.925h-2.558v-6.281h2.558V103.925z M479.803,95.39h-2.558v-6.283h2.558V95.39z M479.803,86.854h-2.558v-6.283h2.558
			V86.854z M479.803,78.318h-2.558v-6.283h2.558V78.318z M479.803,69.781h-2.558V63.5h2.558V69.781z M479.803,61.246h-2.558v-6.281
			h2.558V61.246z M479.803,52.71h-2.558v-6.283h2.558V52.71z M479.803,44.173h-2.558l0.001-6.283h2.557V44.173z M479.803,35.636
			h-2.557v-6.279h2.557V35.636z M479.803,27.103h-2.557V20.82h2.557V27.103z M479.803,18.566h-2.557l-0.002-6.282h2.559V18.566z
			 M479.803,10.031h-2.559V3.748h2.559V10.031z M482.055,3.748h3.246v6.283h-3.246V3.748z M485.302,197.822h-3.247v-6.283h3.247
			V197.822z M485.302,189.285h-3.247v-6.283h3.247V189.285z M485.302,180.75h-3.247v-6.283h3.247V180.75z M485.302,172.213h-3.247
			v-6.281h3.247V172.213z M485.302,163.678h-3.247v-6.281h3.247V163.678z M485.302,155.143h-3.247v-6.283h3.247V155.143z
			 M485.302,146.605h-3.247v-6.281h3.247V146.605z M485.302,138.07h-3.247v-6.283h3.247V138.07z M485.302,129.533h-3.247v-6.284
			h3.247V129.533z M485.302,120.997h-3.247v-6.281h3.247V120.997z M485.302,112.462h-3.247v-6.284h3.247V112.462z M485.302,103.925
			h-3.247v-6.281h3.247V103.925z M485.302,95.39h-3.247v-6.283h3.247V95.39z M485.302,86.854h-3.247v-6.283h3.247V86.854z
			 M485.302,78.318h-3.247v-6.283h3.247V78.318z M485.302,69.781h-3.247V63.5h3.247V69.781z M485.302,61.246h-3.247v-6.281h3.247
			V61.246z M485.302,52.71h-3.247v-6.283h3.247V52.71z M485.302,44.173h-3.247V37.89h3.248L485.302,44.173z M485.303,35.636h-3.248
			v-6.279h3.248V35.636z M485.303,27.103h-3.248V20.82h3.248V27.103z M482.055,18.566v-6.282h3.246l0.002,6.282H482.055z
			 M492.928,27.103h-5.373V20.82h5.373V27.103z M492.928,18.566h-5.373l-0.002-6.282h5.375V18.566z M492.928,10.031h-5.375V3.748
			h5.375V10.031z M495.18,3.748h7.025v6.283h-7.025V3.748z M502.207,27.103h-7.027V20.82h7.027V27.103z M495.18,18.566v-6.282h7.025
			l0.002,6.282H495.18z"/>
	</g>
</g>
</svg>