<svg version="1.1" id="Layer_1" xmlns="http://www.w3.org/2000/svg" xmlns:xlink="http://www.w3.org/1999/xlink" x="0px" y="0px"
	 width="1225px" height="245px" viewBox="0 0 1225 245" enable-background="new 0 0 1225 245" xml:space="preserve">
<g>
	<g>
		<g>
			<rect x="36.135" y="178.104" fill="currentColor" width="36.674" height="2.252"/>
		</g>
		<g>
			<rect x="33.635" y="186.027" fill="currentColor" width="39.174" height="2.254"/>
		</g>
		<g>
			<rect x="31.133" y="193.951" fill="currentColor" width="41.676" height="2.254"/>
		</g>
		<g>
			<polygon fill="currentColor" points="21.422,227.191 19.172,227.191 19.172,171.848 83.938,171.848 83.938,215.096 81.688,215.096 
				81.688,174.101 21.422,174.101 			"/>
		</g>
		<g>
			<polygon fill="currentColor" points="68.102,243.872 65.85,243.872 65.85,232.904 2.25,232.904 2.25,243.872 0,243.872 0,230.651 
				68.102,230.651 			"/>
		</g>
		<g>
			<rect x="28.633" y="201.875" fill="currentColor" width="44.176" height="2.253"/>
		</g>
		<g>
			<rect x="26.133" y="209.8" fill="currentColor" width="46.676" height="2.253"/>
		</g>
		<g>
			<rect x="29.883" y="217.723" fill="currentColor" width="42.926" height="2.254"/>
		</g>
	</g>
	<g>
		<g>
			<polygon fill="currentColor" points="1142.73,217.184 1144.98,217.184 1144.98,164.308 1101.884,165.628 1101.884,216.975 
				1104.136,216.975 1104.136,167.813 1142.73,166.63 			"/>
		</g>
		<g>
			<polygon fill="currentColor" points="1111.888,243.874 1114.138,243.874 1114.138,235.682 1130.472,223.522 1148.98,223.522 
				1148.98,232.906 1156.482,232.906 1156.482,243.874 1158.734,243.874 1158.734,230.653 1151.232,230.653 1151.232,221.27 
				1129.728,221.27 1111.888,234.551 			"/>
		</g>
		<g>
			<polygon fill="currentColor" points="1222.75,243.874 1225,243.874 1225,218.56 1212.08,218.56 1212.08,203.962 1149.98,203.962 
				1149.98,194.33 1158.734,194.33 1158.734,184.529 1171.486,184.529 1171.486,201.21 1184.99,201.21 1184.99,187.031 
				1197.326,187.031 1197.326,199.667 1199.578,199.667 1199.578,184.778 1182.74,184.778 1182.74,198.957 1173.738,198.957 
				1173.738,182.275 1156.482,182.275 1156.482,192.076 1147.73,192.076 1147.73,206.215 1209.83,206.215 1209.83,220.813 
				1222.75,220.813 			"/>
		</g>
		<g>
			<polygon fill="currentColor" points="1124.113,162.967 1126.363,162.967 1126.363,154.918 1137.867,154.918 1137.867,162.967 
				1140.117,162.967 1140.117,152.666 1124.113,152.666 			"/>
		</g>
		<g>
			<rect x="1127.74" y="148.912" fill="currentColor" width="8.752" height="2.254"/>
		</g>
		<g>
			<polygon fill="currentColor" points="1132.115,130.438 1134.199,147.119 1132.115,147.119 1130.031,147.119 			"/>
		</g>
		<g>
			<rect x="1201.578" y="210.928" fill="currentColor" width="3.125" height="8.758"/>
		</g>
		<g>
			<rect x="1193.763" y="210.928" fill="currentColor" width="3.125" height="8.758"/>
		</g>
		<g>
			<rect x="1185.949" y="210.928" fill="currentColor" width="3.125" height="8.758"/>
		</g>
		<g>
			<rect x="1178.134" y="210.928" fill="currentColor" width="3.125" height="8.758"/>
		</g>
		<g>
			<rect x="1170.32" y="210.928" fill="currentColor" width="3.125" height="8.758"/>
		</g>
		<g>
			<rect x="1162.505" y="210.928" fill="currentColor" width="3.125" height="8.758"/>
		</g>
		<g>
			<rect x="1154.691" y="210.928" fill="currentColor" width="3.125" height="8.758"/>
		</g>
		<g>
			<rect x="1214.707" y="226.984" fill="currentColor" width="3.125" height="12.197"/>
		</g>
		<g>
			<rect x="1206.265" y="226.984" fill="currentColor" width="3.127" height="12.197"/>
		</g>
		<g>
			<rect x="1197.826" y="226.984" fill="currentColor" width="3.127" height="12.197"/>
		</g>
		<g>
			<rect x="1172.976" y="226.984" fill="currentColor" width="3.127" height="12.197"/>
		</g>
		<g>
			<rect x="1164.537" y="226.984" fill="currentColor" width="3.125" height="12.197"/>
		</g>
		<g>
			<rect x="1190.011" y="188.824" fill="currentColor" width="3.752" height="3.754"/>
		</g>
		<g>
			<rect x="1190.011" y="195.079" fill="currentColor" width="3.752" height="3.753"/>
		</g>
		<g>
			<rect x="1164.224" y="188.824" fill="currentColor" width="3.75" height="3.754"/>
		</g>
		<g>
			<rect x="1164.224" y="195.079" fill="currentColor" width="3.75" height="3.753"/>
		</g>
		<g>
			<polygon fill="currentColor" points="1109.492,216.975 1111.742,216.975 1111.742,178.377 1135.367,178.377 1135.367,216.975 
				1137.615,216.975 1137.615,176.124 1109.492,176.124 			"/>
		</g>
		<g>
			<rect x="1121.556" y="184.445" fill="currentColor" width="3.682" height="33.154"/>
		</g>
		<g>
			<rect x="1114.994" y="184.445" fill="currentColor" width="3.68" height="33.154"/>
		</g>
		<g>
			<rect x="1134.199" y="226.984" fill="currentColor" width="11.113" height="2.711"/>
		</g>
		<g>
			<rect x="1134.199" y="231.729" fill="currentColor" width="11.113" height="2.709"/>
		</g>
		<g>
			<rect x="1134.199" y="236.472" fill="currentColor" width="11.113" height="2.71"/>
		</g>
	</g>
	<g>
		<g>
			<polygon fill="currentColor" points="1063.71,217.6 1065.96,217.6 1065.96,114.715 996.193,114.715 996.193,142.948 998.443,142.948 
				998.443,116.967 1063.71,116.967 			"/>
		</g>
		<g>
			<polygon fill="currentColor" points="1082.88,243.874 1085.132,243.874 1085.132,221.27 1060.958,221.27 1060.958,191.451 
				1039.955,191.451 1039.955,221.27 1016.908,221.27 1016.908,223.522 1042.205,223.522 1042.205,193.704 1058.708,193.704 
				1058.708,223.522 1082.88,223.522 			"/>
		</g>
		<g>
			<rect x="1075.88" y="226.984" fill="currentColor" width="2.707" height="6.15"/>
		</g>
		<g>
			<rect x="1069.289" y="226.984" fill="currentColor" width="2.711" height="6.15"/>
		</g>
		<g>
			<rect x="1062.701" y="226.984" fill="currentColor" width="2.707" height="6.15"/>
		</g>
		<g>
			<rect x="1075.88" y="236.107" fill="currentColor" width="2.707" height="4.014"/>
		</g>
		<g>
			<rect x="1069.289" y="236.107" fill="currentColor" width="2.711" height="4.014"/>
		</g>
		<g>
			<rect x="1062.701" y="236.107" fill="currentColor" width="2.707" height="4.014"/>
		</g>
		<g>
			<rect x="1046.08" y="196.956" fill="currentColor" width="10.42" height="1.876"/>
		</g>
		<g>
			<rect x="1046.08" y="203.004" fill="currentColor" width="10.42" height="1.875"/>
		</g>
		<g>
			<rect x="1046.08" y="209.051" fill="currentColor" width="10.42" height="1.877"/>
		</g>
		<g>
			<rect x="1046.08" y="215.098" fill="currentColor" width="10.42" height="1.877"/>
		</g>
		<g>
			<rect x="1046.08" y="227.453" fill="currentColor" width="10.42" height="1.876"/>
		</g>
		<g>
			<rect x="1046.08" y="233.5" fill="currentColor" width="10.42" height="1.876"/>
		</g>
		<g>
			<rect x="1038.789" y="121.887" fill="currentColor" width="22.504" height="1.669"/>
		</g>
		<g>
			<rect x="1001.486" y="121.887" fill="currentColor" width="28.133" height="1.669"/>
		</g>
		<g>
			<rect x="1038.789" y="125.85" fill="currentColor" width="22.504" height="1.668"/>
		</g>
		<g>
			<rect x="1001.486" y="125.85" fill="currentColor" width="28.133" height="1.668"/>
		</g>
		<g>
			<rect x="1038.789" y="129.812" fill="currentColor" width="22.504" height="1.669"/>
		</g>
		<g>
			<rect x="1001.486" y="129.812" fill="currentColor" width="28.133" height="1.669"/>
		</g>
		<g>
			<rect x="1038.789" y="140.752" fill="currentColor" width="22.504" height="1.668"/>
		</g>
		<g>
			<rect x="1001.486" y="140.752" fill="currentColor" width="28.133" height="1.668"/>
		</g>
		<g>
			<rect x="1038.789" y="144.714" fill="currentColor" width="22.504" height="1.667"/>
		</g>
		<g>
			<rect x="1001.486" y="144.714" fill="currentColor" width="28.133" height="1.667"/>
		</g>
		<g>
			<rect x="1038.789" y="155.654" fill="currentColor" width="22.504" height="1.668"/>
		</g>
		<g>
			<rect x="1001.486" y="155.654" fill="currentColor" width="28.133" height="1.668"/>
		</g>
		<g>
			<rect x="1038.789" y="159.616" fill="currentColor" width="22.504" height="1.668"/>
		</g>
		<g>
			<rect x="1001.486" y="159.616" fill="currentColor" width="28.133" height="1.668"/>
		</g>
		<g>
			<rect x="1038.789" y="170.557" fill="currentColor" width="22.504" height="1.668"/>
		</g>
		<g>
			<rect x="1001.486" y="170.557" fill="currentColor" width="28.133" height="1.668"/>
		</g>
		<g>
			<rect x="1038.789" y="174.518" fill="currentColor" width="22.504" height="1.669"/>
		</g>
		<g>
			<rect x="1001.486" y="174.518" fill="currentColor" width="28.133" height="1.669"/>
		</g>
		<g>
			<rect x="1001.486" y="185.459" fill="currentColor" width="28.133" height="1.668"/>
		</g>
		<g>
			<rect x="1001.486" y="189.42" fill="currentColor" width="28.133" height="1.67"/>
		</g>
		<g>
			<rect x="1001.486" y="200.359" fill="currentColor" width="28.133" height="1.67"/>
		</g>
		<g>
			<rect x="1001.486" y="204.322" fill="currentColor" width="28.133" height="1.668"/>
		</g>
	</g>
	<g>
		<g>
			<rect x="283.156" y="172.141" fill="currentColor" width="7.918" height="3.754"/>
		</g>
		<g>
			<rect x="283.156" y="180.273" fill="currentColor" width="7.918" height="3.754"/>
		</g>
		<g>
			<rect x="283.156" y="188.406" fill="currentColor" width="7.918" height="3.753"/>
		</g>
		<g>
			<rect x="283.156" y="196.539" fill="currentColor" width="7.918" height="3.754"/>
		</g>
		<g>
			<rect x="248.689" y="196.746" fill="currentColor" width="2.25" height="42.957"/>
		</g>
		<g>
			<polygon fill="currentColor" points="275.361,243.873 277.613,243.873 277.613,168.055 294.533,168.055 294.533,243.873 
				296.785,243.873 296.785,165.801 275.361,165.801 			"/>
		</g>
		<g>
			<polygon fill="currentColor" points="234.518,243.873 236.77,243.873 236.77,205.213 230.518,205.213 230.518,197.873 
				253.689,197.873 253.689,229.151 269.109,229.151 269.109,243.873 271.361,243.873 271.361,226.898 255.941,226.898 
				255.941,195.619 228.266,195.619 228.266,207.465 234.518,207.465 			"/>
		</g>
		<g>
			<polygon fill="currentColor" points="268.084,223.855 270.336,223.855 270.336,164.341 252.248,164.341 252.248,192.159 
				254.498,192.159 254.498,166.595 268.084,166.595 			"/>
		</g>
		<g>
			<rect x="283.156" y="204.672" fill="currentColor" width="7.918" height="3.753"/>
		</g>
		<g>
			<rect x="283.156" y="222.082" fill="currentColor" width="7.918" height="3.754"/>
		</g>
		<g>
			<rect x="283.156" y="230.215" fill="currentColor" width="7.918" height="3.753"/>
		</g>
	</g>
	<g>
		<g>
			<rect x="183.11" y="185.904" fill="currentColor" width="2.207" height="12.511"/>
		</g>
		<g>
			<rect x="177.038" y="185.904" fill="currentColor" width="2.207" height="12.511"/>
		</g>
		<g>
			<rect x="170.966" y="185.904" fill="currentColor" width="2.209" height="12.511"/>
		</g>
		<g>
			<rect x="164.896" y="185.904" fill="currentColor" width="2.207" height="12.511"/>
		</g>
		<g>
			<rect x="141.972" y="182.15" fill="currentColor" width="7.92" height="3.754"/>
		</g>
		<g>
			<rect x="141.972" y="190.283" fill="currentColor" width="7.92" height="3.753"/>
		</g>
		<g>
			<polygon fill="currentColor" points="135.011,243.873 137.263,243.873 137.263,233.427 157.269,233.427 157.269,183.277 
				188.358,183.277 188.358,243.873 190.61,243.873 190.61,181.023 155.017,181.023 155.017,231.174 135.011,231.174 			"/>
		</g>
		<g>
			<polygon fill="currentColor" points="111.673,243.873 113.925,243.873 113.925,227.692 133.513,227.692 133.513,178.271 
				145.183,178.271 145.183,166.178 156.267,166.178 156.267,175.477 158.519,175.477 158.519,163.925 142.931,163.925 
				142.931,176.02 131.261,176.02 131.261,225.439 111.673,225.439 			"/>
		</g>
		<g>
			<rect x="183.11" y="203.002" fill="currentColor" width="2.207" height="5.63"/>
		</g>
		<g>
			<rect x="177.038" y="203.002" fill="currentColor" width="2.207" height="5.63"/>
		</g>
		<g>
			<rect x="170.966" y="203.002" fill="currentColor" width="2.209" height="5.63"/>
		</g>
		<g>
			<rect x="164.896" y="203.002" fill="currentColor" width="2.207" height="5.63"/>
		</g>
		<g>
			<rect x="183.11" y="228.024" fill="currentColor" width="2.207" height="5.632"/>
		</g>
		<g>
			<rect x="177.038" y="228.024" fill="currentColor" width="2.207" height="5.632"/>
		</g>
		<g>
			<rect x="170.966" y="228.024" fill="currentColor" width="2.209" height="5.632"/>
		</g>
		<g>
			<rect x="164.896" y="228.024" fill="currentColor" width="2.207" height="5.632"/>
		</g>
		<g>
			<rect x="136.263" y="177.146" fill="currentColor" width="2.25" height="46.709"/>
		</g>
		<g>
			<rect x="141.972" y="198.415" fill="currentColor" width="7.92" height="3.753"/>
		</g>
		<g>
			<rect x="141.972" y="206.547" fill="currentColor" width="7.92" height="3.754"/>
		</g>
		<g>
			<rect x="141.972" y="214.68" fill="currentColor" width="7.92" height="3.754"/>
		</g>
		<g>
			<g>
				<path fill="currentColor" d="M198.729,188.162c-0.623,0-1.127-0.505-1.127-1.127v-28.908c0-0.623,0.504-1.127,1.127-1.127
					c0.621,0,1.125,0.504,1.125,1.127v28.908C199.854,187.657,199.351,188.162,198.729,188.162z"/>
			</g>
			<g>
				<path fill="currentColor" d="M163.458,176.703c-0.623,0-1.127-0.505-1.127-1.127v-17.449c0-0.623,0.504-1.127,1.127-1.127
					c0.621,0,1.125,0.504,1.125,1.127v17.449C164.583,176.198,164.079,176.703,163.458,176.703z"/>
			</g>
			<g>
				<path fill="currentColor" d="M198.729,159.254h-9.389c-0.623,0-1.127-0.504-1.127-1.127s0.504-1.127,1.127-1.127h9.389
					c0.621,0,1.125,0.504,1.125,1.127S199.351,159.254,198.729,159.254z"/>
			</g>
			<g>
				<path fill="currentColor" d="M189.339,159.254c-0.51,0-0.973-0.352-1.094-0.87c-0.51-2.173-1.912-4.054-3.848-5.16
					c-0.541-0.31-0.729-0.997-0.42-1.536c0.307-0.541,0.996-0.729,1.535-0.42c2.477,1.416,4.271,3.821,4.924,6.603
					c0.141,0.606-0.234,1.212-0.84,1.354C189.511,159.244,189.425,159.254,189.339,159.254z"/>
			</g>
			<g>
				<path fill="currentColor" d="M172.847,159.254h-9.389c-0.623,0-1.127-0.504-1.127-1.127s0.504-1.127,1.127-1.127h9.389
					c0.621,0,1.125,0.504,1.125,1.127S173.468,159.254,172.847,159.254z"/>
			</g>
			<g>
				<path fill="currentColor" d="M172.847,159.254c-0.084,0-0.172-0.01-0.258-0.03c-0.605-0.144-0.98-0.749-0.838-1.354
					c0.652-2.781,2.447-5.188,4.924-6.603c0.539-0.31,1.227-0.121,1.535,0.42c0.307,0.539,0.119,1.227-0.42,1.536
					c-1.936,1.104-3.338,2.986-3.848,5.161C173.819,158.904,173.358,159.254,172.847,159.254z"/>
			</g>
			<g>
				<path fill="currentColor" d="M184.954,153.372c-0.207,0-0.416-0.057-0.602-0.177c-2.213-1.402-3.758-3.582-4.355-6.139
					c-0.141-0.605,0.234-1.21,0.84-1.352c0.604-0.146,1.211,0.234,1.352,0.84c0.463,1.977,1.658,3.664,3.369,4.75
					c0.525,0.332,0.68,1.028,0.348,1.553C185.69,153.186,185.325,153.372,184.954,153.372z"/>
			</g>
			<g>
				<path fill="currentColor" d="M177.233,153.372c-0.373,0-0.738-0.187-0.951-0.524c-0.334-0.524-0.178-1.221,0.348-1.553
					c1.711-1.088,2.906-2.773,3.367-4.75c0.143-0.605,0.752-0.984,1.352-0.84c0.605,0.141,0.982,0.746,0.84,1.352
					c-0.594,2.555-2.141,4.735-4.354,6.139C177.647,153.315,177.438,153.372,177.233,153.372z"/>
			</g>
			<g>
				<path fill="currentColor" d="M190.308,150.649c-0.623,0-1.127-0.505-1.127-1.126v-29.59c0-0.623,0.504-1.127,1.127-1.127
					c0.621,0,1.125,0.504,1.125,1.127v29.59C191.433,150.145,190.929,150.649,190.308,150.649z"/>
			</g>
			<g>
				<path fill="currentColor" d="M181.093,142.484c-3.619,0-6.566-2.949-6.566-6.571s2.947-6.569,6.566-6.569
					c3.621,0,6.566,2.947,6.566,6.569S184.714,142.484,181.093,142.484z M181.093,131.597c-2.379,0-4.314,1.937-4.314,4.316
					s1.936,4.317,4.314,4.317s4.314-1.938,4.314-4.317S183.472,131.597,181.093,131.597z"/>
			</g>
			<g>
				<path fill="currentColor" d="M198.729,156.313c-0.623,0-1.127-0.504-1.127-1.127v-6.014c0-0.623,0.504-1.127,1.127-1.127
					c0.621,0,1.125,0.504,1.125,1.127v6.014C199.854,155.809,199.351,156.313,198.729,156.313z"/>
			</g>
			<g>
				<path fill="currentColor" d="M198.729,150.299h-4.211c-0.623,0-1.127-0.504-1.127-1.127s0.504-1.127,1.127-1.127h4.211
					c0.621,0,1.125,0.504,1.125,1.127S199.351,150.299,198.729,150.299z"/>
			</g>
			<g>
				<path fill="currentColor" d="M196.624,150.299c-0.621,0-1.125-0.504-1.125-1.127v-7.814c0-0.623,0.504-1.127,1.125-1.127
					c0.623,0,1.127,0.504,1.127,1.127v7.814C197.751,149.795,197.247,150.299,196.624,150.299z"/>
			</g>
			<g>
				<path fill="currentColor" d="M171.882,150.649c-0.623,0-1.127-0.505-1.127-1.126v-29.59c0-0.623,0.504-1.127,1.127-1.127
					c0.621,0,1.125,0.504,1.125,1.127v29.59C173.007,150.145,172.503,150.649,171.882,150.649z"/>
			</g>
			<g>
				<path fill="currentColor" d="M163.458,156.313c-0.623,0-1.127-0.504-1.127-1.127v-6.014c0-0.623,0.504-1.127,1.127-1.127
					c0.621,0,1.125,0.504,1.125,1.127v6.014C164.583,155.809,164.079,156.313,163.458,156.313z"/>
			</g>
			<g>
				<path fill="currentColor" d="M167.669,150.299h-4.211c-0.623,0-1.127-0.504-1.127-1.127s0.504-1.127,1.127-1.127h4.211
					c0.621,0,1.125,0.504,1.125,1.127S168.29,150.299,167.669,150.299z"/>
			</g>
			<g>
				<path fill="currentColor" d="M165.563,150.299c-0.623,0-1.127-0.504-1.127-1.127v-7.814c0-0.623,0.504-1.127,1.127-1.127
					c0.621,0,1.125,0.504,1.125,1.127v7.814C166.688,149.795,166.185,150.299,165.563,150.299z"/>
			</g>
			<g>
				<path fill="currentColor" d="M172.847,171.282c-0.623,0-1.127-0.505-1.127-1.126v-12.029c0-0.623,0.504-1.127,1.127-1.127
					c0.621,0,1.125,0.504,1.125,1.127v12.029C173.972,170.777,173.468,171.282,172.847,171.282z"/>
			</g>
			<g>
				<path fill="currentColor" d="M189.341,171.282c-0.623,0-1.127-0.505-1.127-1.126v-12.029c0-0.623,0.504-1.127,1.127-1.127
					c0.621,0,1.125,0.504,1.125,1.127v12.029C190.466,170.777,189.962,171.282,189.341,171.282z"/>
			</g>
			<g>
				<path fill="currentColor" d="M183.901,171.282h-5.615c-0.623,0-1.127-0.505-1.127-1.126c0-0.623,0.504-1.127,1.127-1.127h5.615
					c0.623,0,1.127,0.504,1.127,1.127C185.028,170.777,184.524,171.282,183.901,171.282z"/>
			</g>
			<g>
				<path fill="currentColor" d="M184.251,128.437c-0.209,0-0.42-0.059-0.607-0.18c-2.303-1.484-3.676-4.005-3.676-6.741
					c0-0.623,0.504-1.127,1.125-1.127c0.623,0,1.127,0.504,1.127,1.127c0,1.967,0.986,3.78,2.643,4.848
					c0.521,0.337,0.674,1.033,0.336,1.557C184.983,128.254,184.622,128.437,184.251,128.437z"/>
			</g>
			<g>
				<path fill="currentColor" d="M177.937,128.437c-0.371,0-0.732-0.183-0.947-0.517c-0.338-0.523-0.186-1.22,0.336-1.557
					c1.654-1.066,2.643-2.879,2.643-4.848c0-0.623,0.504-1.127,1.125-1.127c0.623,0,1.127,0.504,1.127,1.127
					c0,2.737-1.375,5.258-3.676,6.741C178.356,128.378,178.146,128.437,177.937,128.437z"/>
			</g>
			<g>
				<path fill="currentColor" d="M175.653,121.06h-3.771c-0.623,0-1.127-0.505-1.127-1.126c0-0.623,0.504-1.127,1.127-1.127h3.771
					c0.621,0,1.125,0.504,1.125,1.127C176.778,120.555,176.274,121.06,175.653,121.06z"/>
			</g>
			<g>
				<path fill="currentColor" d="M190.308,121.06h-3.773c-0.623,0-1.127-0.505-1.127-1.126c0-0.623,0.504-1.127,1.127-1.127h3.773
					c0.621,0,1.125,0.504,1.125,1.127C191.433,120.555,190.929,121.06,190.308,121.06z"/>
			</g>
			<g>
				<path fill="currentColor" d="M173.196,121.06c-0.621,0-1.125-0.505-1.125-1.126v-13.521c0-0.622,0.504-1.127,1.125-1.127
					c0.623,0,1.127,0.505,1.127,1.127v13.521C174.323,120.555,173.819,121.06,173.196,121.06z"/>
			</g>
			<g>
				<path fill="currentColor" d="M177.935,116.759c-0.621,0-1.125-0.504-1.125-1.126v-9.221c0-0.622,0.504-1.127,1.125-1.127
					c0.623,0,1.127,0.505,1.127,1.127v9.221C179.062,116.255,178.558,116.759,177.935,116.759z"/>
			</g>
			<g>
				<path fill="currentColor" d="M188.989,121.06c-0.621,0-1.125-0.505-1.125-1.126v-13.521c0-0.622,0.504-1.127,1.125-1.127
					c0.623,0,1.127,0.505,1.127,1.127v13.521C190.116,120.555,189.612,121.06,188.989,121.06z"/>
			</g>
			<g>
				<path fill="currentColor" d="M184.253,116.759c-0.623,0-1.127-0.504-1.127-1.126v-9.221c0-0.622,0.504-1.127,1.127-1.127
					c0.621,0,1.125,0.505,1.125,1.127v9.221C185.378,116.255,184.874,116.759,184.253,116.759z"/>
			</g>
			<g>
				<path fill="currentColor" d="M177.935,107.539c-0.234,0-0.469-0.072-0.67-0.223c-0.5-0.371-0.604-1.076-0.232-1.575l3.158-4.258
					c0.371-0.501,1.074-0.604,1.574-0.233c0.498,0.371,0.604,1.076,0.232,1.576l-3.158,4.258
					C178.618,107.382,178.278,107.539,177.935,107.539z"/>
			</g>
			<g>
				<path fill="currentColor" d="M184.253,107.539c-0.344,0-0.684-0.157-0.904-0.455l-3.158-4.258c-0.371-0.5-0.268-1.205,0.232-1.576
					c0.496-0.371,1.203-0.268,1.574,0.233l3.158,4.258c0.371,0.499,0.268,1.204-0.232,1.575
					C184.722,107.467,184.487,107.539,184.253,107.539z"/>
			</g>
			<g>
				<path fill="currentColor" d="M184.251,107.539c-0.186,0-0.373-0.046-0.547-0.143c-0.543-0.303-0.738-0.989-0.436-1.532l2.371-4.258
					c0.303-0.542,0.988-0.737,1.531-0.437c0.543,0.304,0.738,0.99,0.436,1.533l-2.371,4.258
					C185.03,107.33,184.646,107.539,184.251,107.539z"/>
			</g>
			<g>
				<path fill="currentColor" d="M188.991,107.539c-0.396,0-0.779-0.209-0.984-0.58l-2.367-4.258c-0.303-0.543-0.107-1.229,0.436-1.531
					c0.541-0.303,1.229-0.107,1.531,0.438l2.367,4.258c0.303,0.543,0.107,1.229-0.438,1.531
					C189.364,107.493,189.177,107.539,188.991,107.539z"/>
			</g>
			<g>
				<path fill="currentColor" d="M173.196,107.539c-0.186,0-0.373-0.046-0.547-0.143c-0.543-0.303-0.738-0.988-0.436-1.531l2.367-4.258
					c0.303-0.545,0.988-0.74,1.531-0.438c0.543,0.304,0.738,0.988,0.436,1.531l-2.367,4.258
					C173.974,107.33,173.591,107.539,173.196,107.539z"/>
			</g>
			<g>
				<path fill="currentColor" d="M177.937,107.539c-0.396,0-0.779-0.209-0.984-0.578l-2.371-4.258c-0.303-0.543-0.107-1.229,0.436-1.533
					c0.543-0.303,1.229-0.107,1.531,0.437l2.371,4.258c0.303,0.543,0.107,1.229-0.436,1.532
					C178.31,107.493,178.122,107.539,177.937,107.539z"/>
			</g>
			<g>
				<path fill="currentColor" d="M176.175,104.376c-0.07,0-0.143-0.007-0.215-0.021c-0.609-0.118-1.01-0.71-0.891-1.319l4.92-25.372
					c0.117-0.61,0.701-1.012,1.318-0.89c0.609,0.117,1.01,0.709,0.891,1.319l-4.92,25.371
					C177.175,104.002,176.704,104.376,176.175,104.376z"/>
			</g>
			<g>
				<path fill="currentColor" d="M186.013,104.376c-0.529,0-1-0.374-1.104-0.912l-4.92-25.371c-0.119-0.61,0.279-1.202,0.889-1.319
					c0.617-0.124,1.201,0.279,1.32,0.89l4.92,25.371c0.119,0.61-0.281,1.202-0.891,1.32
					C186.155,104.369,186.083,104.376,186.013,104.376z"/>
			</g>
			<g>
				<path fill="currentColor" d="M181.093,79.005c-0.621,0-1.125-0.505-1.125-1.127v-4.214c0-0.623,0.504-1.127,1.125-1.127
					c0.623,0,1.127,0.504,1.127,1.127v4.214C182.22,78.5,181.716,79.005,181.093,79.005z"/>
			</g>
			<g>
				<path fill="currentColor" d="M176.817,146.875h-1.164c-0.623,0-1.127-0.505-1.127-1.127c0-0.623,0.504-1.127,1.127-1.127h1.164
					c0.621,0,1.125,0.504,1.125,1.127C177.942,146.37,177.438,146.875,176.817,146.875z"/>
			</g>
			<g>
				<path fill="currentColor" d="M186.534,146.875h-1.162c-0.623,0-1.127-0.505-1.127-1.127c0-0.623,0.504-1.127,1.127-1.127h1.162
					c0.621,0,1.125,0.504,1.125,1.127C187.659,146.37,187.155,146.875,186.534,146.875z"/>
			</g>
			<g>
				<path fill="currentColor" d="M181.093,158.309c-0.621,0-1.125-0.504-1.125-1.127v-1.623c0-0.622,0.504-1.127,1.125-1.127
					c0.623,0,1.127,0.505,1.127,1.127v1.623C182.22,157.805,181.716,158.309,181.093,158.309z"/>
			</g>
			<g>
				<path fill="currentColor" d="M194.036,166.322c-0.623,0-1.127-0.505-1.127-1.127v-1.602c0-0.623,0.504-1.127,1.127-1.127
					c0.621,0,1.125,0.504,1.125,1.127v1.602C195.161,165.817,194.657,166.322,194.036,166.322z"/>
			</g>
			<g>
				<path fill="currentColor" d="M168.151,166.322c-0.621,0-1.125-0.505-1.125-1.127v-1.602c0-0.623,0.504-1.127,1.125-1.127
					c0.623,0,1.127,0.504,1.127,1.127v1.602C169.278,165.817,168.774,166.322,168.151,166.322z"/>
			</g>
			<g>
				<path fill="currentColor" d="M192.872,176.311h-23.559c-0.621,0-1.125-0.505-1.125-1.127c0-0.623,0.504-1.127,1.125-1.127h23.559
					c0.623,0,1.127,0.504,1.127,1.127C193.999,175.806,193.495,176.311,192.872,176.311z"/>
			</g>
			<g>
				<path fill="currentColor" d="M182.673,137.04h-1.58c-0.621,0-1.125-0.505-1.125-1.127s0.504-1.126,1.125-1.126h1.58
					c0.623,0,1.127,0.504,1.127,1.126S183.296,137.04,182.673,137.04z"/>
			</g>
			<g>
				<path fill="currentColor" d="M181.093,137.04c-0.621,0-1.125-0.505-1.125-1.127v-2.052c0-0.623,0.504-1.127,1.125-1.127
					c0.623,0,1.127,0.504,1.127,1.127v2.052C182.22,136.535,181.716,137.04,181.093,137.04z"/>
			</g>
			<g>
				<path fill="currentColor" d="M202.853,182.424h-4.123c-0.623,0-1.127-0.504-1.127-1.127c0-0.622,0.504-1.126,1.127-1.126h4.123
					c0.623,0,1.127,0.504,1.127,1.126C203.979,181.92,203.476,182.424,202.853,182.424z"/>
			</g>
			<g>
				<path fill="currentColor" d="M202.853,182.424c-0.621,0-1.125-0.504-1.125-1.127v-5.114c0-0.622,0.504-1.126,1.125-1.126
					c0.623,0,1.127,0.504,1.127,1.126v5.114C203.979,181.92,203.476,182.424,202.853,182.424z"/>
			</g>
			<g>
				<path fill="currentColor" d="M205.399,178.847c-0.404,0-0.795-0.219-0.996-0.603c-0.305-0.577-0.898-0.935-1.551-0.935
					c-0.621,0-1.125-0.505-1.125-1.127s0.504-1.126,1.125-1.126c1.49,0,2.848,0.819,3.543,2.139c0.289,0.551,0.078,1.23-0.473,1.521
					C205.757,178.805,205.577,178.847,205.399,178.847z"/>
			</g>
			<g>
				<path fill="currentColor" d="M207.942,182.424c-0.621,0-1.125-0.504-1.125-1.127v-5.114c0-0.622,0.504-1.126,1.125-1.126
					c0.623,0,1.127,0.504,1.127,1.126v5.114C209.069,181.92,208.565,182.424,207.942,182.424z"/>
			</g>
			<g>
				<path fill="currentColor" d="M205.397,178.847c-0.176,0-0.355-0.042-0.521-0.129c-0.551-0.29-0.762-0.97-0.475-1.521
					c0.693-1.319,2.051-2.14,3.541-2.14c0.623,0,1.127,0.504,1.127,1.126s-0.504,1.127-1.127,1.127
					c-0.652,0-1.244,0.357-1.547,0.935C206.194,178.627,205.804,178.847,205.397,178.847z"/>
			</g>
			<g>
				<path fill="currentColor" d="M212.067,182.424h-4.125c-0.621,0-1.125-0.504-1.125-1.127c0-0.622,0.504-1.126,1.125-1.126h4.125
					c0.623,0,1.127,0.504,1.127,1.126C213.194,181.92,212.69,182.424,212.067,182.424z"/>
			</g>
		</g>
	</g>
	<g>
		<g>
			<polygon fill="currentColor" points="605.011,243.874 602.759,243.874 602.759,240.621 540.243,240.621 540.243,236.242 
				488.731,236.242 488.731,243.874 486.479,243.874 486.479,233.989 542.495,233.989 542.495,238.368 605.011,238.368 			"/>
		</g>
		<g>
			<polygon fill="currentColor" points="577.505,235.116 575.253,235.116 575.253,207.467 517.489,207.467 517.489,232.301 
				515.237,232.301 515.237,205.214 577.505,205.214 			"/>
		</g>
		<g>
			<polygon fill="currentColor" points="477.478,243.874 475.228,243.874 475.228,196.455 517.489,196.455 517.489,202.586 
				515.237,202.586 515.237,198.709 477.478,198.709 			"/>
		</g>
		<g>
			<path fill="currentColor" d="M497.483,220.395h-7.67V205.63h7.67V220.395z M492.065,218.141h3.166v-10.258h-3.166V218.141z"/>
		</g>
		<g>
			<polygon fill="currentColor" points="564.376,235.116 562.124,235.116 562.124,214.557 524.366,214.557 524.366,230.528 
				522.114,230.528 522.114,212.303 564.376,212.303 			"/>
		</g>
		<g>
			<polygon fill="currentColor" points="413.368,213.18 415.62,213.18 415.62,180.691 431.708,180.691 431.708,187.072 433.958,187.072 
				433.958,178.439 413.368,178.439 			"/>
		</g>
		<g>
			<g>
				<polygon fill="currentColor" points="469.604,243.874 471.856,243.874 471.856,223.98 464.354,223.98 464.354,194.369 
					438.224,194.369 438.224,196.623 462.103,196.623 462.103,226.233 469.604,226.233 				"/>
			</g>
			<g>
				<rect x="452.101" y="200.919" fill="currentColor" width="2.252" height="24.188"/>
			</g>
			<g>
				<polygon fill="currentColor" points="456.687,243.874 458.937,243.874 458.937,231.07 448.517,231.07 448.517,223.98 433.931,223.98 
					433.931,200.919 431.679,200.919 431.679,226.233 446.267,226.233 446.267,233.324 456.687,233.324 				"/>
			</g>
			<g>
				<polyline fill="currentColor" points="456.019,189.762 456.019,192.036 433.513,192.036 433.513,198.709 427.679,198.709 
					427.679,226.233 408.923,226.233 408.923,238.368 423.761,238.368 423.761,231.174 440.724,231.174 440.724,233.428 
					426.011,233.428 426.011,240.621 406.673,240.621 406.673,223.98 425.429,223.98 425.429,196.455 431.263,196.455 
					431.263,189.783 				"/>
			</g>
		</g>
		<g>
			<g>
				<path fill="currentColor" d="M452.202,152.384c-0.484,0-0.934-0.316-1.078-0.806c-0.178-0.596,0.162-1.223,0.758-1.4l43.797-13.051
					c0.602-0.178,1.223,0.163,1.4,0.758c0.176,0.597-0.162,1.224-0.758,1.402l-43.797,13.05
					C452.417,152.368,452.308,152.384,452.202,152.384z"/>
			</g>
			<g>
				<path fill="currentColor" d="M469.196,151.287c-0.486,0-0.934-0.316-1.08-0.805c-0.176-0.596,0.162-1.224,0.758-1.401l26.805-7.987
					c0.602-0.176,1.223,0.164,1.4,0.759c0.176,0.597-0.162,1.224-0.758,1.401l-26.805,7.986
					C469.409,151.271,469.302,151.287,469.196,151.287z"/>
			</g>
			<g>
				<path fill="currentColor" d="M495.999,155.103h-43.797c-0.621,0-1.125-0.505-1.125-1.126c0-0.623,0.504-1.127,1.125-1.127h43.797
					c0.623,0,1.127,0.504,1.127,1.127C497.126,154.598,496.622,155.103,495.999,155.103z"/>
			</g>
			<g>
				<path fill="currentColor" d="M455.599,173.365c-0.621,0-1.125-0.504-1.125-1.127v-18.262c0-0.623,0.504-1.127,1.125-1.127
					c0.623,0,1.127,0.504,1.127,1.127v18.262C456.726,172.861,456.222,173.365,455.599,173.365z"/>
			</g>
			<g>
				<path fill="currentColor" d="M458.392,173.365h-25.893c-0.621,0-1.125-0.504-1.125-1.127c0-0.622,0.504-1.126,1.125-1.126h25.893
					c0.623,0,1.127,0.504,1.127,1.126C459.519,172.861,459.015,173.365,458.392,173.365z"/>
			</g>
			<g>
				<path fill="currentColor" d="M452.202,155.103c-0.621,0-1.125-0.505-1.125-1.126v-2.719c0-0.623,0.504-1.127,1.125-1.127
					c0.623,0,1.127,0.504,1.127,1.127v2.719C453.329,154.598,452.825,155.103,452.202,155.103z"/>
			</g>
			<g>
				<path fill="currentColor" d="M450.69,179.106c-0.512,0-0.973-0.351-1.094-0.87c-0.143-0.606,0.234-1.212,0.84-1.354l45.307-10.574
					c0.604-0.145,1.211,0.232,1.352,0.84c0.143,0.605-0.234,1.212-0.84,1.353l-45.307,10.575
					C450.862,179.097,450.776,179.106,450.69,179.106z"/>
			</g>
			<g>
				<path fill="currentColor" d="M472.226,178.008c-0.512,0-0.975-0.351-1.096-0.87c-0.141-0.606,0.234-1.212,0.84-1.353l23.773-5.551
					c0.604-0.146,1.211,0.234,1.352,0.841c0.143,0.605-0.234,1.212-0.84,1.353l-23.773,5.551
					C472.396,177.998,472.31,178.008,472.226,178.008z"/>
			</g>
			<g>
				<path fill="currentColor" d="M450.692,181.045c-0.623,0-1.127-0.505-1.127-1.127v-1.938c0-0.623,0.504-1.127,1.127-1.127
					c0.621,0,1.125,0.504,1.125,1.127v1.938C451.817,180.54,451.313,181.045,450.692,181.045z"/>
			</g>
			<g>
				<path fill="currentColor" d="M495.999,181.675h-45.307c-0.623,0-1.127-0.505-1.127-1.127s0.504-1.126,1.127-1.126h45.307
					c0.623,0,1.127,0.504,1.127,1.126S496.622,181.675,495.999,181.675z"/>
			</g>
			<g>
				<path fill="currentColor" d="M452.505,185.658c-0.623,0-1.127-0.504-1.127-1.126v-3.984c0-0.622,0.504-1.126,1.127-1.126
					c0.621,0,1.125,0.504,1.125,1.126v3.984C453.63,185.154,453.126,185.658,452.505,185.658z"/>
			</g>
			<g>
				<path fill="currentColor" d="M495.999,185.658h-43.494c-0.623,0-1.127-0.504-1.127-1.126s0.504-1.126,1.127-1.126h43.494
					c0.623,0,1.127,0.504,1.127,1.126S496.622,185.658,495.999,185.658z"/>
			</g>
			<g>
				<path fill="currentColor" d="M478.069,190.262c-0.621,0-1.125-0.504-1.125-1.126v-4.604c0-0.622,0.504-1.126,1.125-1.126
					c0.623,0,1.127,0.504,1.127,1.126v4.604C479.196,189.758,478.692,190.262,478.069,190.262z"/>
			</g>
			<g>
				<path fill="currentColor" d="M490.022,190.262c-0.623,0-1.127-0.504-1.127-1.126v-4.604c0-0.622,0.504-1.126,1.127-1.126
					c0.621,0,1.125,0.504,1.125,1.126v4.604C491.147,189.758,490.644,190.262,490.022,190.262z"/>
			</g>
			<g>
				<g>
					<path fill="currentColor" d="M476.308,166.303c-0.621,0-1.125-0.505-1.125-1.127v-3.211c0-0.622,0.504-1.126,1.125-1.126
						c0.623,0,1.127,0.504,1.127,1.126v3.211C477.435,165.798,476.931,166.303,476.308,166.303z"/>
				</g>
				<g>
					<path fill="currentColor" d="M472.226,166.303c-0.621,0-1.125-0.505-1.125-1.127v-3.211c0-0.622,0.504-1.126,1.125-1.126
						c0.623,0,1.127,0.504,1.127,1.126v3.211C473.353,165.798,472.849,166.303,472.226,166.303z"/>
				</g>
			</g>
			<g>
				<g>
					<path fill="currentColor" d="M487.581,166.303c-0.621,0-1.125-0.505-1.125-1.127v-3.211c0-0.622,0.504-1.126,1.125-1.126
						c0.623,0,1.127,0.504,1.127,1.126v3.211C488.708,165.798,488.204,166.303,487.581,166.303z"/>
				</g>
				<g>
					<path fill="currentColor" d="M483.499,166.303c-0.621,0-1.125-0.505-1.125-1.127v-3.211c0-0.622,0.504-1.126,1.125-1.126
						c0.623,0,1.127,0.504,1.127,1.126v3.211C484.626,165.798,484.122,166.303,483.499,166.303z"/>
				</g>
			</g>
			<g>
				<g>
					<path fill="currentColor" d="M465.036,166.303c-0.623,0-1.127-0.505-1.127-1.127v-3.211c0-0.622,0.504-1.126,1.127-1.126
						c0.621,0,1.125,0.504,1.125,1.126v3.211C466.161,165.798,465.657,166.303,465.036,166.303z"/>
				</g>
				<g>
					<path fill="currentColor" d="M460.954,166.303c-0.621,0-1.125-0.505-1.125-1.127v-3.211c0-0.622,0.504-1.126,1.125-1.126
						c0.623,0,1.127,0.504,1.127,1.126v3.211C462.081,165.798,461.577,166.303,460.954,166.303z"/>
				</g>
			</g>
			<g>
				<path fill="currentColor" d="M459.222,156.708c-0.621,0-1.125-0.504-1.125-1.126v-1.605c0-0.623,0.504-1.127,1.125-1.127
					c0.623,0,1.127,0.504,1.127,1.127v1.605C460.349,156.204,459.845,156.708,459.222,156.708z"/>
			</g>
			<g>
				<path fill="currentColor" d="M462.62,156.708c-0.621,0-1.125-0.504-1.125-1.126v-1.605c0-0.623,0.504-1.127,1.125-1.127
					c0.623,0,1.127,0.504,1.127,1.127v1.605C463.747,156.204,463.243,156.708,462.62,156.708z"/>
			</g>
			<g>
				<path fill="currentColor" d="M466.017,156.708c-0.621,0-1.125-0.504-1.125-1.126v-1.605c0-0.623,0.504-1.127,1.125-1.127
					c0.623,0,1.127,0.504,1.127,1.127v1.605C467.144,156.204,466.64,156.708,466.017,156.708z"/>
			</g>
			<g>
				<path fill="currentColor" d="M469.415,156.708c-0.623,0-1.127-0.504-1.127-1.126v-1.605c0-0.623,0.504-1.127,1.127-1.127
					c0.621,0,1.125,0.504,1.125,1.127v1.605C470.54,156.204,470.036,156.708,469.415,156.708z"/>
			</g>
			<g>
				<path fill="currentColor" d="M472.812,156.708c-0.623,0-1.127-0.504-1.127-1.126v-1.605c0-0.623,0.504-1.127,1.127-1.127
					c0.621,0,1.125,0.504,1.125,1.127v1.605C473.937,156.204,473.433,156.708,472.812,156.708z"/>
			</g>
			<g>
				<path fill="currentColor" d="M476.208,156.708c-0.621,0-1.125-0.504-1.125-1.126v-1.605c0-0.623,0.504-1.127,1.125-1.127
					c0.623,0,1.127,0.504,1.127,1.127v1.605C477.335,156.204,476.831,156.708,476.208,156.708z"/>
			</g>
			<g>
				<path fill="currentColor" d="M479.606,156.708c-0.623,0-1.127-0.504-1.127-1.126v-1.605c0-0.623,0.504-1.127,1.127-1.127
					c0.621,0,1.125,0.504,1.125,1.127v1.605C480.731,156.204,480.228,156.708,479.606,156.708z"/>
			</g>
			<g>
				<path fill="currentColor" d="M483.003,156.708c-0.621,0-1.125-0.504-1.125-1.126v-1.605c0-0.623,0.504-1.127,1.125-1.127
					c0.623,0,1.127,0.504,1.127,1.127v1.605C484.13,156.204,483.626,156.708,483.003,156.708z"/>
			</g>
			<g>
				<path fill="currentColor" d="M486.399,156.708c-0.623,0-1.127-0.504-1.127-1.126v-1.605c0-0.623,0.504-1.127,1.127-1.127
					c0.621,0,1.125,0.504,1.125,1.127v1.605C487.524,156.204,487.021,156.708,486.399,156.708z"/>
			</g>
			<g>
				<path fill="currentColor" d="M489.796,156.708c-0.621,0-1.125-0.504-1.125-1.126v-1.605c0-0.623,0.504-1.127,1.125-1.127
					c0.623,0,1.127,0.504,1.127,1.127v1.605C490.923,156.204,490.419,156.708,489.796,156.708z"/>
			</g>
			<g>
				<path fill="currentColor" d="M493.192,156.708c-0.621,0-1.125-0.504-1.125-1.126v-1.605c0-0.623,0.504-1.127,1.125-1.127
					c0.623,0,1.127,0.504,1.127,1.127v1.605C494.319,156.204,493.815,156.708,493.192,156.708z"/>
			</g>
			<g>
				<path fill="currentColor" d="M559.499,202.229c-0.621,0-1.125-0.505-1.125-1.127v-28.864c0-0.622,0.504-1.126,1.125-1.126
					c0.623,0,1.127,0.504,1.127,1.126v28.864C560.626,201.725,560.122,202.229,559.499,202.229z"/>
			</g>
			<g>
				<path fill="currentColor" d="M539.794,152.384c-0.105,0-0.213-0.016-0.32-0.047l-43.795-13.05c-0.596-0.179-0.936-0.806-0.758-1.402
					c0.178-0.595,0.795-0.936,1.4-0.758l43.795,13.051c0.596,0.178,0.934,0.805,0.758,1.4
					C540.728,152.067,540.28,152.384,539.794,152.384z"/>
			</g>
			<g>
				<path fill="currentColor" d="M522.802,151.287c-0.105,0-0.215-0.016-0.322-0.047l-26.801-7.986c-0.596-0.178-0.936-0.805-0.758-1.401
					c0.178-0.595,0.795-0.935,1.4-0.759l26.801,7.987c0.596,0.178,0.936,0.806,0.758,1.401
					C523.735,150.971,523.286,151.287,522.802,151.287z"/>
			</g>
			<g>
				<path fill="currentColor" d="M539.794,155.103h-43.795c-0.621,0-1.125-0.505-1.125-1.126c0-0.623,0.504-1.127,1.125-1.127h43.795
					c0.623,0,1.127,0.504,1.127,1.127C540.921,154.598,540.417,155.103,539.794,155.103z"/>
			</g>
			<g>
				<path fill="currentColor" d="M536.399,173.365c-0.623,0-1.127-0.504-1.127-1.127v-18.262c0-0.623,0.504-1.127,1.127-1.127
					c0.621,0,1.125,0.504,1.125,1.127v18.262C537.524,172.861,537.021,173.365,536.399,173.365z"/>
			</g>
			<g>
				<path fill="currentColor" d="M559.499,173.365h-25.893c-0.623,0-1.127-0.504-1.127-1.127c0-0.622,0.504-1.126,1.127-1.126h25.893
					c0.623,0,1.127,0.504,1.127,1.126C560.626,172.861,560.122,173.365,559.499,173.365z"/>
			</g>
			<g>
				<path fill="currentColor" d="M539.794,155.103c-0.621,0-1.125-0.505-1.125-1.126v-2.719c0-0.623,0.504-1.127,1.125-1.127
					c0.623,0,1.127,0.504,1.127,1.127v2.719C540.921,154.598,540.417,155.103,539.794,155.103z"/>
			</g>
			<g>
				<path fill="currentColor" d="M541.308,179.106c-0.086,0-0.172-0.01-0.258-0.03l-45.307-10.575c-0.605-0.141-0.98-0.747-0.84-1.353
					c0.143-0.607,0.752-0.984,1.352-0.84l45.307,10.574c0.605,0.142,0.982,0.747,0.84,1.354
					C542.28,178.756,541.819,179.106,541.308,179.106z"/>
			</g>
			<g>
				<path fill="currentColor" d="M519.772,178.008c-0.086,0-0.172-0.01-0.258-0.029l-23.771-5.551c-0.605-0.141-0.98-0.747-0.84-1.353
					c0.143-0.606,0.746-0.989,1.352-0.841l23.771,5.551c0.605,0.141,0.982,0.746,0.84,1.353
					C520.745,177.657,520.282,178.008,519.772,178.008z"/>
			</g>
			<g>
				<path fill="currentColor" d="M541.306,181.045c-0.621,0-1.125-0.505-1.125-1.127v-1.938c0-0.623,0.504-1.127,1.125-1.127
					c0.623,0,1.127,0.504,1.127,1.127v1.938C542.433,180.54,541.929,181.045,541.306,181.045z"/>
			</g>
			<g>
				<path fill="currentColor" d="M541.306,181.675h-45.307c-0.621,0-1.125-0.505-1.125-1.127s0.504-1.126,1.125-1.126h45.307
					c0.623,0,1.127,0.504,1.127,1.126S541.929,181.675,541.306,181.675z"/>
			</g>
			<g>
				<path fill="currentColor" d="M539.493,185.658c-0.621,0-1.125-0.504-1.125-1.126v-3.984c0-0.622,0.504-1.126,1.125-1.126
					c0.623,0,1.127,0.504,1.127,1.126v3.984C540.62,185.154,540.116,185.658,539.493,185.658z"/>
			</g>
			<g>
				<path fill="currentColor" d="M539.493,185.658h-43.494c-0.621,0-1.125-0.504-1.125-1.126s0.504-1.126,1.125-1.126h43.494
					c0.623,0,1.127,0.504,1.127,1.126S540.116,185.658,539.493,185.658z"/>
			</g>
			<g>
				<path fill="currentColor" d="M559.499,181.675h-12.945c-0.623,0-1.127-0.505-1.127-1.127s0.504-1.126,1.127-1.126h12.945
					c0.623,0,1.127,0.504,1.127,1.126S560.122,181.675,559.499,181.675z"/>
			</g>
			<g>
				<path fill="currentColor" d="M559.499,185.658h-10.041c-0.621,0-1.125-0.504-1.125-1.126s0.504-1.126,1.125-1.126h10.041
					c0.623,0,1.127,0.504,1.127,1.126S560.122,185.658,559.499,185.658z"/>
			</g>
			<g>
				<path fill="currentColor" d="M537.833,196.81c-0.621,0-1.125-0.504-1.125-1.126v-11.151c0-0.622,0.504-1.126,1.125-1.126
					c0.623,0,1.127,0.504,1.127,1.126v11.151C538.96,196.306,538.456,196.81,537.833,196.81z"/>
			</g>
			<g>
				<path fill="currentColor" d="M525.88,196.035c-0.621,0-1.125-0.505-1.125-1.127v-10.376c0-0.622,0.504-1.126,1.125-1.126
					c0.623,0,1.127,0.504,1.127,1.126v10.376C527.007,195.53,526.503,196.035,525.88,196.035z"/>
			</g>
			<g>
				<path fill="currentColor" d="M513.929,190.262c-0.623,0-1.127-0.504-1.127-1.126v-4.604c0-0.622,0.504-1.126,1.127-1.126
					c0.621,0,1.125,0.504,1.125,1.126v4.604C515.054,189.758,514.55,190.262,513.929,190.262z"/>
			</g>
			<g>
				<path fill="currentColor" d="M501.976,190.262c-0.623,0-1.127-0.504-1.127-1.126v-4.604c0-0.622,0.504-1.126,1.127-1.126
					c0.621,0,1.125,0.504,1.125,1.126v4.604C503.101,189.758,502.597,190.262,501.976,190.262z"/>
			</g>
			<g>
				<path fill="currentColor" d="M553.026,197.389c-0.574,0-1.063-0.437-1.119-1.019c-0.174-1.79-1.66-3.142-3.459-3.142
					c-1.797,0-3.283,1.35-3.455,3.141c-0.059,0.619-0.611,1.086-1.227,1.014c-0.619-0.061-1.072-0.61-1.014-1.229
					c0.283-2.951,2.732-5.179,5.695-5.179s5.412,2.228,5.699,5.177c0.061,0.619-0.393,1.17-1.012,1.23
					C553.099,197.387,553.062,197.389,553.026,197.389z"/>
			</g>
			<g>
				<g>
					<path fill="currentColor" d="M515.688,166.303c-0.621,0-1.125-0.505-1.125-1.127v-3.211c0-0.622,0.504-1.126,1.125-1.126
						c0.623,0,1.127,0.504,1.127,1.126v3.211C516.815,165.798,516.312,166.303,515.688,166.303z"/>
				</g>
				<g>
					<path fill="currentColor" d="M519.771,166.303c-0.621,0-1.125-0.505-1.125-1.127v-3.211c0-0.622,0.504-1.126,1.125-1.126
						c0.623,0,1.127,0.504,1.127,1.126v3.211C520.897,165.798,520.394,166.303,519.771,166.303z"/>
				</g>
			</g>
			<g>
				<g>
					<path fill="currentColor" d="M504.415,166.303c-0.621,0-1.125-0.505-1.125-1.127v-3.211c0-0.622,0.504-1.126,1.125-1.126
						c0.623,0,1.127,0.504,1.127,1.126v3.211C505.542,165.798,505.038,166.303,504.415,166.303z"/>
				</g>
				<g>
					<path fill="currentColor" d="M508.499,166.303c-0.623,0-1.127-0.505-1.127-1.127v-3.211c0-0.622,0.504-1.126,1.127-1.126
						c0.621,0,1.125,0.504,1.125,1.126v3.211C509.624,165.798,509.12,166.303,508.499,166.303z"/>
				</g>
			</g>
			<g>
				<g>
					<path fill="currentColor" d="M526.962,166.303c-0.621,0-1.125-0.505-1.125-1.127v-3.211c0-0.622,0.504-1.126,1.125-1.126
						c0.623,0,1.127,0.504,1.127,1.126v3.211C528.089,165.798,527.585,166.303,526.962,166.303z"/>
				</g>
				<g>
					<path fill="currentColor" d="M531.046,166.303c-0.623,0-1.127-0.505-1.127-1.127v-3.211c0-0.622,0.504-1.126,1.127-1.126
						c0.621,0,1.125,0.504,1.125,1.126v3.211C532.171,165.798,531.667,166.303,531.046,166.303z"/>
				</g>
			</g>
			<g>
				<path fill="currentColor" d="M532.776,156.708c-0.623,0-1.127-0.504-1.127-1.126v-1.605c0-0.623,0.504-1.127,1.127-1.127
					c0.621,0,1.125,0.504,1.125,1.127v1.605C533.901,156.204,533.397,156.708,532.776,156.708z"/>
			</g>
			<g>
				<path fill="currentColor" d="M529.378,156.708c-0.621,0-1.125-0.504-1.125-1.126v-1.605c0-0.623,0.504-1.127,1.125-1.127
					c0.623,0,1.127,0.504,1.127,1.127v1.605C530.505,156.204,530.001,156.708,529.378,156.708z"/>
			</g>
			<g>
				<path fill="currentColor" d="M525.981,156.708c-0.621,0-1.125-0.504-1.125-1.126v-1.605c0-0.623,0.504-1.127,1.125-1.127
					c0.623,0,1.127,0.504,1.127,1.127v1.605C527.108,156.204,526.604,156.708,525.981,156.708z"/>
			</g>
			<g>
				<path fill="currentColor" d="M522.583,156.708c-0.621,0-1.125-0.504-1.125-1.126v-1.605c0-0.623,0.504-1.127,1.125-1.127
					c0.623,0,1.127,0.504,1.127,1.127v1.605C523.71,156.204,523.206,156.708,522.583,156.708z"/>
			</g>
			<g>
				<path fill="currentColor" d="M519.188,156.708c-0.623,0-1.127-0.504-1.127-1.126v-1.605c0-0.623,0.504-1.127,1.127-1.127
					c0.621,0,1.125,0.504,1.125,1.127v1.605C520.313,156.204,519.81,156.708,519.188,156.708z"/>
			</g>
			<g>
				<path fill="currentColor" d="M515.79,156.708c-0.621,0-1.125-0.504-1.125-1.126v-1.605c0-0.623,0.504-1.127,1.125-1.127
					c0.623,0,1.127,0.504,1.127,1.127v1.605C516.917,156.204,516.413,156.708,515.79,156.708z"/>
			</g>
			<g>
				<path fill="currentColor" d="M512.394,156.708c-0.621,0-1.125-0.504-1.125-1.126v-1.605c0-0.623,0.504-1.127,1.125-1.127
					c0.623,0,1.127,0.504,1.127,1.127v1.605C513.521,156.204,513.017,156.708,512.394,156.708z"/>
			</g>
			<g>
				<path fill="currentColor" d="M508.995,156.708c-0.621,0-1.125-0.504-1.125-1.126v-1.605c0-0.623,0.504-1.127,1.125-1.127
					c0.623,0,1.127,0.504,1.127,1.127v1.605C510.122,156.204,509.618,156.708,508.995,156.708z"/>
			</g>
			<g>
				<path fill="currentColor" d="M505.599,156.708c-0.623,0-1.127-0.504-1.127-1.126v-1.605c0-0.623,0.504-1.127,1.127-1.127
					c0.621,0,1.125,0.504,1.125,1.127v1.605C506.724,156.204,506.22,156.708,505.599,156.708z"/>
			</g>
			<g>
				<path fill="currentColor" d="M502.2,156.708c-0.621,0-1.125-0.504-1.125-1.126v-1.605c0-0.623,0.504-1.127,1.125-1.127
					c0.623,0,1.127,0.504,1.127,1.127v1.605C503.327,156.204,502.823,156.708,502.2,156.708z"/>
			</g>
			<g>
				<path fill="currentColor" d="M498.804,156.708c-0.623,0-1.127-0.504-1.127-1.126v-1.605c0-0.623,0.504-1.127,1.127-1.127
					c0.621,0,1.125,0.504,1.125,1.127v1.605C499.929,156.204,499.425,156.708,498.804,156.708z"/>
			</g>
		</g>
	</g>
	<g>
		<g>
			<path fill="currentColor" d="M381.359,195.607h-13.904c-0.621,0-1.125-0.504-1.125-1.127c0-0.622,0.504-1.126,1.125-1.126h13.904
				c0.621,0,1.125,0.504,1.125,1.126C382.484,195.104,381.98,195.607,381.359,195.607z"/>
		</g>
		<g>
			<path fill="currentColor" d="M382.684,214.432h-16.553c-0.623,0-1.127-0.504-1.127-1.127c0-0.622,0.504-1.127,1.127-1.127h16.553
				c0.623,0,1.127,0.505,1.127,1.127C383.811,213.928,383.307,214.432,382.684,214.432z"/>
		</g>
		<g>
			<path fill="currentColor" d="M370.18,220.93c-0.621,0-1.125-0.505-1.125-1.127v-0.952c0-0.622,0.504-1.127,1.125-1.127
				c0.623,0,1.127,0.505,1.127,1.127v0.952C371.307,220.425,370.803,220.93,370.18,220.93z"/>
		</g>
		<g>
			<path fill="currentColor" d="M372.645,223.768c-0.623,0-1.127-0.504-1.127-1.127v-0.522c0-0.622,0.504-1.126,1.127-1.126
				c0.621,0,1.125,0.504,1.125,1.126v0.522C373.77,223.264,373.266,223.768,372.645,223.768z"/>
		</g>
		<g>
			<path fill="currentColor" d="M369.023,225.328c-0.621,0-1.125-0.505-1.125-1.127v-0.365c0-0.622,0.504-1.127,1.125-1.127
				c0.623,0,1.127,0.505,1.127,1.127v0.365C370.15,224.823,369.646,225.328,369.023,225.328z"/>
		</g>
		<g>
			<path fill="currentColor" d="M372.121,228.848c-0.621,0-1.125-0.504-1.125-1.127v-0.598c0-0.623,0.504-1.127,1.125-1.127
				c0.623,0,1.127,0.504,1.127,1.127v0.598C373.248,228.344,372.744,228.848,372.121,228.848z"/>
		</g>
		<g>
			<path fill="currentColor" d="M367.455,229.893c-0.621,0-1.125-0.504-1.125-1.127v-0.673c0-0.622,0.504-1.126,1.125-1.126
				c0.623,0,1.127,0.504,1.127,1.126v0.673C368.582,229.389,368.078,229.893,367.455,229.893z"/>
		</g>
		<g>
			<path fill="currentColor" d="M378.633,220.93c-0.621,0-1.125-0.505-1.125-1.127v-0.952c0-0.622,0.504-1.127,1.125-1.127
				c0.623,0,1.127,0.505,1.127,1.127v0.952C379.76,220.425,379.256,220.93,378.633,220.93z"/>
		</g>
		<g>
			<path fill="currentColor" d="M376.17,223.768c-0.621,0-1.125-0.504-1.125-1.127v-0.522c0-0.622,0.504-1.126,1.125-1.126
				c0.623,0,1.127,0.504,1.127,1.126v0.522C377.297,223.264,376.793,223.768,376.17,223.768z"/>
		</g>
		<g>
			<path fill="currentColor" d="M376.693,228.848c-0.621,0-1.125-0.504-1.125-1.127v-0.598c0-0.623,0.504-1.127,1.125-1.127
				c0.623,0,1.127,0.504,1.127,1.127v0.598C377.82,228.344,377.316,228.848,376.693,228.848z"/>
		</g>
		<g>
			<g>
				<polygon fill="currentColor" points="317.52,243.873 319.771,243.873 319.771,189.532 359.613,189.532 359.613,222.604 
					361.865,222.604 361.865,187.279 317.52,187.279 				"/>
			</g>
			<g>
				<polygon fill="currentColor" points="339.191,243.873 341.443,243.873 341.443,233.217 350.027,233.217 350.027,243.873 
					352.279,243.873 352.279,230.965 339.191,230.965 				"/>
			</g>
			<g>
				<path fill="currentColor" d="M374.408,88.048h-4.154c-0.621,0-1.125-0.505-1.125-1.127s0.504-1.126,1.125-1.126h4.154
					c0.623,0,1.127,0.504,1.127,1.126S375.031,88.048,374.408,88.048z"/>
			</g>
			<g>
				<path fill="currentColor" d="M370.254,88.048c-0.621,0-1.125-0.505-1.125-1.127v-3.473c0-0.622,0.504-1.127,1.125-1.127
					c0.623,0,1.127,0.505,1.127,1.127v3.473C371.381,87.543,370.877,88.048,370.254,88.048z"/>
			</g>
			<g>
				<path fill="currentColor" d="M370.254,84.574h-1.23c-0.621,0-1.125-0.504-1.125-1.126s0.504-1.127,1.125-1.127h1.23
					c0.623,0,1.127,0.505,1.127,1.127S370.877,84.574,370.254,84.574z"/>
			</g>
			<g>
				<path fill="currentColor" d="M369.023,84.574c-0.621,0-1.125-0.504-1.125-1.126V72.691c0-0.622,0.504-1.126,1.125-1.126
					c0.623,0,1.127,0.504,1.127,1.126v10.757C370.15,84.07,369.646,84.574,369.023,84.574z"/>
			</g>
			<g>
				<path fill="currentColor" d="M374.408,73.818h-5.385c-0.621,0-1.125-0.504-1.125-1.127c0-0.622,0.504-1.126,1.125-1.126h5.385
					c0.623,0,1.127,0.504,1.127,1.126C375.535,73.314,375.031,73.818,374.408,73.818z"/>
			</g>
			<g>
				<path fill="currentColor" d="M371.715,73.818c-0.621,0-1.125-0.504-1.125-1.127v-7.955c0-0.623,0.504-1.127,1.125-1.127
					c0.623,0,1.127,0.504,1.127,1.127v7.955C372.842,73.314,372.338,73.818,371.715,73.818z"/>
			</g>
			<g>
				<path fill="currentColor" d="M374.408,65.863h-2.693c-0.621,0-1.125-0.504-1.125-1.127s0.504-1.127,1.125-1.127h2.693
					c0.623,0,1.127,0.504,1.127,1.127S375.031,65.863,374.408,65.863z"/>
			</g>
			<g>
				<path fill="currentColor" d="M371.264,114.789c-0.623,0-1.127-0.504-1.127-1.127V86.921c0-0.622,0.504-1.126,1.127-1.126
					c0.621,0,1.125,0.504,1.125,1.126v26.741C372.389,114.285,371.885,114.789,371.264,114.789z"/>
			</g>
			<g>
				<path fill="currentColor" d="M374.408,114.789h-4.77c-0.621,0-1.125-0.504-1.125-1.127s0.504-1.127,1.125-1.127h4.77
					c0.623,0,1.127,0.504,1.127,1.127S375.031,114.789,374.408,114.789z"/>
			</g>
			<g>
				<path fill="currentColor" d="M369.639,121.771c-0.621,0-1.125-0.504-1.125-1.126v-6.983c0-0.623,0.504-1.127,1.125-1.127
					c0.623,0,1.127,0.504,1.127,1.127v6.983C370.766,121.268,370.262,121.771,369.639,121.771z"/>
			</g>
			<g>
				<path fill="currentColor" d="M374.408,121.771h-4.77c-0.621,0-1.125-0.504-1.125-1.126s0.504-1.127,1.125-1.127h4.77
					c0.623,0,1.127,0.505,1.127,1.127S375.031,121.771,374.408,121.771z"/>
			</g>
			<g>
				<path fill="currentColor" d="M370.143,161.658c-0.006,0-0.012,0-0.018,0c-0.623-0.01-1.117-0.523-1.107-1.145l0.672-39.887
					c0.01-0.615,0.512-1.108,1.125-1.108c0.006,0,0.014,0.001,0.02,0.001c0.621,0.01,1.117,0.523,1.105,1.145l-0.672,39.887
					C371.258,161.166,370.756,161.658,370.143,161.658z"/>
			</g>
			<g>
				<path fill="currentColor" d="M374.408,161.658h-6.953c-0.621,0-1.125-0.504-1.125-1.127c0-0.621,0.504-1.125,1.125-1.125h6.953
					c0.623,0,1.127,0.504,1.127,1.125C375.535,161.154,375.031,161.658,374.408,161.658z"/>
			</g>
			<g>
				<path fill="currentColor" d="M367.455,175.703c-0.621,0-1.125-0.504-1.125-1.127v-14.045c0-0.621,0.504-1.125,1.125-1.125
					c0.623,0,1.127,0.504,1.127,1.125v14.045C368.582,175.199,368.078,175.703,367.455,175.703z"/>
			</g>
			<g>
				<path fill="currentColor" d="M374.408,175.703h-6.953c-0.621,0-1.125-0.504-1.125-1.127s0.504-1.127,1.125-1.127h6.953
					c0.623,0,1.127,0.504,1.127,1.127S375.031,175.703,374.408,175.703z"/>
			</g>
			<g>
				<path fill="currentColor" d="M368.689,205.654c-0.01,0-0.018-0.001-0.027-0.001c-0.621-0.014-1.113-0.528-1.1-1.151l0.672-29.951
					c0.014-0.621,0.563-1.119,1.15-1.1c0.621,0.014,1.113,0.527,1.1,1.15l-0.672,29.951
					C369.799,205.166,369.299,205.654,368.689,205.654z"/>
			</g>
			<g>
				<path fill="currentColor" d="M354.58,245c-0.24,0-0.48-0.076-0.686-0.234c-0.492-0.379-0.586-1.086-0.205-1.578
					c8.607-11.198,13.406-24.579,13.873-38.697c0.021-0.621,0.564-1.078,1.162-1.088c0.621,0.02,1.109,0.541,1.088,1.162
					c-0.482,14.592-5.441,28.422-14.34,39.996C355.25,244.85,354.918,245,354.58,245z"/>
			</g>
			<g>
				<path fill="currentColor" d="M378.559,88.048h-4.15c-0.621,0-1.125-0.505-1.125-1.127s0.504-1.126,1.125-1.126h4.15
					c0.623,0,1.127,0.504,1.127,1.126S379.182,88.048,378.559,88.048z"/>
			</g>
			<g>
				<path fill="currentColor" d="M378.559,88.048c-0.621,0-1.125-0.505-1.125-1.127v-3.473c0-0.622,0.504-1.127,1.125-1.127
					c0.623,0,1.127,0.505,1.127,1.127v3.473C379.686,87.543,379.182,88.048,378.559,88.048z"/>
			</g>
			<g>
				<path fill="currentColor" d="M379.791,84.574h-1.232c-0.621,0-1.125-0.504-1.125-1.126s0.504-1.127,1.125-1.127h1.232
					c0.623,0,1.127,0.505,1.127,1.127S380.414,84.574,379.791,84.574z"/>
			</g>
			<g>
				<path fill="currentColor" d="M379.791,84.574c-0.621,0-1.125-0.504-1.125-1.126V72.691c0-0.622,0.504-1.126,1.125-1.126
					c0.623,0,1.127,0.504,1.127,1.126v10.757C380.918,84.07,380.414,84.574,379.791,84.574z"/>
			</g>
			<g>
				<path fill="currentColor" d="M379.791,73.818h-5.383c-0.621,0-1.125-0.504-1.125-1.127c0-0.622,0.504-1.126,1.125-1.126h5.383
					c0.623,0,1.127,0.504,1.127,1.126C380.918,73.314,380.414,73.818,379.791,73.818z"/>
			</g>
			<g>
				<path fill="currentColor" d="M377.1,73.818c-0.621,0-1.125-0.504-1.125-1.127v-7.955c0-0.623,0.504-1.127,1.125-1.127
					c0.623,0,1.127,0.504,1.127,1.127v7.955C378.227,73.314,377.723,73.818,377.1,73.818z"/>
			</g>
			<g>
				<path fill="currentColor" d="M377.1,65.863h-2.691c-0.621,0-1.125-0.504-1.125-1.127s0.504-1.127,1.125-1.127h2.691
					c0.623,0,1.127,0.504,1.127,1.127S377.723,65.863,377.1,65.863z"/>
			</g>
			<g>
				<path fill="currentColor" d="M377.551,114.789c-0.621,0-1.125-0.504-1.125-1.127V86.921c0-0.622,0.504-1.126,1.125-1.126
					c0.623,0,1.127,0.504,1.127,1.126v26.741C378.678,114.285,378.174,114.789,377.551,114.789z"/>
			</g>
			<g>
				<path fill="currentColor" d="M379.176,114.789h-4.768c-0.621,0-1.125-0.504-1.125-1.127s0.504-1.127,1.125-1.127h4.768
					c0.623,0,1.127,0.504,1.127,1.127S379.799,114.789,379.176,114.789z"/>
			</g>
			<g>
				<path fill="currentColor" d="M379.176,121.771c-0.621,0-1.125-0.504-1.125-1.126v-6.983c0-0.623,0.504-1.127,1.125-1.127
					c0.623,0,1.127,0.504,1.127,1.127v6.983C380.303,121.268,379.799,121.771,379.176,121.771z"/>
			</g>
			<g>
				<path fill="currentColor" d="M379.176,121.771h-4.768c-0.621,0-1.125-0.504-1.125-1.126s0.504-1.127,1.125-1.127h4.768
					c0.623,0,1.127,0.505,1.127,1.127S379.799,121.771,379.176,121.771z"/>
			</g>
			<g>
				<path fill="currentColor" d="M378.672,161.658c-0.613,0-1.115-0.492-1.125-1.107l-0.672-39.887c-0.01-0.621,0.484-1.135,1.107-1.145
					c0.006,0,0.012-0.001,0.018-0.001c0.613,0,1.115,0.493,1.125,1.108l0.672,39.887c0.01,0.621-0.484,1.135-1.107,1.145
					C378.684,161.658,378.678,161.658,378.672,161.658z"/>
			</g>
			<g>
				<path fill="currentColor" d="M381.359,161.658h-6.951c-0.621,0-1.125-0.504-1.125-1.127c0-0.621,0.504-1.125,1.125-1.125h6.951
					c0.621,0,1.125,0.504,1.125,1.125C382.484,161.154,381.98,161.658,381.359,161.658z"/>
			</g>
			<g>
				<path fill="currentColor" d="M381.359,175.703c-0.623,0-1.127-0.504-1.127-1.127v-14.045c0-0.621,0.504-1.125,1.127-1.125
					c0.621,0,1.125,0.504,1.125,1.125v14.045C382.484,175.199,381.98,175.703,381.359,175.703z"/>
			</g>
			<g>
				<path fill="currentColor" d="M381.359,175.703h-6.951c-0.621,0-1.125-0.504-1.125-1.127s0.504-1.127,1.125-1.127h6.951
					c0.621,0,1.125,0.504,1.125,1.127S381.98,175.703,381.359,175.703z"/>
			</g>
			<g>
				<path fill="currentColor" d="M380.127,205.654c-0.609,0-1.111-0.488-1.125-1.102l-0.672-29.951c-0.016-0.621,0.479-1.137,1.1-1.15
					c0.639-0.012,1.137,0.479,1.15,1.1l0.672,29.951c0.016,0.621-0.479,1.138-1.1,1.151
					C380.145,205.653,380.135,205.654,380.127,205.654z"/>
			</g>
			<g>
				<path fill="currentColor" d="M374.408,65.863c-0.621,0-1.125-0.504-1.125-1.127V23.729c0-0.622,0.504-1.126,1.125-1.126
					c0.623,0,1.127,0.504,1.127,1.126v41.008C375.535,65.359,375.031,65.863,374.408,65.863z"/>
			</g>
			<g>
				<path fill="currentColor" d="M379.959,138.579h-11.104c-0.621,0-1.125-0.505-1.125-1.127s0.504-1.126,1.125-1.126h11.104
					c0.623,0,1.127,0.504,1.127,1.126S380.582,138.579,379.959,138.579z"/>
			</g>
			<g>
				<path fill="currentColor" d="M380.406,143.246h-11.998c-0.623,0-1.127-0.504-1.127-1.127c0-0.622,0.504-1.127,1.127-1.127h11.998
					c0.623,0,1.127,0.505,1.127,1.127C381.533,142.742,381.029,143.246,380.406,143.246z"/>
			</g>
			<g>
				<path fill="currentColor" d="M379.176,95.442h-9.537c-0.621,0-1.125-0.505-1.125-1.127s0.504-1.126,1.125-1.126h9.537
					c0.623,0,1.127,0.504,1.127,1.126S379.799,95.442,379.176,95.442z"/>
			</g>
			<g>
				<path fill="currentColor" d="M379.176,102.391h-9.537c-0.621,0-1.125-0.505-1.125-1.127c0-0.621,0.504-1.127,1.125-1.127h9.537
					c0.623,0,1.127,0.506,1.127,1.127C380.303,101.886,379.799,102.391,379.176,102.391z"/>
			</g>
			<g>
				<path fill="currentColor" d="M379.176,108.813h-9.537c-0.621,0-1.125-0.504-1.125-1.127s0.504-1.127,1.125-1.127h9.537
					c0.623,0,1.127,0.504,1.127,1.127S379.799,108.813,379.176,108.813z"/>
			</g>
			<g>
				<path fill="currentColor" d="M375.754,55.332h-2.691c-0.623,0-1.127-0.504-1.127-1.127s0.504-1.127,1.127-1.127h2.691
					c0.621,0,1.125,0.504,1.125,1.127S376.375,55.332,375.754,55.332z"/>
			</g>
			<g>
				<path fill="currentColor" d="M375.754,44.948h-2.691c-0.623,0-1.127-0.505-1.127-1.127s0.504-1.126,1.127-1.126h2.691
					c0.621,0,1.125,0.504,1.125,1.126S376.375,44.948,375.754,44.948z"/>
			</g>
			<g>
				<path fill="currentColor" d="M375.754,37.404h-2.691c-0.623,0-1.127-0.504-1.127-1.126s0.504-1.127,1.127-1.127h2.691
					c0.621,0,1.125,0.505,1.125,1.127S376.375,37.404,375.754,37.404z"/>
			</g>
			<g>
				<path fill="currentColor" d="M383.467,167.149h-18.119c-0.621,0-1.125-0.504-1.125-1.126c0-0.623,0.504-1.127,1.125-1.127h18.119
					c0.623,0,1.127,0.504,1.127,1.127C384.594,166.646,384.09,167.149,383.467,167.149z"/>
			</g>
			<g>
				<path fill="currentColor" d="M383.467,170.734h-18.119c-0.621,0-1.125-0.504-1.125-1.126s0.504-1.127,1.125-1.127h18.119
					c0.623,0,1.127,0.505,1.127,1.127S384.09,170.734,383.467,170.734z"/>
			</g>
			<g>
				<path fill="currentColor" d="M367.455,245c-0.164,0-0.332-0.035-0.49-0.113c-0.559-0.27-0.793-0.943-0.521-1.504
					c1.615-3.34,2.752-6.889,3.379-10.549c0.105-0.613,0.682-1.02,1.301-0.92c0.611,0.105,1.023,0.687,0.918,1.301
					c-0.662,3.867-1.865,7.619-3.572,11.149C368.273,244.766,367.873,245,367.455,245z"/>
			</g>
			<g>
				<polygon fill="currentColor" points="359.352,227.692 359.352,225.439 353.945,225.439 353.945,219.6 346.027,219.6 346.027,213.345 
					325.438,213.345 325.438,243.873 327.689,243.873 327.689,215.598 343.775,215.598 343.775,221.854 351.693,221.854 
					351.693,227.692 				"/>
			</g>
		</g>
	</g>
	<g>
		<g>
			<polygon fill="currentColor" points="832.871,243.874 830.621,243.874 830.621,221.854 817.492,221.854 817.492,207.467 
				787.861,207.467 787.861,215.098 785.609,215.098 785.609,205.214 819.744,205.214 819.744,219.602 832.871,219.602 			"/>
		</g>
		<g>
			<rect x="794.273" y="214.681" fill="currentColor" width="3.297" height="29.193"/>
		</g>
		<g>
			<rect x="802.154" y="214.681" fill="currentColor" width="3.299" height="29.193"/>
		</g>
		<g>
			<rect x="810.037" y="214.681" fill="currentColor" width="3.299" height="29.193"/>
		</g>
		<g>
			<polygon fill="currentColor" points="851.14,243.871 848.888,243.871 848.888,210.382 832.8,210.382 832.8,216.762 830.55,216.762 
				830.55,208.129 851.14,208.129 			"/>
		</g>
		<g>
			<polygon fill="currentColor" points="860.214,243.874 862.464,243.874 862.464,174.103 896.056,174.103 896.056,233.324 
				910.226,233.324 910.226,243.874 912.476,243.874 912.476,231.07 898.306,231.07 898.306,171.85 860.214,171.85 			"/>
		</g>
		<g>
			<polygon fill="currentColor" points="983.996,243.874 986.246,243.874 986.246,232.321 959.99,232.321 959.99,218.56 923.314,218.56 
				923.314,157.67 867.298,157.67 867.298,168.389 869.55,168.389 869.55,159.924 921.062,159.924 921.062,220.813 957.738,220.813 
				957.738,234.574 983.996,234.574 			"/>
		</g>
		<g>
			<polygon fill="currentColor" points="916.894,243.874 919.144,243.874 919.144,232.906 939.816,232.906 939.816,243.874 
				942.068,243.874 942.068,230.653 916.894,230.653 			"/>
		</g>
		<g>
			<rect x="877.593" y="152.666" fill="currentColor" width="42.094" height="2.252"/>
		</g>
		<g>
			<rect x="878.427" y="179.23" fill="currentColor" width="2.707" height="4.172"/>
		</g>
		<g>
			<rect x="872.382" y="179.23" fill="currentColor" width="2.711" height="4.172"/>
		</g>
		<g>
			<rect x="866.341" y="179.23" fill="currentColor" width="2.707" height="4.172"/>
		</g>
		<g>
			<rect x="878.427" y="186.738" fill="currentColor" width="2.707" height="4.171"/>
		</g>
		<g>
			<rect x="872.382" y="186.738" fill="currentColor" width="2.711" height="4.171"/>
		</g>
		<g>
			<rect x="866.341" y="186.738" fill="currentColor" width="2.707" height="4.171"/>
		</g>
		<g>
			<rect x="878.427" y="194.244" fill="currentColor" width="2.707" height="4.172"/>
		</g>
		<g>
			<rect x="872.382" y="194.244" fill="currentColor" width="2.711" height="4.172"/>
		</g>
		<g>
			<rect x="866.341" y="194.244" fill="currentColor" width="2.707" height="4.172"/>
		</g>
		<g>
			<rect x="878.427" y="201.752" fill="currentColor" width="2.707" height="4.171"/>
		</g>
		<g>
			<rect x="872.382" y="201.752" fill="currentColor" width="2.711" height="4.171"/>
		</g>
		<g>
			<rect x="866.341" y="201.752" fill="currentColor" width="2.707" height="4.171"/>
		</g>
		<g>
			<rect x="878.427" y="209.258" fill="currentColor" width="2.707" height="4.172"/>
		</g>
		<g>
			<rect x="872.382" y="209.258" fill="currentColor" width="2.711" height="4.172"/>
		</g>
		<g>
			<rect x="866.341" y="209.258" fill="currentColor" width="2.707" height="4.172"/>
		</g>
		<g>
			<rect x="878.427" y="216.766" fill="currentColor" width="2.707" height="4.172"/>
		</g>
		<g>
			<rect x="872.382" y="216.766" fill="currentColor" width="2.711" height="4.172"/>
		</g>
		<g>
			<rect x="866.341" y="216.766" fill="currentColor" width="2.707" height="4.172"/>
		</g>
		<g>
			<polygon fill="currentColor" points="944.402,215.098 946.652,215.098 946.652,146.826 918.019,146.826 918.019,149.079 
				944.402,149.079 			"/>
		</g>
		<g>
			<rect x="935.523" y="153.792" fill="currentColor" width="2.918" height="9.175"/>
		</g>
		<g>
			<rect x="935.523" y="169.931" fill="currentColor" width="2.918" height="9.175"/>
		</g>
		<g>
			<rect x="935.523" y="186.07" fill="currentColor" width="2.918" height="9.174"/>
		</g>
		<g>
			<rect x="935.523" y="202.209" fill="currentColor" width="2.918" height="9.175"/>
		</g>
		<g>
			<rect x="875.25" y="162.967" fill="currentColor" width="42.77" height="5.004"/>
		</g>
		<g>
			<rect x="908.591" y="172.85" fill="currentColor" width="9.428" height="5.004"/>
		</g>
		<g>
			<rect x="908.591" y="182.732" fill="currentColor" width="9.428" height="5.005"/>
		</g>
		<g>
			<rect x="908.591" y="192.617" fill="currentColor" width="9.428" height="5.004"/>
		</g>
		<g>
			<rect x="908.591" y="202.5" fill="currentColor" width="9.428" height="5.004"/>
		</g>
		<g>
			<rect x="908.591" y="212.383" fill="currentColor" width="9.428" height="5.005"/>
		</g>
		<g>
			<path fill="currentColor" d="M847.339,199.059c-0.623,0-1.127-0.504-1.127-1.127c0-6.738,3.652-12.97,9.527-16.261
				c0.541-0.304,1.229-0.11,1.533,0.433c0.303,0.543,0.109,1.229-0.434,1.533c-5.166,2.893-8.375,8.37-8.375,14.295
				C848.464,198.555,847.96,199.059,847.339,199.059z"/>
		</g>
		<g>
			<path fill="currentColor" d="M856.291,183.781c-0.391,0-0.773-0.206-0.98-0.572c-0.307-0.541-0.115-1.229,0.426-1.535
				c1.813-1.028,3.418-2.465,4.643-4.158c0.365-0.502,1.068-0.615,1.572-0.251s0.615,1.069,0.25,1.572
				c-1.412,1.952-3.264,3.61-5.355,4.797C856.669,183.732,856.48,183.781,856.291,183.781z"/>
		</g>
		<g>
			<path fill="currentColor" d="M830.755,199.059c-0.623,0-1.127-0.504-1.127-1.127c0-3.83,2.275-7.363,5.938-9.221
				c0.557-0.285,1.232-0.059,1.514,0.495c0.281,0.556,0.059,1.232-0.496,1.514c-2.9,1.472-4.703,4.235-4.703,7.212
				C831.88,198.555,831.376,199.059,830.755,199.059z"/>
		</g>
		<g>
			<path fill="currentColor" d="M836.076,190.842c-0.408,0-0.803-0.224-1.002-0.613c-0.283-0.553-0.064-1.231,0.488-1.516
				c1.02-0.523,1.922-1.252,2.607-2.109c0.389-0.485,1.096-0.564,1.582-0.176c0.484,0.389,0.563,1.099,0.176,1.583
				c-0.896,1.12-2.02,2.03-3.338,2.707C836.423,190.802,836.25,190.842,836.076,190.842z"/>
		</g>
		<g>
			<path fill="currentColor" d="M847.339,199.059c-0.623,0-1.127-0.504-1.127-1.127c0-2.978-1.801-5.74-4.701-7.212
				c-0.555-0.281-0.775-0.958-0.494-1.514c0.281-0.554,0.957-0.78,1.512-0.495c3.662,1.857,5.936,5.391,5.936,9.221
				C848.464,198.555,847.96,199.059,847.339,199.059z"/>
		</g>
		<g>
			<path fill="currentColor" d="M842.019,190.842c-0.172,0-0.348-0.04-0.512-0.124c-1.32-0.677-2.443-1.588-3.338-2.707
				c-0.389-0.485-0.311-1.194,0.176-1.583s1.193-0.309,1.582,0.176c0.684,0.857,1.586,1.586,2.605,2.109
				c0.555,0.283,0.773,0.963,0.49,1.516C842.824,190.618,842.429,190.842,842.019,190.842z"/>
		</g>
		<g>
			<g>
				<path fill="currentColor" d="M813.734,199.059c-0.623,0-1.127-0.504-1.127-1.127c0-3.836,2.334-7.37,6.088-9.227
					c0.559-0.273,1.232-0.045,1.508,0.512s0.047,1.232-0.512,1.508c-2.98,1.474-4.832,4.235-4.832,7.207
					C814.859,198.555,814.355,199.059,813.734,199.059z"/>
			</g>
			<g>
				<path fill="currentColor" d="M819.195,190.842c-0.414,0-0.813-0.229-1.008-0.625c-0.277-0.555-0.053-1.231,0.504-1.51
					c1.051-0.523,1.979-1.255,2.686-2.115c0.391-0.48,1.1-0.553,1.584-0.154c0.479,0.395,0.549,1.104,0.154,1.585
					c-0.918,1.118-2.068,2.026-3.42,2.7C819.535,190.804,819.363,190.842,819.195,190.842z"/>
			</g>
			<g>
				<path fill="currentColor" d="M830.755,199.059c-0.623,0-1.127-0.504-1.127-1.127c0-2.973-1.85-5.734-4.83-7.207
					c-0.559-0.273-0.787-0.951-0.512-1.508s0.949-0.785,1.508-0.512c3.754,1.855,6.086,5.391,6.086,9.227
					C831.88,198.555,831.376,199.059,830.755,199.059z"/>
			</g>
			<g>
				<path fill="currentColor" d="M825.294,190.842c-0.168,0-0.34-0.038-0.502-0.119c-1.332-0.666-2.514-1.6-3.418-2.701
					c-0.395-0.48-0.324-1.189,0.156-1.585s1.189-0.323,1.584,0.156c0.703,0.858,1.633,1.589,2.684,2.114
					c0.557,0.278,0.781,0.955,0.504,1.512C826.105,190.613,825.708,190.842,825.294,190.842z"/>
			</g>
		</g>
		<g>
			<path fill="currentColor" d="M813.734,199.059h-14.564c-0.623,0-1.127-0.504-1.127-1.127s0.504-1.127,1.127-1.127h14.564
				c0.621,0,1.125,0.504,1.125,1.127S814.355,199.059,813.734,199.059z"/>
		</g>
		<g>
			<path fill="currentColor" d="M804.171,199.059c-0.623,0-1.127-0.504-1.127-1.127v-5.268c0-0.623,0.504-1.127,1.127-1.127
				c0.621,0,1.125,0.504,1.125,1.127v5.268C805.296,198.555,804.792,199.059,804.171,199.059z"/>
		</g>
		<g>
			<path fill="currentColor" d="M861.291,199.673h-30.535c-0.623,0-1.127-0.505-1.127-1.126c0-0.623,0.504-1.127,1.127-1.127h30.535
				c0.621,0,1.125,0.504,1.125,1.127C862.416,199.168,861.912,199.673,861.291,199.673z"/>
		</g>
		<g>
			<path fill="currentColor" d="M861.291,203.975h-30.535c-0.623,0-1.127-0.504-1.127-1.127c0-0.622,0.504-1.127,1.127-1.127h30.535
				c0.621,0,1.125,0.505,1.125,1.127C862.416,203.471,861.912,203.975,861.291,203.975z"/>
		</g>
		<g>
			<path fill="currentColor" d="M826.501,203.098h-8.512c-0.621,0-1.125-0.505-1.125-1.127c0-0.623,0.504-1.127,1.125-1.127h8.512
				c0.621,0,1.125,0.504,1.125,1.127C827.626,202.593,827.123,203.098,826.501,203.098z"/>
		</g>
		<g>
			<path fill="currentColor" d="M822.246,197.564c-0.623,0-1.127-0.504-1.127-1.126v-1.142c0-0.623,0.504-1.127,1.127-1.127
				c0.621,0,1.125,0.504,1.125,1.127v1.142C823.371,197.061,822.867,197.564,822.246,197.564z"/>
		</g>
		<g>
			<path fill="currentColor" d="M839.048,194.95c-0.623,0-1.127-0.505-1.127-1.127v-0.546c0-0.621,0.504-1.126,1.127-1.126
				c0.621,0,1.125,0.505,1.125,1.126v0.546C840.173,194.445,839.669,194.95,839.048,194.95z"/>
		</g>
		<g>
			<path fill="currentColor" d="M815.314,193.79c-0.623,0-1.127-0.505-1.127-1.126v-27.219c0-0.623,0.504-1.127,1.127-1.127
				c0.621,0,1.125,0.504,1.125,1.127v27.219C816.439,193.285,815.935,193.79,815.314,193.79z"/>
		</g>
		<g>
			<path fill="currentColor" d="M830.755,166.572h-15.441c-0.623,0-1.127-0.504-1.127-1.127s0.504-1.127,1.127-1.127h15.441
				c0.621,0,1.125,0.504,1.125,1.127S831.376,166.572,830.755,166.572z"/>
		</g>
		<g>
			<path fill="currentColor" d="M830.755,179.303c-0.623,0-1.127-0.504-1.127-1.127v-12.73c0-0.623,0.504-1.127,1.127-1.127
				c0.621,0,1.125,0.504,1.125,1.127v12.73C831.88,178.799,831.376,179.303,830.755,179.303z"/>
		</g>
		<g>
			<path fill="currentColor" d="M855.324,179.303h-24.568c-0.623,0-1.127-0.504-1.127-1.127c0-0.622,0.504-1.126,1.127-1.126h24.568
				c0.621,0,1.125,0.504,1.125,1.126C856.449,178.799,855.945,179.303,855.324,179.303z"/>
		</g>
		<g>
			<path fill="currentColor" d="M848.392,183.781h-17.637c-0.623,0-1.127-0.505-1.127-1.127c0-0.623,0.504-1.127,1.127-1.127h17.637
				c0.621,0,1.125,0.504,1.125,1.127C849.517,183.276,849.013,183.781,848.392,183.781z"/>
		</g>
		<g>
			<path fill="currentColor" d="M823.035,182.201c-0.623,0-1.127-0.505-1.127-1.127v-6.453c0-0.623,0.504-1.127,1.127-1.127
				c0.621,0,1.125,0.504,1.125,1.127v6.453C824.16,181.696,823.656,182.201,823.035,182.201z"/>
		</g>
		<g>
			<g>
				<path fill="currentColor" d="M816.777,158.711c-0.293,0-0.584-0.113-0.805-0.34c-0.436-0.445-0.426-1.158,0.02-1.593l6.256-6.104
					c0.447-0.437,1.158-0.425,1.592,0.02c0.436,0.446,0.426,1.159-0.02,1.593l-6.256,6.104
					C817.343,158.605,817.06,158.711,816.777,158.711z"/>
			</g>
			<g>
				<path fill="currentColor" d="M818.228,166.572c-0.152,0-0.307-0.031-0.457-0.098c-1.799-0.802-3.086-2.436-3.441-4.371
					c-0.359-1.938,0.258-3.926,1.652-5.316c0.441-0.438,1.154-0.437,1.592,0.002c0.439,0.441,0.438,1.154-0.002,1.593
					c-0.869,0.867-1.254,2.104-1.029,3.312c0.223,1.207,1.023,2.224,2.145,2.723c0.568,0.254,0.824,0.919,0.57,1.488
					C819.072,166.322,818.66,166.572,818.228,166.572z"/>
			</g>
			<g>
				<path fill="currentColor" d="M829.292,158.711c-0.283,0-0.566-0.105-0.785-0.32l-6.258-6.104c-0.445-0.434-0.455-1.146-0.021-1.592
					c0.434-0.447,1.145-0.457,1.592-0.021l6.258,6.104c0.445,0.435,0.455,1.147,0.02,1.592
					C829.876,158.598,829.585,158.711,829.292,158.711z"/>
			</g>
			<g>
				<path fill="currentColor" d="M827.839,166.572c-0.432,0-0.842-0.25-1.029-0.668c-0.252-0.569,0.004-1.234,0.57-1.488
					c1.123-0.499,1.926-1.518,2.148-2.721c0.221-1.209-0.164-2.447-1.031-3.313c-0.441-0.438-0.441-1.151-0.002-1.593
					c0.438-0.441,1.15-0.439,1.592-0.002c1.393,1.391,2.012,3.377,1.654,5.316c-0.357,1.936-1.645,3.569-3.445,4.371
					C828.148,166.541,827.992,166.572,827.839,166.572z"/>
			</g>
			<g>
				<path fill="currentColor" d="M823.035,152.607c-0.623,0-1.127-0.504-1.127-1.127v-8.863c0-0.622,0.504-1.126,1.127-1.126
					c0.621,0,1.125,0.504,1.125,1.126v8.863C824.16,152.104,823.656,152.607,823.035,152.607z"/>
			</g>
		</g>
		<g>
			<path fill="currentColor" d="M824.767,171.139h-3.465c-0.621,0-1.125-0.504-1.125-1.127s0.504-1.127,1.125-1.127h3.465
				c0.621,0,1.125,0.504,1.125,1.127S825.388,171.139,824.767,171.139z"/>
		</g>
		<g>
			<path fill="currentColor" d="M839.048,179.303c-0.623,0-1.127-0.504-1.127-1.127v-19.359c0-0.623,0.504-1.127,1.127-1.127
				c0.621,0,1.125,0.504,1.125,1.127v19.359C840.173,178.799,839.669,179.303,839.048,179.303z"/>
		</g>
		<g>
			<path fill="currentColor" d="M839.048,159.943c-0.451,0-0.875-0.273-1.049-0.719l-1.975-5.07c-0.227-0.58,0.061-1.232,0.641-1.459
				c0.578-0.224,1.23,0.063,1.457,0.642l1.975,5.07c0.225,0.579-0.061,1.232-0.641,1.458
				C839.322,159.918,839.183,159.943,839.048,159.943z"/>
		</g>
		<g>
			<path fill="currentColor" d="M856.236,159.943h-17.188c-0.623,0-1.127-0.505-1.127-1.127c0-0.623,0.504-1.127,1.127-1.127h17.188
				c0.623,0,1.127,0.504,1.127,1.127C857.363,159.438,856.859,159.943,856.236,159.943z"/>
		</g>
		<g>
			<path fill="currentColor" d="M856.236,154.872h-19.162c-0.623,0-1.127-0.505-1.127-1.127s0.504-1.126,1.127-1.126h19.162
				c0.623,0,1.127,0.504,1.127,1.126S856.859,154.872,856.236,154.872z"/>
		</g>
		<g>
			<path fill="currentColor" d="M861.291,150.681h-24.217c-0.623,0-1.127-0.505-1.127-1.126c0-0.623,0.504-1.127,1.127-1.127h24.217
				c0.621,0,1.125,0.504,1.125,1.127C862.416,150.176,861.912,150.681,861.291,150.681z"/>
		</g>
		<g>
			<path fill="currentColor" d="M846.375,136.633c-0.346,0-0.688-0.16-0.908-0.461c-0.367-0.502-0.26-1.207,0.242-1.574
				c5.893-4.324,10.811-9.68,14.621-15.922c0.326-0.53,1.018-0.695,1.547-0.375c0.531,0.324,0.697,1.019,0.375,1.549
				c-3.965,6.494-9.082,12.066-15.211,16.564C846.839,136.561,846.605,136.633,846.375,136.633z"/>
		</g>
		<g>
			<path fill="currentColor" d="M840.054,150.681c-0.539,0-1.016-0.389-1.107-0.938c-1.018-6.008,1.666-11.971,6.832-15.192
				c0.527-0.329,1.223-0.167,1.551,0.36c0.328,0.528,0.168,1.223-0.361,1.551c-4.389,2.736-6.666,7.803-5.803,12.905
				c0.104,0.612-0.309,1.194-0.922,1.298C840.179,150.675,840.117,150.681,840.054,150.681z"/>
		</g>
		<g>
			<path fill="currentColor" d="M861.291,120.389c-0.623,0-1.127-0.504-1.127-1.126v-14.048c0-0.623,0.504-1.127,1.127-1.127
				c0.621,0,1.125,0.504,1.125,1.127v14.048C862.416,119.885,861.912,120.389,861.291,120.389z"/>
		</g>
		<g>
			<path fill="currentColor" d="M845.585,174.692c-0.623,0-1.127-0.504-1.127-1.126v-9.526c0-0.622,0.504-1.126,1.127-1.126
				c0.621,0,1.125,0.504,1.125,1.126v9.526C846.71,174.188,846.207,174.692,845.585,174.692z"/>
		</g>
		<g>
			<path fill="currentColor" d="M852.603,174.692c-0.623,0-1.127-0.504-1.127-1.126v-9.526c0-0.622,0.504-1.126,1.127-1.126
				c0.621,0,1.125,0.504,1.125,1.126v9.526C853.728,174.188,853.224,174.692,852.603,174.692z"/>
		</g>
		<g>
			<path fill="currentColor" d="M861.291,174.692c-0.623,0-1.127-0.504-1.127-1.126v-9.526c0-0.622,0.504-1.126,1.127-1.126
				c0.621,0,1.125,0.504,1.125,1.126v9.526C862.416,174.188,861.912,174.692,861.291,174.692z"/>
		</g>
		<g>
			<path fill="currentColor" d="M864.347,159.943h-3.057c-0.623,0-1.127-0.505-1.127-1.127c0-0.623,0.504-1.127,1.127-1.127h3.057
				c0.623,0,1.127,0.504,1.127,1.127C865.474,159.438,864.97,159.943,864.347,159.943z"/>
		</g>
		<g>
			<path fill="currentColor" d="M874.687,154.872h-13.396c-0.623,0-1.127-0.505-1.127-1.127s0.504-1.126,1.127-1.126h13.396
				c0.623,0,1.127,0.504,1.127,1.126S875.31,154.872,874.687,154.872z"/>
		</g>
		<g>
			<path fill="currentColor" d="M885.507,150.681h-24.217c-0.623,0-1.127-0.505-1.127-1.126c0-0.623,0.504-1.127,1.127-1.127h24.217
				c0.621,0,1.125,0.504,1.125,1.127C886.632,150.176,886.128,150.681,885.507,150.681z"/>
		</g>
		<g>
			<path fill="currentColor" d="M876.205,136.633c-0.23,0-0.463-0.072-0.664-0.219c-6.129-4.496-11.246-10.07-15.211-16.564
				c-0.324-0.53-0.156-1.225,0.373-1.548c0.531-0.324,1.225-0.156,1.547,0.374c3.813,6.242,8.732,11.6,14.623,15.922
				c0.5,0.367,0.609,1.072,0.24,1.574C876.894,136.473,876.552,136.633,876.205,136.633z"/>
		</g>
		<g>
			<path fill="currentColor" d="M882.525,150.681c-0.063,0-0.125-0.006-0.188-0.017c-0.613-0.104-1.027-0.686-0.922-1.298
				c0.861-5.103-1.416-10.167-5.805-12.905c-0.527-0.328-0.689-1.022-0.359-1.551c0.328-0.527,1.021-0.689,1.551-0.36
				c5.166,3.222,7.848,9.185,6.832,15.192C883.541,150.292,883.064,150.681,882.525,150.681z"/>
		</g>
		<g>
			<path fill="currentColor" d="M861.291,150.681c-0.623,0-1.127-0.505-1.127-1.126v-4.566c0-0.622,0.504-1.127,1.127-1.127
				c0.621,0,1.125,0.505,1.125,1.127v4.566C862.416,150.176,861.912,150.681,861.291,150.681z"/>
		</g>
		<g>
			<path fill="currentColor" d="M867.916,150.681c-0.623,0-1.127-0.505-1.127-1.126v-3.513c0-0.622,0.504-1.127,1.127-1.127
				c0.621,0,1.125,0.505,1.125,1.127v3.513C869.041,150.176,868.537,150.681,867.916,150.681z"/>
		</g>
		<g>
			<path fill="currentColor" d="M874.541,150.681c-0.623,0-1.127-0.505-1.127-1.126v-3.513c0-0.622,0.504-1.127,1.127-1.127
				c0.621,0,1.125,0.505,1.125,1.127v3.513C875.666,150.176,875.162,150.681,874.541,150.681z"/>
		</g>
		<g>
			<path fill="currentColor" d="M854.666,150.681c-0.623,0-1.127-0.505-1.127-1.126v-3.513c0-0.622,0.504-1.127,1.127-1.127
				c0.621,0,1.125,0.505,1.125,1.127v3.513C855.791,150.176,855.287,150.681,854.666,150.681z"/>
		</g>
		<g>
			<path fill="currentColor" d="M848.041,150.681c-0.621,0-1.125-0.505-1.125-1.126v-3.513c0-0.622,0.504-1.127,1.125-1.127
				c0.623,0,1.127,0.505,1.127,1.127v3.513C849.167,150.176,848.664,150.681,848.041,150.681z"/>
		</g>
		<g>
			<path fill="currentColor" d="M861.091,192.403c-1.08-0.102-1.932-1.003-1.932-2.11c0-1.106,0.852-2.01,1.932-2.111v-2.253
				c-2.322,0.106-4.184,2.016-4.184,4.364c0,2.35,1.861,4.258,4.184,4.363V192.403z"/>
		</g>
	</g>
	<g>
		<g>
			<polygon fill="currentColor" points="761.201,243.874 758.949,243.874 758.949,221.854 654.298,221.854 654.298,243.874 
				652.046,243.874 652.046,219.602 761.201,219.602 			"/>
		</g>
		<g>
			<path fill="currentColor" d="M751.535,214.91c-41.496-98.543-41.355-152.557-41.35-153.091l0.014-1.112h24.453v2.252h-22.197
				c0.217,8.156,3.125,60.769,41.154,151.076L751.535,214.91z"/>
		</g>
		<g>
			<path fill="currentColor" d="M767.435,202.781l-2.219-0.391c8.6-48.866-29.561-148.533-29.949-149.536l-0.951-2.468l34.5,14.483
				l-0.084,0.83c-0.031,0.313-3.221,31.563-7.564,49.57l-2.188-0.527c3.914-16.224,6.891-43.368,7.426-48.442l-28.115-11.803
				C744.128,70.246,775.376,157.645,767.435,202.781z"/>
		</g>
		<g>
			<path fill="currentColor" d="M714.611,214.797c-11.826-39.238-0.143-93.236-0.021-93.778l2.197,0.487
				c-0.119,0.535-11.676,53.971-0.021,92.642L714.611,214.797z"/>
		</g>
		<g>
			<rect x="711.736" y="69.048" fill="currentColor" width="20.207" height="2.251"/>
		</g>
		<g>
			<rect x="712.443" y="76.055" fill="currentColor" width="23.875" height="2.254"/>
		</g>
		<g>
			<rect x="714.335" y="89.289" fill="currentColor" width="15.314" height="2.251"/>
		</g>
		<g>
			<rect x="716.503" y="101.064" fill="currentColor" width="28.982" height="2.251"/>
		</g>
		<g>
			<rect x="720.55" y="119.094" fill="currentColor" width="11.393" height="2.252"/>
		</g>
		<g>
			<rect x="722.941" y="128.375" fill="currentColor" width="22.545" height="2.254"/>
		</g>
		<g>
			<rect x="727.15" y="144.741" fill="currentColor" width="27.09" height="2.253"/>
		</g>
		<g>
			<rect x="733.05" y="161.84" fill="currentColor" width="19.521" height="2.253"/>
		</g>
		<g>
			<rect x="736.49" y="171.85" fill="currentColor" width="16.082" height="2.253"/>
		</g>
		<g>
			<rect x="740.259" y="182.275" fill="currentColor" width="14.814" height="2.254"/>
		</g>
		<g>
			<rect x="744.216" y="192.703" fill="currentColor" width="12.523" height="2.252"/>
		</g>
		<g>
			<rect x="711.736" y="152.666" fill="currentColor" width="11.205" height="2.252"/>
		</g>
		<g>
			<rect x="710.408" y="164.342" fill="currentColor" width="16.742" height="2.254"/>
		</g>
		<g>
			<rect x="710.408" y="171.85" fill="currentColor" width="8.371" height="2.253"/>
		</g>
		<g>
			<rect x="710.408" y="182.275" fill="currentColor" width="23.807" height="2.254"/>
		</g>
		<g>
			<rect x="711.312" y="190.43" fill="currentColor" width="9.238" height="2.252"/>
		</g>
		<g>
			<rect x="712.443" y="200.625" fill="currentColor" width="24.047" height="2.253"/>
		</g>
		<g>
			<rect x="741.781" y="66.463" fill="currentColor" width="10.791" height="2.251"/>
		</g>
		<g>
			<rect x="745.486" y="77.49" fill="currentColor" width="14.588" height="2.252"/>
		</g>
		<g>
			<rect x="747.177" y="84.27" fill="currentColor" width="7.896" height="2.253"/>
		</g>
		<g>
			<rect x="750.478" y="93.396" fill="currentColor" width="9.596" height="2.252"/>
		</g>
		<g>
			<g>
				<path fill="currentColor" d="M639.492,205.969c-0.623,0-1.127-0.504-1.127-1.127V54.91c0-0.622,0.504-1.126,1.127-1.126
					c0.621,0,1.125,0.504,1.125,1.126v149.932C640.617,205.465,640.113,205.969,639.492,205.969z"/>
			</g>
			<g>
				<path fill="currentColor" d="M688.146,56.037h-48.654c-0.623,0-1.127-0.504-1.127-1.127c0-0.622,0.504-1.126,1.127-1.126h48.654
					c0.621,0,1.125,0.504,1.125,1.126C689.271,55.533,688.767,56.037,688.146,56.037z"/>
			</g>
			<g>
				<path fill="currentColor" d="M688.146,205.969c-0.623,0-1.127-0.504-1.127-1.127V54.91c0-0.622,0.504-1.126,1.127-1.126
					c0.621,0,1.125,0.504,1.125,1.126v149.932C689.271,205.465,688.767,205.969,688.146,205.969z"/>
			</g>
			<g>
				<path fill="currentColor" d="M663.818,205.969h-31.75c-0.621,0-1.125-0.504-1.125-1.127c0-0.622,0.504-1.126,1.125-1.126h31.75
					c0.621,0,1.125,0.504,1.125,1.126C664.943,205.465,664.439,205.969,663.818,205.969z"/>
			</g>
			<g>
				<path fill="currentColor" d="M632.068,233.821c-0.621,0-1.125-0.505-1.125-1.126v-27.854c0-0.622,0.504-1.126,1.125-1.126
					c0.623,0,1.127,0.504,1.127,1.126v27.854C633.195,233.316,632.691,233.821,632.068,233.821z"/>
			</g>
			<g>
				<path fill="currentColor" d="M695.568,205.969h-31.75c-0.623,0-1.127-0.504-1.127-1.127c0-0.622,0.504-1.126,1.127-1.126h31.75
					c0.621,0,1.125,0.504,1.125,1.126C696.693,205.465,696.189,205.969,695.568,205.969z"/>
			</g>
			<g>
				<path fill="currentColor" d="M695.568,215.799c-0.623,0-1.127-0.504-1.127-1.127v-9.83c0-0.622,0.504-1.126,1.127-1.126
					c0.621,0,1.125,0.504,1.125,1.126v9.83C696.693,215.295,696.189,215.799,695.568,215.799z"/>
			</g>
			<g>
				<path fill="currentColor" d="M651.722,205.969c-0.555,0-1.037-0.41-1.113-0.977c-6.176-45.764-3.785-91.723,7.107-136.598
					c0.146-0.605,0.756-0.97,1.359-0.829c0.605,0.146,0.975,0.755,0.828,1.36c-10.826,44.602-13.203,90.28-7.064,135.766
					c0.082,0.617-0.35,1.184-0.965,1.268C651.824,205.965,651.773,205.969,651.722,205.969z"/>
			</g>
			<g>
				<path fill="currentColor" d="M675.914,205.969c-0.049,0-0.1-0.004-0.15-0.01c-0.617-0.084-1.049-0.65-0.965-1.268
					c6.137-45.484,3.76-91.162-7.066-135.766c-0.146-0.605,0.223-1.214,0.828-1.36c0.6-0.146,1.211,0.225,1.359,0.829
					c10.893,44.877,13.285,90.835,7.109,136.598C676.953,205.559,676.468,205.969,675.914,205.969z"/>
			</g>
			<g>
				<path fill="currentColor" d="M658.81,69.787c-0.115,0-0.234-0.02-0.352-0.057c-0.59-0.195-0.912-0.831-0.717-1.422
					c0.865-2.633,3.307-4.402,6.076-4.402c2.771,0,5.213,1.77,6.076,4.402c0.193,0.592-0.127,1.229-0.719,1.422
					c-0.59,0.191-1.227-0.127-1.42-0.72c-0.559-1.706-2.141-2.852-3.938-2.852c-1.795,0-3.377,1.146-3.938,2.853
					C659.724,69.486,659.283,69.787,658.81,69.787z"/>
			</g>
			<g>
				<path fill="currentColor" d="M642.376,56.037c-0.621,0-1.125-0.504-1.125-1.127V38.818c0-0.623,0.504-1.127,1.125-1.127
					c0.623,0,1.127,0.504,1.127,1.127V54.91C643.503,55.533,643,56.037,642.376,56.037z"/>
			</g>
			<g>
				<path fill="currentColor" d="M663.818,39.945h-21.441c-0.621,0-1.125-0.505-1.125-1.127c0-0.623,0.504-1.127,1.125-1.127h21.441
					c0.621,0,1.125,0.504,1.125,1.127C664.943,39.44,664.439,39.945,663.818,39.945z"/>
			</g>
			<g>
				<path fill="currentColor" d="M685.259,56.037c-0.623,0-1.127-0.504-1.127-1.127V38.818c0-0.623,0.504-1.127,1.127-1.127
					c0.621,0,1.125,0.504,1.125,1.127V54.91C686.384,55.533,685.88,56.037,685.259,56.037z"/>
			</g>
			<g>
				<path fill="currentColor" d="M685.259,39.945h-21.441c-0.623,0-1.127-0.505-1.127-1.127c0-0.623,0.504-1.127,1.127-1.127h21.441
					c0.621,0,1.125,0.504,1.125,1.127C686.384,39.44,685.88,39.945,685.259,39.945z"/>
			</g>
			<g>
				<path fill="currentColor" d="M663.818,200.24h-12.822c-0.623,0-1.127-0.505-1.127-1.127c0-0.623,0.504-1.127,1.127-1.127h12.822
					c0.621,0,1.125,0.504,1.125,1.127C664.943,199.735,664.439,200.24,663.818,200.24z"/>
			</g>
			<g>
				<path fill="currentColor" d="M663.818,195.082h-13.4c-0.623,0-1.127-0.504-1.127-1.127c0-0.622,0.504-1.127,1.127-1.127h13.4
					c0.621,0,1.125,0.505,1.125,1.127C664.943,194.578,664.439,195.082,663.818,195.082z"/>
			</g>
			<g>
				<path fill="currentColor" d="M663.818,189.924h-13.902c-0.623,0-1.127-0.504-1.127-1.127c0-0.621,0.504-1.126,1.127-1.126h13.902
					c0.621,0,1.125,0.505,1.125,1.126C664.943,189.42,664.439,189.924,663.818,189.924z"/>
			</g>
			<g>
				<path fill="currentColor" d="M663.818,184.767h-14.332c-0.621,0-1.125-0.505-1.125-1.127s0.504-1.126,1.125-1.126h14.332
					c0.621,0,1.125,0.504,1.125,1.126S664.439,184.767,663.818,184.767z"/>
			</g>
			<g>
				<path fill="currentColor" d="M663.818,179.609H649.13c-0.621,0-1.125-0.504-1.125-1.126s0.504-1.127,1.125-1.127h14.688
					c0.621,0,1.125,0.505,1.125,1.127S664.439,179.609,663.818,179.609z"/>
			</g>
			<g>
				<path fill="currentColor" d="M663.818,174.452h-14.977c-0.623,0-1.127-0.505-1.127-1.126c0-0.623,0.504-1.127,1.127-1.127h14.977
					c0.621,0,1.125,0.504,1.125,1.127C664.943,173.947,664.439,174.452,663.818,174.452z"/>
			</g>
			<g>
				<path fill="currentColor" d="M663.818,169.295h-15.191c-0.621,0-1.125-0.505-1.125-1.127c0-0.623,0.504-1.127,1.125-1.127h15.191
					c0.621,0,1.125,0.504,1.125,1.127C664.943,168.79,664.439,169.295,663.818,169.295z"/>
			</g>
			<g>
				<path fill="currentColor" d="M663.818,164.137h-15.33c-0.621,0-1.125-0.504-1.125-1.127c0-0.622,0.504-1.127,1.125-1.127h15.33
					c0.621,0,1.125,0.505,1.125,1.127C664.943,163.633,664.439,164.137,663.818,164.137z"/>
			</g>
			<g>
				<path fill="currentColor" d="M663.818,158.979h-15.396c-0.621,0-1.125-0.504-1.125-1.126s0.504-1.127,1.125-1.127h15.396
					c0.621,0,1.125,0.505,1.125,1.127S664.439,158.979,663.818,158.979z"/>
			</g>
			<g>
				<path fill="currentColor" d="M663.818,153.821h-15.396c-0.621,0-1.125-0.504-1.125-1.126c0-0.623,0.504-1.127,1.125-1.127h15.396
					c0.621,0,1.125,0.504,1.125,1.127C664.943,153.317,664.439,153.821,663.818,153.821z"/>
			</g>
			<g>
				<path fill="currentColor" d="M663.818,148.666h-15.314c-0.621,0-1.125-0.504-1.125-1.127s0.504-1.127,1.125-1.127h15.314
					c0.621,0,1.125,0.504,1.125,1.127S664.439,148.666,663.818,148.666z"/>
			</g>
			<g>
				<path fill="currentColor" d="M663.818,143.508h-15.166c-0.621,0-1.125-0.504-1.125-1.127c0-0.622,0.504-1.127,1.125-1.127h15.166
					c0.621,0,1.125,0.505,1.125,1.127C664.943,143.004,664.439,143.508,663.818,143.508z"/>
			</g>
			<g>
				<path fill="currentColor" d="M663.818,138.35h-14.951c-0.623,0-1.127-0.504-1.127-1.126s0.504-1.127,1.127-1.127h14.951
					c0.621,0,1.125,0.505,1.125,1.127S664.439,138.35,663.818,138.35z"/>
			</g>
			<g>
				<path fill="currentColor" d="M663.818,133.193h-14.654c-0.621,0-1.125-0.505-1.125-1.127c0-0.623,0.504-1.127,1.125-1.127h14.654
					c0.621,0,1.125,0.504,1.125,1.127C664.943,132.688,664.439,133.193,663.818,133.193z"/>
			</g>
			<g>
				<path fill="currentColor" d="M663.818,128.036h-14.291c-0.621,0-1.125-0.505-1.125-1.127s0.504-1.126,1.125-1.126h14.291
					c0.621,0,1.125,0.504,1.125,1.126S664.439,128.036,663.818,128.036z"/>
			</g>
			<g>
				<path fill="currentColor" d="M663.818,122.879h-13.846c-0.623,0-1.127-0.505-1.127-1.127c0-0.623,0.504-1.127,1.127-1.127h13.846
					c0.621,0,1.125,0.504,1.125,1.127C664.943,122.374,664.439,122.879,663.818,122.879z"/>
			</g>
			<g>
				<path fill="currentColor" d="M663.818,117.721h-13.334c-0.623,0-1.127-0.504-1.127-1.127s0.504-1.127,1.127-1.127h13.334
					c0.621,0,1.125,0.504,1.125,1.127S664.439,117.721,663.818,117.721z"/>
			</g>
			<g>
				<path fill="currentColor" d="M663.818,112.563H651.07c-0.623,0-1.127-0.504-1.127-1.127c0-0.622,0.504-1.126,1.127-1.126h12.748
					c0.621,0,1.125,0.504,1.125,1.126C664.943,112.059,664.439,112.563,663.818,112.563z"/>
			</g>
			<g>
				<path fill="currentColor" d="M663.818,107.406H651.72c-0.621,0-1.125-0.506-1.125-1.128s0.504-1.126,1.125-1.126h12.098
					c0.621,0,1.125,0.504,1.125,1.126S664.439,107.406,663.818,107.406z"/>
			</g>
			<g>
				<path fill="currentColor" d="M663.818,102.248h-11.355c-0.623,0-1.127-0.505-1.127-1.127c0-0.623,0.504-1.127,1.127-1.127h11.355
					c0.621,0,1.125,0.504,1.125,1.127C664.943,101.743,664.439,102.248,663.818,102.248z"/>
			</g>
			<g>
				<path fill="currentColor" d="M663.818,97.091h-10.557c-0.621,0-1.125-0.505-1.125-1.127s0.504-1.126,1.125-1.126h10.557
					c0.621,0,1.125,0.504,1.125,1.126S664.439,97.091,663.818,97.091z"/>
			</g>
			<g>
				<path fill="currentColor" d="M663.818,91.932h-9.664c-0.623,0-1.127-0.504-1.127-1.127c0-0.621,0.504-1.126,1.127-1.126h9.664
					c0.621,0,1.125,0.505,1.125,1.126C664.943,91.428,664.439,91.932,663.818,91.932z"/>
			</g>
			<g>
				<path fill="currentColor" d="M663.818,86.776h-8.707c-0.623,0-1.127-0.505-1.127-1.127s0.504-1.126,1.127-1.126h8.707
					c0.621,0,1.125,0.504,1.125,1.126S664.439,86.776,663.818,86.776z"/>
			</g>
			<g>
				<path fill="currentColor" d="M663.818,81.619h-7.668c-0.623,0-1.127-0.505-1.127-1.127c0-0.623,0.504-1.127,1.127-1.127h7.668
					c0.621,0,1.125,0.504,1.125,1.127C664.943,81.114,664.439,81.619,663.818,81.619z"/>
			</g>
			<g>
				<path fill="currentColor" d="M663.818,76.461h-6.555c-0.623,0-1.127-0.504-1.127-1.127c0-0.622,0.504-1.127,1.127-1.127h6.555
					c0.621,0,1.125,0.505,1.125,1.127C664.943,75.957,664.439,76.461,663.818,76.461z"/>
			</g>
			<g>
				<path fill="currentColor" d="M680.861,50.994h-38.484c-0.621,0-1.125-0.504-1.125-1.127s0.504-1.127,1.125-1.127h38.484
					c0.621,0,1.125,0.504,1.125,1.127S681.482,50.994,680.861,50.994z"/>
			</g>
			<g>
				<path fill="currentColor" d="M680.861,45.31h-38.484c-0.621,0-1.125-0.505-1.125-1.126c0-0.623,0.504-1.127,1.125-1.127h38.484
					c0.621,0,1.125,0.504,1.125,1.127C681.986,44.805,681.482,45.31,680.861,45.31z"/>
			</g>
		</g>
		<g>
			<path fill="currentColor" d="M670.925,0h-53.602c-0.623,0-1.126,0.505-1.126,1.127v201.932h2.251v-4.477h2.559v4.477h2.252v-4.477
				h3.246v4.477h2.252v-4.477h3.359v-2.254h-3.359v-6.283h3.359v-2.254h-3.359v-6.282h3.359v-2.253h-3.359v-6.283h3.359v-2.254
				h-3.359v-6.281h3.359v-2.254h-3.359v-6.281h3.359v-2.254h-3.359v-6.283h3.359v-2.254h-3.359v-6.281h3.359v-2.254h-3.359v-6.283
				h3.359v-2.253h-3.359v-6.284h3.359v-2.253h-3.359v-6.281h3.359v-2.253h-3.359v-6.284h3.359v-2.253h-3.359V96.15h3.359v-2.254
				h-3.359v-6.283h3.359V85.36h-3.359v-6.283h3.359v-2.253h-3.359v-6.283h3.359v-2.254h-3.359v-6.281h3.359v-2.254h-3.359v-6.281
				h3.359v-2.254h-3.359v-6.283h3.359V42.68h-3.359l0.002-6.283h3.357v-2.254h-3.357v-6.279h5.373v3.945h2.252v-3.945h7.027v3.945
				h2.252v-3.945h11.654c0.623,0,1.127-0.505,1.127-1.127c0-0.623-0.504-1.127-1.127-1.127h-11.654v-6.283h13.029
				c0.623,0,1.127-0.505,1.127-1.127c0-0.623-0.504-1.127-1.127-1.127h-13.029l-0.002-6.282h17.43c0.621,0,1.125-0.505,1.125-1.127
				s-0.504-1.126-1.125-1.126h-17.43V2.254h24.137v29.555h2.252V1.127C672.05,0.505,671.546,0,670.925,0z M621.007,196.328h-2.559
				v-6.283h2.559V196.328z M621.007,187.791h-2.559v-6.282h2.559V187.791z M621.007,179.256h-2.559v-6.283h2.559V179.256z
				 M621.007,170.719h-2.559v-6.281h2.559V170.719z M621.007,162.184h-2.559v-6.281h2.559V162.184z M621.007,153.648h-2.559v-6.283
				h2.559V153.648z M621.007,145.111h-2.559v-6.281h2.559V145.111z M621.007,136.576h-2.559v-6.283h2.559V136.576z M621.007,128.04
				h-2.559v-6.284h2.559V128.04z M621.007,119.503h-2.559v-6.281h2.559V119.503z M621.007,110.969h-2.559v-6.284h2.559V110.969z
				 M621.007,102.432h-2.559V96.15h2.559V102.432z M621.007,93.896h-2.559v-6.283h2.559V93.896z M621.007,85.36h-2.559v-6.283h2.559
				V85.36z M621.007,76.824h-2.559v-6.283h2.559V76.824z M621.007,68.287h-2.559v-6.281h2.559V68.287z M621.007,59.752h-2.559
				v-6.281h2.559V59.752z M621.007,51.217h-2.559v-6.283h2.559V51.217z M621.007,42.68h-2.559l0.002-6.283h2.557V42.68z
				 M621.007,34.143h-2.557v-6.279h2.557V34.143z M621.007,25.609h-2.557v-6.283h2.557V25.609z M621.007,17.072h-2.557l-0.002-6.282
				h2.559V17.072z M621.007,8.537h-2.559V2.254h2.559V8.537z M623.259,2.254h3.246v6.283h-3.246V2.254z M626.505,196.328h-3.246
				v-6.283h3.246V196.328z M626.505,187.791h-3.246v-6.282h3.246V187.791z M626.505,179.256h-3.246v-6.283h3.246V179.256z
				 M626.505,170.719h-3.246v-6.281h3.246V170.719z M626.505,162.184h-3.246v-6.281h3.246V162.184z M626.505,153.648h-3.246v-6.283
				h3.246V153.648z M626.505,145.111h-3.246v-6.281h3.246V145.111z M626.505,136.576h-3.246v-6.283h3.246V136.576z M626.505,128.04
				h-3.246v-6.284h3.246V128.04z M626.505,119.503h-3.246v-6.281h3.246V119.503z M626.505,110.969h-3.246v-6.284h3.246V110.969z
				 M626.505,102.432h-3.246V96.15h3.246V102.432z M626.505,93.896h-3.246v-6.283h3.246V93.896z M626.505,85.36h-3.246v-6.283h3.246
				V85.36z M626.505,76.824h-3.246v-6.283h3.246V76.824z M626.505,68.287h-3.246v-6.281h3.246V68.287z M626.505,59.752h-3.246
				v-6.281h3.246V59.752z M626.505,51.217h-3.246v-6.283h3.246V51.217z M626.505,42.68h-3.246v-6.283h3.248L626.505,42.68z
				 M626.507,34.143h-3.248v-6.279h3.248V34.143z M626.507,25.609h-3.248v-6.283h3.248V25.609z M623.259,17.072V10.79h3.246
				l0.002,6.282H623.259z M634.132,25.609h-5.373v-6.283h5.373V25.609z M634.132,17.072h-5.373l-0.002-6.282h5.375V17.072z
				 M634.132,8.537h-5.375V2.254h5.375V8.537z M636.384,2.254h7.025v6.283h-7.025V2.254z M643.412,25.609h-7.027v-6.283h7.027
				V25.609z M636.384,17.072V10.79h7.025l0.002,6.282H636.384z"/>
		</g>
	</g>
</g>
</svg>