<?xml version="1.0" encoding="utf-8"?>
<!-- Generator: Adobe Illustrator 16.0.0, SVG Export Plug-In . SVG Version: 6.00 Build 0)  -->
<!DOCTYPE svg PUBLIC "-//W3C//DTD SVG 1.1//EN" "http://www.w3.org/Graphics/SVG/1.1/DTD/svg11.dtd">
<svg version="1.1" id="Layer_1" xmlns="http://www.w3.org/2000/svg" xmlns:xlink="http://www.w3.org/1999/xlink" x="0px" y="0px"
	 width="100px" height="145px" viewBox="0 0 100 145" enable-background="new 0 0 100 145" xml:space="preserve">
<g>
	<path fill-rule="evenodd" clip-rule="evenodd" fill="#F58220" d="M0,50.381c0,23.963,15.068,51.117,29.06,70.111
		C31.351,123.602,46.477,145,50,145c1.93,0,3.76-2.801,4.829-3.941l12.054-15.071c4.635-6.294,10.563-14.495,14.577-21.352
		C90.533,89.145,100,69.827,100,50.766c0-7.973-2.012-14.775-4.384-20.551C83.248,0.098,41.364-12.043,14.487,15.091
		C5.948,23.713,0,37.163,0,50.381L0,50.381z"/>
	<path fill-rule="evenodd" clip-rule="evenodd" fill="#FFFFFF" d="M53.032,90.795c-21.042,0-38.097-16.855-38.097-37.649
		S31.99,15.497,53.032,15.497v11.126c-14.825,0-26.842,11.874-26.842,26.523c0,14.651,12.017,26.524,26.842,26.524V90.795
		L53.032,90.795z M59.47,53.146c0-3.517-2.883-6.368-6.438-6.368c-3.561,0-6.448,2.851-6.448,6.368c0,3.516,2.887,6.368,6.448,6.368
		C56.587,59.515,59.47,56.662,59.47,53.146L59.47,53.146z M53.032,26.623L53.032,26.623v9.147c9.706,0,17.579,7.782,17.579,17.376
		h9.26C79.871,38.497,67.852,26.623,53.032,26.623z"/>
</g>
</svg>
